<?xml version="1.0" encoding="UTF-8" standalone="no"?>
<svg
   width="700"
   height="700"
   class="s-PVzgibwQH96a"
   version="1.1"
   id="svg380"
   sodipodi:docname="30daychartchallenge-day-1-part-to-whole-2.svg"
   inkscape:version="1.1.2 (0a00cf5339, 2022-02-04)"
   xmlns:inkscape="http://www.inkscape.org/namespaces/inkscape"
   xmlns:sodipodi="http://sodipodi.sourceforge.net/DTD/sodipodi-0.dtd"
   xmlns="http://www.w3.org/2000/svg"
   xmlns:svg="http://www.w3.org/2000/svg">
  <defs
     id="defs384" />
  <sodipodi:namedview
     id="namedview382"
     pagecolor="#ffffff"
     bordercolor="#666666"
     borderopacity="1.0"
     inkscape:pageshadow="2"
     inkscape:pageopacity="0.0"
     inkscape:pagecheckerboard="0"
     showgrid="false"
     inkscape:zoom="0.92"
     inkscape:cx="350"
     inkscape:cy="349.45652"
     inkscape:window-width="2560"
     inkscape:window-height="1367"
     inkscape:window-x="0"
     inkscape:window-y="0"
     inkscape:window-maximized="1"
     inkscape:current-layer="svg380" />
  <g
     transform="translate(0, 0)"
     class="s-PVzgibwQH96a"
     id="g378">
    <g
       class="s-PVzgibwQH96a"
       id="g376">
      <path
         d="M361.4867431549602,441.8495815942684L385.03213341261807,463.6806869018123L457.18456814270945,503.82497887461L541.1529534798229,516.845540773526L573.6160374696302,512.8374648759257L624.1238911582764,496.67664799489194L677.9225801050301,461.56995299694967L679.5410828962707,457.07438855091925L685.6140653310706,436.17104590262255L690.3625323774907,414.9276255039535L693.7677440054665,393.4279654300316L695.8162614003961,371.75691501690636L696.5,350.0000000000001L695.816261400396,328.2430849830914L693.7677440054666,306.57203456996893L690.3625323774908,285.07237449604685L685.6140653310707,263.82895409737785L679.541082896271,242.9256114490813L672.167552360279,222.44484249475886L663.5225736794757,202.4674754727023L653.6402646351985,183.0723519237553L642.5596261864481,164.3360155397775L630.324388550919,146.33241008065767L616.9828386218111,129.13258755207914L602.587629401519,112.80442779570942L587.1955722042906,97.41237059848076L570.8674124479211,83.01716137818914L553.6675899193415,69.67561144908039L535.6639844602217,57.44037381355143L516.9276480762443,46.359735364801246L497.5325245272976,36.47742632052418L477.5551575052412,27.832447639721018L459.395317905994,21.294503087326433L317.80519964274947,372.7421038436251L341.5699069207861,417.30871056598727Z"
         fill="#003233"
         stroke="white"
         class="s-PVzgibwQH96a"
         id="path2" />
      <g
         transform="translate(518.1455311376153, 295.8156489956631)"
         class="s-PVzgibwQH96a"
         id="g8">
        <text
           x="0"
           y="0"
           text-anchor="middle"
           dominant-baseline="middle"
           fill="white"
           font-size="14px"
           font-weight="bold"
           class="s-PVzgibwQH96a"
           id="text4">USA</text>
        <text
           x="0"
           y="15"
           text-anchor="middle"
           dominant-baseline="middle"
           fill="white"
           font-size="14px"
           class="s-PVzgibwQH96a"
           id="text6">$812B, 37.8%</text>
      </g>
      <path
         d="M395.5318412147766,581.8856641567697L333.67159368376133,506.2439115279704L280.8209019841638,531.5338186637313L267.0962851117504,582.9025097900578L283.3254817580494,610.470852235274L342.37674422431445,639.7179989009953L355.9901003154224,639.5951814109748L379.95588660450846,629.3718866496029L382.1305675587052,626.4373107287648Z"
         fill="#267978"
         stroke="white"
         class="s-PVzgibwQH96a"
         id="path10" />
      <g
         transform="translate(328.5537295177809, 570.8931697956273)"
         class="s-PVzgibwQH96a"
         id="g16">
        <text
           x="0"
           y="0"
           text-anchor="middle"
           dominant-baseline="middle"
           fill="white"
           font-size="14px"
           font-weight="bold"
           class="s-PVzgibwQH96a"
           id="text12">UK</text>
        <text
           x="0"
           y="15"
           text-anchor="middle"
           dominant-baseline="middle"
           fill="white"
           font-size="14px"
           class="s-PVzgibwQH96a"
           id="text14">$70B, 3.3%</text>
      </g>
      <path
         d="M543.9048518129007,548.8223917285412L457.66256565525214,584.6763464849901L456.2766367861906,589.3408767734644L462.4102641830918,631.0882959366362L498.48521501645297,663.0371536297599L516.9276480762443,653.6402646351988L535.6639844602224,642.5596261864481L553.6675899193426,630.3243885509187L570.8674124479214,616.9828386218106L581.787924654611,607.3551120222639L553.3540783978373,553.7256249409517Z"
         fill="#267978"
         stroke="white"
         class="s-PVzgibwQH96a"
         id="path18" />
      <g
         transform="translate(509.1026030451962, 601.2344022900801)"
         class="s-PVzgibwQH96a"
         id="g24">
        <text
           x="0"
           y="0"
           text-anchor="middle"
           dominant-baseline="middle"
           fill="white"
           font-size="14px"
           font-weight="bold"
           class="s-PVzgibwQH96a"
           id="text20">Germany</text>
        <text
           x="0"
           y="15"
           text-anchor="middle"
           dominant-baseline="middle"
           fill="white"
           font-size="14px"
           class="s-PVzgibwQH96a"
           id="text22">$58B, 2.7%</text>
      </g>
      <path
         d="M337.25591165194317,489.81154520241984L333.67159368376133,506.2439115279704L395.5318412147766,581.8856641567697L432.1951503338804,577.1390847266265L443.19174270075104,570.1735488826483L457.18456814270945,503.82497887461L385.03213341261807,463.6806869018123L338.7756257539349,487.90464889840797Z"
         fill="#267978"
         stroke="white"
         class="s-PVzgibwQH96a"
         id="path26" />
      <g
         transform="translate(395.6078923122657, 516.0559011669186)"
         class="s-PVzgibwQH96a"
         id="g32">
        <text
           x="0"
           y="0"
           text-anchor="middle"
           dominant-baseline="middle"
           fill="white"
           font-size="14px"
           font-weight="bold"
           class="s-PVzgibwQH96a"
           id="text28">France</text>
        <text
           x="0"
           y="15"
           text-anchor="middle"
           dominant-baseline="middle"
           fill="white"
           font-size="14px"
           class="s-PVzgibwQH96a"
           id="text30">$57B, 2.7%</text>
      </g>
      <path
         d="M457.18456814270945,503.82497887461L443.19174270075104,570.1735488826483L457.66256565525214,584.6763464849901L543.9048518129007,548.8223917285412L541.1529534798229,516.845540773526Z"
         fill="#267978"
         stroke="white"
         class="s-PVzgibwQH96a"
         id="path34" />
      <path
         d="M577.8514513445504,526.9416446326588L553.3540783978373,553.7256249409517L581.787924654611,607.3551120222639L587.1955722042907,602.587629401519L602.587629401519,587.1955722042906L616.9828386218119,570.8674124479197L630.3243885509193,553.6675899193419L631.9259803957301,551.310919085521L614.5562926515439,531.0913614271833Z"
         fill="#267978"
         stroke="white"
         class="s-PVzgibwQH96a"
         id="path36" />
      <path
         d="M285.72273837305113,452.37551454979655L337.25591165194317,489.81154520241984L338.7756257539349,487.90464889840797L341.93713874978613,455.7797606868475L327.8386711941481,436.642733724407L287.3385729809433,448.3647742302858Z"
         fill="#267978"
         stroke="white"
         class="s-PVzgibwQH96a"
         id="path38" />
      <path
         d="M337.25591165194317,489.81154520241984L285.72273837305113,452.37551454979655L259.0492009309152,518.5831768690919L280.8209019841638,531.5338186637313L333.67159368376133,506.2439115279704Z"
         fill="#267978"
         stroke="white"
         class="s-PVzgibwQH96a"
         id="path40" />
      <path
         d="M267.0962851117504,582.9025097900578L235.9417265626396,575.9393435697187L200.9649078511427,662.7569772367049L202.46747547270132,663.5225736794753L222.44484249475911,672.167552360279L230.5971859993406,675.1025766215747L277.92721764874454,639.8873120124709L283.3254817580494,610.470852235274Z"
         fill="#267978"
         stroke="white"
         class="s-PVzgibwQH96a"
         id="path42" />
      <path
         d="M361.4867431549602,441.8495815942684L341.5699069207861,417.30871056598727L331.8609749598165,425.1606871413823L327.8386711941481,436.642733724407L341.93713874978613,455.7797606868475Z"
         fill="#267978"
         stroke="white"
         class="s-PVzgibwQH96a"
         id="path44" />
      <path
         d="M370.8720172444693,695.8440704332139L382.5819247916074,633.0676706806898L379.95588660450846,629.3718866496029L355.9901003154224,639.5951814109748L365.480961898205,696.01349117278Z"
         fill="#267978"
         stroke="white"
         class="s-PVzgibwQH96a"
         id="path46" />
      <path
         d="M395.5318412147766,581.8856641567697L382.1305675587052,626.4373107287648L422.19255022517075,622.251409894314L438.89370676373164,590.8678540075657L432.1951503338804,577.1390847266265Z"
         fill="#267978"
         stroke="white"
         class="s-PVzgibwQH96a"
         id="path48" />
      <path
         d="M443.19174270075104,570.1735488826483L432.1951503338804,577.1390847266265L438.89370676373164,590.8678540075657L456.2766367861906,589.3408767734644L457.66256565525214,584.6763464849901Z"
         fill="#267978"
         stroke="white"
         class="s-PVzgibwQH96a"
         id="path50" />
      <path
         d="M287.3385729809433,448.36477423028583L327.8386711941481,436.642733724407L331.8609749598165,425.1606871413823L303.5861032789134,408.03600262194135Z"
         fill="#267978"
         stroke="white"
         class="s-PVzgibwQH96a"
         id="path52" />
      <path
         d="M382.5819247916074,633.0676706806898L424.4847201172613,649.7242535709099L435.67505406887926,642.4978839890069L422.19255022517075,622.251409894314L382.1305675587052,626.4373107287648L379.95588660450846,629.3718866496029Z"
         fill="#267978"
         stroke="white"
         class="s-PVzgibwQH96a"
         id="path54" />
      <path
         d="M625.192581903844,499.3376502096294L653.0580965174945,517.9120406034245L653.6402646351986,516.9276480762449L663.5225736794754,497.5325245272986L672.167552360279,477.5551575052409L677.9225801050302,461.5699529969494L624.1238911582764,496.67664799489194Z"
         fill="#267978"
         stroke="white"
         class="s-PVzgibwQH96a"
         id="path56" />
      <path
         d="M311.5379180591143,667.9517323914095L342.37674422431445,639.7179989009953L283.3254817580494,610.470852235274L277.92721764874454,639.8873120124709Z"
         fill="#267978"
         stroke="white"
         class="s-PVzgibwQH96a"
         id="path58" />
      <path
         d="M311.5379180591143,667.9517323914095L309.999023343201,694.0916898216759L328.243084983093,695.8162614003961L350.0000000000005,696.5L365.480961898205,696.01349117278L355.9901003154224,639.5951814109748L342.37674422431445,639.7179989009953Z"
         fill="#267978"
         stroke="white"
         class="s-PVzgibwQH96a"
         id="path60" />
      <path
         d="M457.07438855091993,679.5410828962705L477.5551575052404,672.1675523602793L497.5325245272971,663.5225736794762L498.48521501645297,663.0371536297599L462.4102641830918,631.0882959366362L441.79542180869686,643.3953945199445L454.34628681985987,680.3336697170403Z"
         fill="#267978"
         stroke="white"
         class="s-PVzgibwQH96a"
         id="path62" />
      <path
         d="M382.5819247916074,633.0676706806898L370.8720172444693,695.8440704332139L371.7569150169071,695.8162614003961L393.4279654300317,693.7677440054665L414.92762550395366,690.3625323774907L427.109285327707,687.6396088012375L424.4847201172613,649.7242535709099Z"
         fill="#267978"
         stroke="white"
         class="s-PVzgibwQH96a"
         id="path64" />
      <path
         d="M577.8514513445504,526.9416446326588L573.6160374696302,512.8374648759257L541.1529534798229,516.845540773526L543.9048518129007,548.8223917285412L553.3540783978373,553.7256249409517Z"
         fill="#267978"
         stroke="white"
         class="s-PVzgibwQH96a"
         id="path66" />
      <path
         d="M422.19255022517075,622.251409894314L435.67505406887926,642.4978839890069L441.79542180869686,643.3953945199445L462.4102641830918,631.0882959366362L456.2766367861906,589.3408767734644L438.89370676373164,590.8678540075657Z"
         fill="#267978"
         stroke="white"
         class="s-PVzgibwQH96a"
         id="path68" />
      <path
         d="M361.4867431549602,441.8495815942684L341.93713874978613,455.7797606868475L338.7756257539349,487.90464889840797L385.03213341261807,463.6806869018123Z"
         fill="#267978"
         stroke="white"
         class="s-PVzgibwQH96a"
         id="path70" />
      <path
         d="M642.5596261864486,535.6639844602216L653.0580965174945,517.9120406034245L625.192581903844,499.3376502096294L614.5562926515439,531.0913614271833L631.92598039573,551.3109190855212Z"
         fill="#267978"
         stroke="white"
         class="s-PVzgibwQH96a"
         id="path72" />
      <path
         d="M436.1710459026223,685.6140653310706L454.34628681985987,680.3336697170403L441.79542180869686,643.3953945199445L435.67505406887926,642.4978839890069L424.4847201172613,649.7242535709099L427.109285327707,687.6396088012375Z"
         fill="#267978"
         stroke="white"
         class="s-PVzgibwQH96a"
         id="path74" />
      <path
         d="M303.58610327891336,408.0360026219414L331.8609749598165,425.1606871413823L341.5699069207861,417.30871056598727L317.80519964274947,372.742103843625Z"
         fill="#267978"
         stroke="white"
         class="s-PVzgibwQH96a"
         id="path76" />
      <path
         d="M242.92561144908103,679.5410828962708L263.8289540973775,685.6140653310706L285.07237449604713,690.3625323774909L306.57203456996734,693.7677440054664L309.999023343201,694.0916898216759L311.5379180591143,667.9517323914095L277.92721764874454,639.8873120124709L230.59718599934064,675.1025766215747Z"
         fill="#267978"
         stroke="white"
         class="s-PVzgibwQH96a"
         id="path78" />
      <path
         d="M625.192581903844,499.3376502096294L624.1238911582764,496.67664799489194L573.6160374696302,512.8374648759257L577.8514513445504,526.9416446326588L614.5562926515439,531.0913614271833Z"
         fill="#267978"
         stroke="white"
         class="s-PVzgibwQH96a"
         id="path80" />
      <path
         d="M280.8209019841638,531.5338186637313L259.0492009309152,518.5831768690917L235.94172656263964,575.9393435697187L267.0962851117504,582.9025097900578Z"
         fill="#267978"
         stroke="white"
         class="s-PVzgibwQH96a"
         id="path82" />
      <path
         d="M216.63357554322977,262.2817067008516L243.61687215731345,263.89309230729793L304.28879723615864,243.50897910024673L328.1165133030027,220.01760808844742L344.8715506160652,191.29393249520615L353.6548506525935,156.94519107439353L343.32582459849635,90.32684396816857L327.7174677727126,66.46079029088031L289.3826031530923,37.920958766270594L240.45724544965958,21.34758354546925L222.4448424947589,27.832447639720982L202.4674754727026,36.47742632052409L183.0723519237555,46.35973536480135L164.3360155397776,57.44037381355182L146.3324100806581,69.67561144908066L137.18656375325182,76.7698570564581L121.18061130185231,118.20358546027492L117.41488985402567,155.5388709208368L120.3503385667413,172.96243553380302L133.06934954749462,203.76189122887774L139.16421582123957,213.46784768882446L158.33148252734148,234.49522348524886L169.37155218468098,243.39984881135092L189.25097545319,253.9050024671412L208.8356717609316,260.6803665656352Z"
         fill="#580000"
         stroke="black"
         class="s-PVzgibwQH96a"
         id="path84" />
      <g
         transform="translate(236.38237117220044, 140.1265989787855)"
         class="s-PVzgibwQH96a"
         id="g90">
        <text
           x="0"
           y="0"
           text-anchor="middle"
           dominant-baseline="middle"
           fill="white"
           font-size="14px"
           font-weight="bold"
           class="s-PVzgibwQH96a"
           id="text86">China</text>
        <text
           x="0"
           y="15"
           text-anchor="middle"
           dominant-baseline="middle"
           fill="white"
           font-size="14px"
           class="s-PVzgibwQH96a"
           id="text88">$298B, 13.9%</text>
      </g>
      <path
         d="M206.14896457114074,452.8324825059385L205.14991428349464,447.3148800638002L185.60601693732139,414.75596292912894L149.67592810794275,400.00011231720873L127.67845132649168,400.87380118663725L122.28169811238578,401.9420377106926L101.64098182929385,414.4412605615681L86.58715557245941,434.18022015515174L81.0396362097225,459.73535019972263L81.18121931612122,464.73085471632925L89.26468474253014,490.83771707152033L106.98892154983537,509.96773687674647L134.0792496143167,521.5510014947764L176.88306277174615,514.9205624085089L200.0521586459514,489.32407169281873L206.26190861852143,467.05461728344295Z"
         fill="#a54e18"
         stroke="black"
         class="s-PVzgibwQH96a"
         id="path92" />
      <g
         transform="translate(144.06229469297804, 454.6444006784549)"
         class="s-PVzgibwQH96a"
         id="g98">
        <text
           x="0"
           y="0"
           text-anchor="middle"
           dominant-baseline="middle"
           fill="black"
           font-size="14px"
           font-weight="bold"
           class="s-PVzgibwQH96a"
           id="text94">India</text>
        <text
           x="0"
           y="15"
           text-anchor="middle"
           dominant-baseline="middle"
           fill="black"
           font-size="14px"
           class="s-PVzgibwQH96a"
           id="text96">$81B, 3.8%</text>
      </g>
      <path
         d="M217.24607746128032,552.0878735438162L210.0984978081552,537.1125735898873L176.88306277174615,514.9205624085089L134.0792496143167,521.5510014947764L115.0535894163123,537.7811785937716L110.68132796412202,543.7123512902994L104.38150241175167,560.4641467082731L103.25808048857883,593.0412820943885L112.80442779570932,602.5876294015189L129.13258755207963,616.9828386218114L146.33241008065775,630.324388550919L157.3176672661425,637.7899616249904L194.09910302967296,623.3721557828062L218.54359034275342,594.635346716498Z"
         fill="#dd892d"
         stroke="black"
         class="s-PVzgibwQH96a"
         id="path100" />
      <g
         transform="translate(161.67356654033478, 568.3366584325797)"
         class="s-PVzgibwQH96a"
         id="g106">
        <text
           x="0"
           y="0"
           text-anchor="middle"
           dominant-baseline="middle"
           fill="black"
           font-size="14px"
           font-weight="bold"
           class="s-PVzgibwQH96a"
           id="text102">Saudi Arabia</text>
        <text
           x="0"
           y="15"
           text-anchor="middle"
           dominant-baseline="middle"
           fill="black"
           font-size="14px"
           class="s-PVzgibwQH96a"
           id="text104">$73B, 3.4%</text>
      </g>
      <path
         d="M231.25260221858414,289.4696752736087L229.95806433830785,303.9437023132991L235.4214252115651,328.790675958316L256.29610777792385,353.5666396999928L281.5306219481692,363.0908195285277L297.3162487980129,363.2873206208208L325.20163735805846,354.38305222989726L351.011640301845,290.3188101671694L332.2653591760699,261.10416656193894L304.28879723615864,243.50897910024673L243.61687215731345,263.89309230729793Z"
         fill="#efc68a"
         stroke="black"
         class="s-PVzgibwQH96a"
         id="path108" />
      <g
         transform="translate(289.59149511975147, 298.49993358821325)"
         class="s-PVzgibwQH96a"
         id="g114">
        <text
           x="0"
           y="0"
           text-anchor="middle"
           dominant-baseline="middle"
           fill="black"
           font-size="14px"
           font-weight="bold"
           class="s-PVzgibwQH96a"
           id="text110">Russia</text>
        <text
           x="0"
           y="15"
           text-anchor="middle"
           dominant-baseline="middle"
           fill="black"
           font-size="14px"
           class="s-PVzgibwQH96a"
           id="text112">$72B, 3.4%</text>
      </g>
      <path
         d="M431.9576204692574,39.1800845090078L419.3169966589533,10.618608318916653L414.9276255039536,9.637467622509366L393.4279654300314,6.232255994533437L371.7569150169068,4.183738599603897L349.99999999999994,3.5000000000000036L347.2806488319029,3.585459053273918L335.65014397061344,21.53718966672246L327.7174677727126,66.46079029088031L343.32582459849635,90.32684396816857L421.18542308601803,91.09445557525139L433.41173325915344,55.04676695760334Z"
         fill="#e7f4d9"
         stroke="black"
         class="s-PVzgibwQH96a"
         id="path116" />
      <g
         transform="translate(383.86602043501864, 43.67255363095985)"
         class="s-PVzgibwQH96a"
         id="g122">
        <text
           x="0"
           y="0"
           text-anchor="middle"
           dominant-baseline="middle"
           fill="black"
           font-size="14px"
           font-weight="bold"
           class="s-PVzgibwQH96a"
           id="text118">Japan</text>
        <text
           x="0"
           y="15"
           text-anchor="middle"
           dominant-baseline="middle"
           fill="black"
           font-size="14px"
           class="s-PVzgibwQH96a"
           id="text120">$54B, 2.5%</text>
      </g>
      <path
         d="M142.2015795677338,260.27675075576025L136.58762721446163,254.13444715933576L107.7613047919559,243.59620432299582L82.50150554116242,248.55580786908962L69.34953368126932,257.94897457801613L55.370561777543045,292.5904733809166L61.96610070671277,317.9611596587031L77.00676155201359,334.20744020304363L97.73033232040706,342.80883357716044L135.6948193802151,331.98114645455377L153.3429850575782,300.17187309759123L152.32996198392448,281.56964374239857Z"
         fill="#e7f4d9"
         stroke="black"
         class="s-PVzgibwQH96a"
         id="path124" />
      <g
         transform="translate(104.64973237103003, 287.600275878238)"
         class="s-PVzgibwQH96a"
         id="g130">
        <text
           x="0"
           y="0"
           text-anchor="middle"
           dominant-baseline="middle"
           fill="black"
           font-size="14px"
           font-weight="bold"
           class="s-PVzgibwQH96a"
           id="text126">South Korea</text>
        <text
           x="0"
           y="15"
           text-anchor="middle"
           dominant-baseline="middle"
           fill="black"
           font-size="14px"
           class="s-PVzgibwQH96a"
           id="text128">$50B, 2.3%</text>
      </g>
      <path
         d="M86.58715557245941,434.18022015515174L101.64098182929385,414.4412605615681L104.77596837257995,394.6286146055104L89.60876698924953,360.6649550967791L71.27767672981886,351.93420141900145L63.42178542537474,350.7404990014875L56.00633765970238,350.7970222053416L50.82762468297496,351.4444655172597L30.68031055651071,361.4855205561824L14.561294263789833,384.2873248282087L12.516751243516822,401.82601419342797L22.667147179477492,425.0547484121728L38.78180412238805,437.82737275671496L61.736262974233746,442.30070961633845Z"
         fill="#e7f4d9"
         stroke="black"
         class="s-PVzgibwQH96a"
         id="path132" />
      <path
         d="M428.45157920208635,98.10143608034241L421.18542308601803,91.09445557525139L343.32582459849635,90.32684396816857L353.6548506525935,156.94519107439353L371.1647914431844,164.53418790980407L401.9824446253017,163.8017402767926Z"
         fill="#e7f4d9"
         stroke="black"
         class="s-PVzgibwQH96a"
         id="path134" />
      <path
         d="M158.23846760460947,365.29637627893703L148.97957256171625,339.0851395553031L135.6948193802151,331.98114645455377L97.73033232040706,342.80883357716044L89.60876698924953,360.6649550967791L104.77596837257995,394.6286146055104L122.28169811238578,401.9420377106926L127.67845132649168,400.87380118663725L146.9271873686678,390.92298256647484Z"
         fill="#e7f4d9"
         stroke="black"
         class="s-PVzgibwQH96a"
         id="path136" />
      <path
         d="M75.58500345610437,138.71406781063038L69.67561144908066,146.3324100806581L57.44037381355182,164.33601553977763L51.14182984244506,174.98627176082056L81.70119615522434,199.88055149867304L101.75025510848411,196.63014867041113L120.3503385667413,172.96243553380302L117.41488985402567,155.5388709208368Z"
         fill="#e7f4d9"
         stroke="black"
         class="s-PVzgibwQH96a"
         id="path138" />
      <path
         d="M253.0164167807764,533.5574387840724L268.59444489908805,494.89047053904346L250.47261423452306,477.9899505690839L229.57744473860862,478.22855536346356L214.62992414058354,494.6439350635501L221.72374718504207,525.11097874199Z"
         fill="#e7f4d9"
         stroke="black"
         class="s-PVzgibwQH96a"
         id="path140" />
      <path
         d="M158.23846760460947,365.29637627893703L146.9271873686678,390.92298256647484L149.67592810794275,400.00011231720873L185.60601693732139,414.75596292912894L195.19434817598653,403.60075583030846L198.24917293914794,386.75698624725106L186.04863048302246,366.0694924866546L165.36341743225353,362.28231561121567Z"
         fill="#e7f4d9"
         stroke="black"
         class="s-PVzgibwQH96a"
         id="path142" />
      <path
         d="M46.35973536480125,183.07235192375566L36.4774263205242,202.4674754727024L31.244731783190357,214.5595190908963L54.742142916358155,232.1895501004436L76.71617761725906,225.71698620228156L78.5910599480275,223.3410030726523L81.70119615522434,199.88055149867304L51.14182984244505,174.98627176082056Z"
         fill="#e7f4d9"
         stroke="black"
         class="s-PVzgibwQH96a"
         id="path144" />
      <path
         d="M184.10831836659315,302.4245657627206L173.55821884726208,300.0518517514491L161.23083050658917,303.74208782023993L149.19506373887742,339.0290708069329L166.80502563438304,348.81841229566965L188.44865136595445,345.064560494876L197.95212642227608,330.423309088317L198.1055795750997,317.1721836985946Z"
         fill="#e7f4d9"
         stroke="black"
         class="s-PVzgibwQH96a"
         id="path146" />
      <path
         d="M218.97835815454437,399.44521544106993L211.35482150669537,398.8129332354174L195.19434817598653,403.60075583030846L185.60601693732139,414.75596292912894L205.14991428349464,447.3148800638002L225.65155942101723,441.98023356431673L230.08602385531125,437.59307934442535L235.44648197492117,412.4638905739694Z"
         fill="#e7f4d9"
         stroke="black"
         class="s-PVzgibwQH96a"
         id="path148" />
      <path
         d="M69.34953368126932,257.94897457801613L51.499490855247174,243.797867688438L37.099021084508045,246.9041495969518L21.479877535128843,275.18333873203807L33.86154683080293,291.555332579126L55.370561777543045,292.5904733809166Z"
         fill="#e7f4d9"
         stroke="black"
         class="s-PVzgibwQH96a"
         id="path150" />
      <path
         d="M21.695184389006467,349.595389922772L3.663537587810957,355.2038504219802L4.183738599603905,371.7569150169072L5.18869345437641,382.3882268986585L14.561294263789833,384.2873248282087L30.68031055651071,361.4855205561824Z"
         fill="#e7f4d9"
         stroke="black"
         class="s-PVzgibwQH96a"
         id="path152" />
      <path
         d="M176.88306277174615,514.9205624085089L210.0984978081552,537.1125735898873L221.72374718504207,525.11097874199L214.62992414058354,494.6439350635501L200.0521586459514,489.32407169281873Z"
         fill="#e7f4d9"
         stroke="black"
         class="s-PVzgibwQH96a"
         id="path154" />
      <path
         d="M221.47663731746908,366.0561183576338L209.44095328305787,353.0473161463907L192.88665889765974,354.1016435895941L186.04863048302246,366.0694924866546L198.24917293914794,386.75698624725106L209.87632518645796,386.90865486198015L215.20997972183247,384.4483425949416Z"
         fill="#e7f4d9"
         stroke="black"
         class="s-PVzgibwQH96a"
         id="path156" />
      <path
         d="M97.41237059848085,112.80442779570942L83.01716137818896,129.13258755207914L75.58500345610439,138.71406781063035L117.41488985402567,155.5388709208368L121.18061130185231,118.20358546027492L102.42306228458206,107.7937361096082Z"
         fill="#e7f4d9"
         stroke="black"
         class="s-PVzgibwQH96a"
         id="path158" />
      <path
         d="M68.20191366412128,489.48975351099034L64.87403109765137,475.35527038584536L49.707783069864384,465.4624861297491L28.250767073249932,478.5218366798958L36.47742632052429,497.5325245272977L42.31581365289368,508.991004841014L59.52815489311424,504.0855170062316Z"
         fill="#e7f4d9"
         stroke="black"
         class="s-PVzgibwQH96a"
         id="path160" />
      <path
         d="M61.96610070671277,317.9611596587031L55.370561777543045,292.5904733809166L33.86154683080293,291.555332579126L26.63461186096509,300.52115767141754L28.023974753188746,320.2543371741338L29.008927143825098,321.4134885139927L53.46328100135879,325.16630856053786Z"
         fill="#e7f4d9"
         stroke="black"
         class="s-PVzgibwQH96a"
         id="path162" />
      <path
         d="M164.33601553977712,642.5596261864479L183.072351923755,653.6402646351985L200.96490785114264,662.7569772367048L210.82172504552187,638.2909001082328L194.09910302967296,623.3721557828062L157.3176672661424,637.7899616249904Z"
         fill="#e7f4d9"
         stroke="black"
         class="s-PVzgibwQH96a"
         id="path164" />
      <path
         d="M332.2653591760699,261.10416656193894L346.1663364951808,250.13668514436125L343.3764197803581,228.95139047389142L328.1165133030027,220.01760808844742L304.28879723615864,243.50897910024673Z"
         fill="#e7f4d9"
         stroke="black"
         class="s-PVzgibwQH96a"
         id="path166" />
      <path
         d="M244.29460020500497,555.2062766224055L217.24607746128032,552.0878735438162L218.54359034275342,594.635346716498L227.14299239179607,597.779102247554Z"
         fill="#e7f4d9"
         stroke="black"
         class="s-PVzgibwQH96a"
         id="path168" />
      <path
         d="M277.97437714001853,382.98469504661176L257.15926130189445,388.0732315346224L257.92741825676296,409.5467923185546L269.443695847101,416.6695583713113L273.1500166707503,417.0954308280643L278.31876454806826,415.48749390725516L288.8825894396538,399.329961334021L286.2017986830225,388.87483689943866Z"
         fill="#e7f4d9"
         stroke="black"
         class="s-PVzgibwQH96a"
         id="path170" />
      <path
         d="M241.3995490158781,445.34196529449207L248.45926032336718,458.66286134598204L266.040929314918,455.0579407335035L267.3380206854479,436.2166579730365L265.443461823531,435.00707063921357L250.8119893596413,433.98301296885603L241.68120978605035,441.91287624750515Z"
         fill="#e7f4d9"
         stroke="black"
         class="s-PVzgibwQH96a"
         id="path172" />
      <path
         d="M255.46829635050287,387.1131692880367L257.15926130189445,388.0732315346224L277.97437714001853,382.98469504661176L281.5306219481692,363.0908195285277L256.29610777792385,353.5666396999928L250.406378440336,360.0997136845478Z"
         fill="#e7f4d9"
         stroke="black"
         class="s-PVzgibwQH96a"
         id="path174" />
      <path
         d="M285.07237449604634,9.637467622509368L263.82895409737756,14.385934668929393L242.9256114490807,20.4589171037293L240.4572454496596,21.34758354546924L289.3826031530923,37.920958766270594L300.40997315898204,10.150882039209396L299.7658100513704,7.310256055634756Z"
         fill="#e7f4d9"
         stroke="black"
         class="s-PVzgibwQH96a"
         id="path176" />
      <path
         d="M195.19434817598653,403.60075583030846L211.35482150669537,398.8129332354174L209.87632518645796,386.90865486198015L198.24917293914794,386.75698624725106Z"
         fill="#e7f4d9"
         stroke="black"
         class="s-PVzgibwQH96a"
         id="path178" />
      <path
         d="M224.7356869810039,333.9030800400363L224.13467561222245,334.76316027632305L234.5654763182965,363.1004265260672L250.406378440336,360.0997136845478L256.29610777792385,353.5666396999928L235.4214252115651,328.790675958316Z"
         fill="#e7f4d9"
         stroke="black"
         class="s-PVzgibwQH96a"
         id="path180" />
      <path
         d="M206.14896457114074,452.8324825059385L227.9685097064958,453.0059760196655L228.45035230881035,451.4427600181557L225.65155942101723,441.98023356431673L205.14991428349464,447.3148800638002Z"
         fill="#e7f4d9"
         stroke="black"
         class="s-PVzgibwQH96a"
         id="path182" />
      <path
         d="M4.981591214559703,319.8026859492614L4.183738599603898,328.24308498309296L3.8688780108996403,338.2621113691716L21.888059781894405,346.51228398431516L29.272019011975246,337.5992972194199L29.008927143825098,321.4134885139927L28.023974753188746,320.2543371741338Z"
         fill="#e7f4d9"
         stroke="black"
         class="s-PVzgibwQH96a"
         id="path184" />
      <path
         d="M328.1165133030027,220.01760808844742L343.3764197803581,228.95139047389142L361.099822944569,220.42145644185473L356.893520909298,195.788381951353L344.8715506160652,191.29393249520615Z"
         fill="#e7f4d9"
         stroke="black"
         class="s-PVzgibwQH96a"
         id="path186" />
      <path
         d="M66.36907081515508,342.8213378632527L53.73182130821082,338.1680048955304L51.29164616526501,342.0958486978438L56.00633765970238,350.7970222053416L63.42178542537474,350.7404990014875Z"
         fill="#e7f4d9"
         stroke="black"
         class="s-PVzgibwQH96a"
         id="path188" />
      <path
         d="M62.311245547363555,448.9049075375009L49.722752576987006,462.972257916694L49.707783069864384,465.4624861297491L64.87403109765137,475.35527038584536L81.18121931612122,464.73085471632925L81.0396362097225,459.73535019972263Z"
         fill="#e7f4d9"
         stroke="black"
         class="s-PVzgibwQH96a"
         id="path190" />
      <path
         d="M241.3995490158781,445.34196529449207L241.68120978605035,441.91287624750515L230.08602385531125,437.59307934442535L225.65155942101723,441.98023356431673L228.45035230881035,451.4427600181557Z"
         fill="#e7f4d9"
         stroke="black"
         class="s-PVzgibwQH96a"
         id="path192" />
      <path
         d="M237.30760768034025,411.90228717194896L243.4533980895678,389.09935121822946L235.686288167081,384.3219752596625L221.3817093236766,389.01392045718234L218.97835815454437,399.44521544106993L235.44648197492117,412.4638905739694Z"
         fill="#e7f4d9"
         stroke="black"
         class="s-PVzgibwQH96a"
         id="path194" />
      <path
         d="M444.5406774667663,58.16591619511068L433.41173325915344,55.04676695760334L421.18542308601803,91.09445557525139L428.4515792020863,98.1014360803424Z"
         fill="#e7f4d9"
         stroke="black"
         class="s-PVzgibwQH96a"
         id="path196" />
      <path
         d="M104.38150241175167,560.4641467082731L110.68132796412202,543.7123512902994L89.41527369677478,535.6044979212547L86.41966072892198,537.3366465517798L82.2530819662436,558.6973706104554Z"
         fill="#e7f4d9"
         stroke="black"
         class="s-PVzgibwQH96a"
         id="path198" />
      <path
         d="M54.742142916358155,232.1895501004436L31.244731783190367,214.55951909089626L27.83244763972092,222.44484249475911L22.25973317525275,237.9236523861769L37.099021084508045,246.9041495969518L51.499490855247174,243.797867688438Z"
         fill="#e7f4d9"
         stroke="black"
         class="s-PVzgibwQH96a"
         id="path200" />
      <path
         d="M388.518847393417,197.22037854572713L401.9824446253017,163.8017402767926L371.1647914431844,164.53418790980407L370.91079331918223,189.68876998050536Z"
         fill="#e7f4d9"
         stroke="black"
         class="s-PVzgibwQH96a"
         id="path202" />
      <path
         d="M71.20284640091688,514.8326556990705L82.05118538519484,511.140175449177L86.31798103083155,492.6970678925701L68.20191366412128,489.48975351099034L59.52815489311424,504.0855170062316Z"
         fill="#e7f4d9"
         stroke="black"
         class="s-PVzgibwQH96a"
         id="path204" />
      <path
         d="M83.01716137818903,570.8674124479209L97.41237059848098,587.1955722042907L103.25808048857881,593.0412820943885L104.38150241175167,560.4641467082731L82.2530819662436,558.6973706104554L76.76379348743366,562.8056191406649Z"
         fill="#e7f4d9"
         stroke="black"
         class="s-PVzgibwQH96a"
         id="path206" />
      <path
         d="M158.23846760460947,365.29637627893703L165.36341743225353,362.28231561121567L166.80502563438304,348.81841229566965L149.19506373887742,339.0290708069329L148.97957256171625,339.0851395553031Z"
         fill="#e7f4d9"
         stroke="black"
         class="s-PVzgibwQH96a"
         id="path208" />
      <path
         d="M266.7776404317129,455.91066354258345L283.0396835887543,459.0352530838494L291.0423885586266,439.17135653710704L267.60796154713057,436.09814468210385L267.3380206854479,436.2166579730365L266.040929314918,455.0579407335035Z"
         fill="#e7f4d9"
         stroke="black"
         class="s-PVzgibwQH96a"
         id="path210" />
      <path
         d="M208.8356717609316,260.6803665656352L189.25097545319,253.9050024671412L178.69564743001996,274.82855945408414L195.70693825425187,283.6259548474505Z"
         fill="#e7f4d9"
         stroke="black"
         class="s-PVzgibwQH96a"
         id="path212" />
      <path
         d="M346.1663364951808,250.13668514436125L364.6149557613581,256.5533706067024L376.6051542498235,226.79192578942778L361.099822944569,220.42145644185473L343.3764197803581,228.95139047389142Z"
         fill="#e7f4d9"
         stroke="black"
         class="s-PVzgibwQH96a"
         id="path214" />
      <path
         d="M218.97835815454437,399.44521544106993L221.3817093236766,389.01392045718234L215.20997972183247,384.4483425949416L209.87632518645796,386.90865486198015L211.35482150669537,398.8129332354174Z"
         fill="#e7f4d9"
         stroke="black"
         class="s-PVzgibwQH96a"
         id="path216" />
      <path
         d="M20.45891710372931,242.9256114490806L14.385934668929343,263.82895409737773L12.11245051358775,273.99993753466333L21.479877535128843,275.18333873203807L37.099021084508045,246.9041495969518L22.259733175252748,237.9236523861769Z"
         fill="#e7f4d9"
         stroke="black"
         class="s-PVzgibwQH96a"
         id="path218" />
      <path
         d="M304.7816225511994,405.0685470886276L288.8825894396538,399.329961334021L278.31876454806826,415.48749390725516L295.22909443244964,428.77933375701605Z"
         fill="#e7f4d9"
         stroke="black"
         class="s-PVzgibwQH96a"
         id="path220" />
      <path
         d="M71.20284640091688,514.8326556990705L67.52605480735326,530.2606380546234L86.41966072892198,537.3366465517798L89.41527369677478,535.6044979212547L93.92846912248454,519.4639473649125L82.05118538519484,511.140175449177Z"
         fill="#e7f4d9"
         stroke="black"
         class="s-PVzgibwQH96a"
         id="path222" />
      <path
         d="M277.97437714001853,382.98469504661176L286.2017986830225,388.87483689943866L301.52041781732447,379.0548660201472L297.3162487980129,363.2873206208208L281.5306219481692,363.0908195285277Z"
         fill="#e7f4d9"
         stroke="black"
         class="s-PVzgibwQH96a"
         id="path224" />
      <path
         d="M5.188693454376409,382.3882268986585L6.232255994533482,393.4279654300315L7.694049396964628,402.65736573877325L12.516751243516822,401.82601419342797L14.561294263789833,384.2873248282087Z"
         fill="#e7f4d9"
         stroke="black"
         class="s-PVzgibwQH96a"
         id="path226" />
      <path
         d="M53.46328100135879,325.16630856053786L29.008927143825098,321.4134885139927L29.272019011975246,337.5992972194199L49.867282762771886,343.33695195172396L51.29164616526501,342.0958486978438L53.73182130821082,338.1680048955304Z"
         fill="#e7f4d9"
         stroke="black"
         class="s-PVzgibwQH96a"
         id="path228" />
      <path
         d="M224.7356869810039,333.9030800400363L210.57026449457473,310.7922966134765L198.1055795750997,317.1721836985946L197.95212642227608,330.423309088317L215.96449107626862,338.37280758249864L224.13467561222245,334.76316027632305Z"
         fill="#e7f4d9"
         stroke="black"
         class="s-PVzgibwQH96a"
         id="path230" />
      <path
         d="M3.500000000000005,350L3.663537587810957,355.2038504219802L21.695184389006467,349.595389922772L21.888059781894405,346.51228398431516L3.8688780108996426,338.2621113691716Z"
         fill="#e7f4d9"
         stroke="black"
         class="s-PVzgibwQH96a"
         id="path232" />
      <path
         d="M109.69469672512159,207.4929415547192L101.75025510848411,196.63014867041113L81.70119615522434,199.88055149867304L78.5910599480275,223.3410030726523L106.119496146044,224.26492626623713Z"
         fill="#e7f4d9"
         stroke="black"
         class="s-PVzgibwQH96a"
         id="path234" />
      <path
         d="M267.60796154713057,436.09814468210385L291.0423885586266,439.17135653710704L295.22909443244964,428.77933375701605L278.31876454806826,415.48749390725516L273.1500166707503,417.0954308280643Z"
         fill="#e7f4d9"
         stroke="black"
         class="s-PVzgibwQH96a"
         id="path236" />
      <path
         d="M283.0396835887544,459.0352530838494L266.7776404317129,455.91066354258345L265.06287205466,468.76382576445843L276.1781875407744,476.06650041410444Z"
         fill="#e7f4d9"
         stroke="black"
         class="s-PVzgibwQH96a"
         id="path238" />
      <path
         d="M127.67845132649168,400.87380118663725L149.67592810794275,400.00011231720873L146.9271873686678,390.92298256647484Z"
         fill="#e7f4d9"
         stroke="black"
         class="s-PVzgibwQH96a"
         id="path240" />
      <path
         d="M77.00676155201359,334.20744020304363L61.96610070671277,317.9611596587031L53.46328100135879,325.16630856053786L53.73182130821082,338.1680048955304L66.36907081515508,342.8213378632527L71.30378846901787,341.6593457670272Z"
         fill="#e7f4d9"
         stroke="black"
         class="s-PVzgibwQH96a"
         id="path242" />
      <path
         d="M51.29164616526501,342.0958486978438L49.867282762771886,343.33695195172396L50.82762468297496,351.4444655172597L56.00633765970238,350.7970222053416Z"
         fill="#e7f4d9"
         stroke="black"
         class="s-PVzgibwQH96a"
         id="path244" />
      <path
         d="M106.98892154983537,509.96773687674647L102.98326122454628,516.09168751457L115.0535894163123,537.7811785937716L134.0792496143167,521.5510014947764Z"
         fill="#e7f4d9"
         stroke="black"
         class="s-PVzgibwQH96a"
         id="path246" />
      <path
         d="M257.92741825676296,409.5467923185546L246.34790498097664,414.6442910698245L250.8119893596413,433.98301296885603L265.443461823531,435.00707063921357L269.443695847101,416.6695583713113Z"
         fill="#e7f4d9"
         stroke="black"
         class="s-PVzgibwQH96a"
         id="path248" />
      <path
         d="M226.62102374662263,471.1349868906312L229.57744473860862,478.22855536346356L250.47261423452306,477.9899505690839L252.961964434053,472.115268094253L248.04124805565667,459.6688716887822L230.71578432895438,461.45259728411776Z"
         fill="#e7f4d9"
         stroke="black"
         class="s-PVzgibwQH96a"
         id="path250" />
      <path
         d="M12.11245051358775,273.99993753466333L9.637467622509362,285.07237449604656L7.593144643834079,297.9797217991426L26.63461186096509,300.52115767141754L33.86154683080293,291.555332579126L21.479877535128843,275.18333873203807Z"
         fill="#e7f4d9"
         stroke="black"
         class="s-PVzgibwQH96a"
         id="path252" />
      <path
         d="M106.98892154983537,509.96773687674647L89.26468474253014,490.83771707152033L86.31798103083155,492.6970678925701L82.05118538519484,511.140175449177L93.92846912248454,519.4639473649125L102.98326122454628,516.09168751457Z"
         fill="#e7f4d9"
         stroke="black"
         class="s-PVzgibwQH96a"
         id="path254" />
      <path
         d="M241.3995490158781,445.34196529449207L228.45035230881035,451.4427600181557L227.9685097064958,453.0059760196655L230.71578432895438,461.45259728411776L248.04124805565667,459.6688716887822L248.45926032336718,458.66286134598204Z"
         fill="#e7f4d9"
         stroke="black"
         class="s-PVzgibwQH96a"
         id="path256" />
      <path
         d="M138.3272480770665,247.49003892667798L158.33148252734148,234.49522348524886L139.16421582123957,213.46784768882446L128.89175218450583,228.97038711618617Z"
         fill="#e7f4d9"
         stroke="black"
         class="s-PVzgibwQH96a"
         id="path258" />
      <path
         d="M451.657553466337,40.50077807947649L459.39531790599403,21.294503087326802L457.07438855091414,20.4589171037278L443.7573828368347,16.58996929253532L441.74279240057433,35.90072126686986Z"
         fill="#e7f4d9"
         stroke="black"
         class="s-PVzgibwQH96a"
         id="path260" />
      <path
         d="M215.96449107626862,338.37280758249864L197.95212642227608,330.423309088317L188.44865136595445,345.064560494876L192.88665889765974,354.1016435895941L209.44095328305787,353.0473161463907Z"
         fill="#e7f4d9"
         stroke="black"
         class="s-PVzgibwQH96a"
         id="path262" />
      <path
         d="M328.243084983093,4.183738599603899L306.5720345699685,6.23225599453348L299.7658100513704,7.310256055634757L300.40997315898204,10.150882039209396L335.65014397061344,21.53718966672246L347.2806488319029,3.585459053273919Z"
         fill="#e7f4d9"
         stroke="black"
         class="s-PVzgibwQH96a"
         id="path264" />
      <path
         d="M104.77596837257995,394.6286146055104L101.64098182929385,414.4412605615681L122.28169811238578,401.9420377106926Z"
         fill="#e7f4d9"
         stroke="black"
         class="s-PVzgibwQH96a"
         id="path266" />
      <path
         d="M253.0164167807764,533.5574387840724L221.72374718504207,525.11097874199L210.0984978081552,537.1125735898873L217.24607746128032,552.0878735438162L244.29460020500497,555.2062766224055Z"
         fill="#e7f4d9"
         stroke="black"
         class="s-PVzgibwQH96a"
         id="path268" />
      <path
         d="M388.5188473934171,197.22037854572721L370.91079331918223,189.68876998050536L356.893520909298,195.788381951353L361.099822944569,220.42145644185473L376.6051542498235,226.79192578942778Z"
         fill="#e7f4d9"
         stroke="black"
         class="s-PVzgibwQH96a"
         id="path270" />
      <path
         d="M115.0535894163123,537.7811785937716L102.98326122454628,516.09168751457L93.92846912248454,519.4639473649125L89.41527369677478,535.6044979212547L110.68132796412202,543.7123512902994Z"
         fill="#e7f4d9"
         stroke="black"
         class="s-PVzgibwQH96a"
         id="path272" />
      <path
         d="M265.443461823531,435.00707063921357L267.3380206854479,436.2166579730365L267.60796154713057,436.09814468210385L273.1500166707503,417.0954308280643L269.443695847101,416.6695583713113Z"
         fill="#e7f4d9"
         stroke="black"
         class="s-PVzgibwQH96a"
         id="path274" />
      <path
         d="M97.73033232040706,342.80883357716044L77.00676155201359,334.20744020304363L71.30378846901787,341.6593457670272L71.27767672981886,351.93420141900145L89.60876698924953,360.6649550967791Z"
         fill="#e7f4d9"
         stroke="black"
         class="s-PVzgibwQH96a"
         id="path276" />
      <path
         d="M62.311245547363555,448.9049075375009L61.736262974233746,442.30070961633845L38.78180412238805,437.82737275671496L35.02153825088108,447.7586053771758L49.722752576987006,462.972257916694Z"
         fill="#e7f4d9"
         stroke="black"
         class="s-PVzgibwQH96a"
         id="path278" />
      <path
         d="M325.2016373580585,354.3830522298972L297.3162487980129,363.2873206208208L301.52041781732447,379.0548660201472L313.04751327182305,384.5513846092808Z"
         fill="#e7f4d9"
         stroke="black"
         class="s-PVzgibwQH96a"
         id="path280" />
      <path
         d="M66.36907081515508,342.8213378632527L63.42178542537474,350.7404990014875L71.27767672981886,351.93420141900145L71.30378846901787,341.6593457670272Z"
         fill="#e7f4d9"
         stroke="black"
         class="s-PVzgibwQH96a"
         id="path282" />
      <path
         d="M166.80502563438304,348.81841229566965L165.36341743225353,362.28231561121567L186.04863048302246,366.0694924866546L192.88665889765974,354.1016435895941L188.44865136595445,345.064560494876Z"
         fill="#e7f4d9"
         stroke="black"
         class="s-PVzgibwQH96a"
         id="path284" />
      <path
         d="M268.59444489908805,494.89047053904346L276.17818754077433,476.06650041410444L265.06287205466,468.76382576445843L252.961964434053,472.115268094253L250.47261423452306,477.9899505690839Z"
         fill="#e7f4d9"
         stroke="black"
         class="s-PVzgibwQH96a"
         id="path286" />
      <path
         d="M229.95806433830785,303.9437023132991L211.00467428432307,309.9690553212181L210.57026449457473,310.7922966134765L224.7356869810039,333.9030800400363L235.4214252115651,328.790675958316Z"
         fill="#e7f4d9"
         stroke="black"
         class="s-PVzgibwQH96a"
         id="path288" />
      <path
         d="M161.23083050658917,303.74208782023993L153.3429850575782,300.17187309759123L135.6948193802151,331.98114645455377L148.97957256171625,339.0851395553031L149.19506373887742,339.0290708069329Z"
         fill="#e7f4d9"
         stroke="black"
         class="s-PVzgibwQH96a"
         id="path290" />
      <path
         d="M69.67561144908055,553.6675899193417L76.76379348743366,562.8056191406649L82.2530819662436,558.6973706104554L86.41966072892198,537.3366465517798L67.52605480735326,530.2606380546234L57.76822203633013,536.1463984704117Z"
         fill="#e7f4d9"
         stroke="black"
         class="s-PVzgibwQH96a"
         id="path292" />
      <path
         d="M82.50150554116242,248.55580786908962L107.7613047919559,243.59620432299582L110.15950721867446,230.80985238634813L106.119496146044,224.26492626623713L78.5910599480275,223.3410030726523L76.71617761725906,225.71698620228156Z"
         fill="#e7f4d9"
         stroke="black"
         class="s-PVzgibwQH96a"
         id="path294" />
      <path
         d="M6.232255994533434,306.57203456996865L4.981591214559706,319.8026859492614L28.023974753188746,320.2543371741338L26.63461186096509,300.52115767141754L7.59314464383408,297.9797217991426Z"
         fill="#e7f4d9"
         stroke="black"
         class="s-PVzgibwQH96a"
         id="path296" />
      <path
         d="M142.2015795677338,260.27675075576025L163.34298247426753,255.68193122837297L169.37155218468098,243.39984881135092L158.33148252734148,234.49522348524886L138.3272480770665,247.49003892667798L136.58762721446163,254.13444715933576Z"
         fill="#e7f4d9"
         stroke="black"
         class="s-PVzgibwQH96a"
         id="path298" />
      <path
         d="M444.5406774667663,58.16591619511069L451.65755346633694,40.50077807947646L441.74279240057433,35.90072126686986L431.9576204692574,39.1800845090078L433.41173325915344,55.04676695760334Z"
         fill="#e7f4d9"
         stroke="black"
         class="s-PVzgibwQH96a"
         id="path300" />
      <path
         d="M216.63357554322977,262.2817067008516L220.1188405149626,284.3566231059902L231.25260221858414,289.4696752736087L243.61687215731345,263.89309230729793Z"
         fill="#e7f4d9"
         stroke="black"
         class="s-PVzgibwQH96a"
         id="path302" />
      <path
         d="M436.1710459026222,14.38593466892933L419.31699665895326,10.618608318916646L431.9576204692574,39.1800845090078L441.74279240057433,35.90072126686986L443.75738283683467,16.58996929253532Z"
         fill="#e7f4d9"
         stroke="black"
         class="s-PVzgibwQH96a"
         id="path304" />
      <path
         d="M237.30760768034025,411.90228717194896L246.34790498097664,414.6442910698245L257.92741825676296,409.5467923185546L257.15926130189445,388.0732315346224L255.46829635050287,387.1131692880367L243.4533980895678,389.09935121822946Z"
         fill="#e7f4d9"
         stroke="black"
         class="s-PVzgibwQH96a"
         id="path306" />
      <path
         d="M231.25260221858414,289.4696752736087L220.1188405149626,284.3566231059902L204.56399835355236,291.22143864721124L211.00467428432307,309.9690553212181L229.95806433830785,303.9437023132991Z"
         fill="#e7f4d9"
         stroke="black"
         class="s-PVzgibwQH96a"
         id="path308" />
      <path
         d="M216.63357554322977,262.2817067008516L208.8356717609316,260.6803665656352L195.70693825425187,283.6259548474505L197.89127111173696,288.49838363297386L204.56399835355236,291.22143864721124L220.1188405149626,284.3566231059902Z"
         fill="#e7f4d9"
         stroke="black"
         class="s-PVzgibwQH96a"
         id="path310" />
      <path
         d="M109.69469672512159,207.4929415547192L133.06934954749462,203.76189122887774L120.3503385667413,172.96243553380302L101.75025510848411,196.63014867041113Z"
         fill="#e7f4d9"
         stroke="black"
         class="s-PVzgibwQH96a"
         id="path312" />
      <path
         d="M206.14896457114074,452.8324825059385L206.26190861852143,467.05461728344295L226.62102374662263,471.1349868906312L230.71578432895438,461.45259728411776L227.9685097064958,453.0059760196655Z"
         fill="#e7f4d9"
         stroke="black"
         class="s-PVzgibwQH96a"
         id="path314" />
      <path
         d="M21.695184389006467,349.595389922772L30.68031055651071,361.4855205561824L50.82762468297496,351.4444655172597L49.867282762771886,343.33695195172396L29.272019011975246,337.5992972194199L21.888059781894405,346.51228398431516Z"
         fill="#e7f4d9"
         stroke="black"
         class="s-PVzgibwQH96a"
         id="path316" />
      <path
         d="M184.10831836659315,302.4245657627206L198.1055795750997,317.1721836985946L210.57026449457473,310.7922966134765L211.00467428432307,309.9690553212181L204.56399835355236,291.22143864721124L197.89127111173696,288.49838363297386Z"
         fill="#e7f4d9"
         stroke="black"
         class="s-PVzgibwQH96a"
         id="path318" />
      <path
         d="M109.69469672512159,207.4929415547192L106.119496146044,224.26492626623713L110.15950721867446,230.80985238634813L128.89175218450583,228.97038711618617L139.16421582123957,213.46784768882446L133.06934954749462,203.76189122887774Z"
         fill="#e7f4d9"
         stroke="black"
         class="s-PVzgibwQH96a"
         id="path320" />
      <path
         d="M353.6548506525935,156.94519107439353L344.8715506160652,191.29393249520615L356.893520909298,195.788381951353L370.91079331918223,189.68876998050536L371.1647914431844,164.53418790980407Z"
         fill="#e7f4d9"
         stroke="black"
         class="s-PVzgibwQH96a"
         id="path322" />
      <path
         d="M172.88374454964168,276.2255385871253L172.26491013084419,275.97059740266167L152.32996198392448,281.56964374239857L153.3429850575782,300.17187309759123L161.23083050658917,303.74208782023993L173.55821884726208,300.0518517514491Z"
         fill="#e7f4d9"
         stroke="black"
         class="s-PVzgibwQH96a"
         id="path324" />
      <path
         d="M89.26468474253014,490.83771707152033L81.18121931612122,464.73085471632925L64.87403109765137,475.35527038584536L68.20191366412128,489.48975351099034L86.31798103083155,492.6970678925701Z"
         fill="#e7f4d9"
         stroke="black"
         class="s-PVzgibwQH96a"
         id="path326" />
      <path
         d="M210.82172504552187,638.2909001082328L227.14299239179604,597.779102247554L218.54359034275342,594.635346716498L194.09910302967296,623.3721557828062Z"
         fill="#e7f4d9"
         stroke="black"
         class="s-PVzgibwQH96a"
         id="path328" />
      <path
         d="M233.2719529597993,364.45051991579203L235.686288167081,384.3219752596625L243.4533980895678,389.09935121822946L255.46829635050287,387.1131692880367L250.406378440336,360.0997136845478L234.5654763182965,363.1004265260672Z"
         fill="#e7f4d9"
         stroke="black"
         class="s-PVzgibwQH96a"
         id="path330" />
      <path
         d="M71.20284640091688,514.8326556990705L59.52815489311424,504.0855170062316L42.31581365289365,508.991004841014L46.35973536480136,516.9276480762444L57.44037381355187,535.6639844602225L57.76822203633013,536.1463984704117L67.52605480735326,530.2606380546234Z"
         fill="#e7f4d9"
         stroke="black"
         class="s-PVzgibwQH96a"
         id="path332" />
      <path
         d="M286.2017986830225,388.87483689943866L288.8825894396538,399.329961334021L304.7816225511994,405.0685470886276L313.04751327182305,384.5513846092808L301.52041781732447,379.0548660201472Z"
         fill="#e7f4d9"
         stroke="black"
         class="s-PVzgibwQH96a"
         id="path334" />
      <path
         d="M86.58715557245941,434.18022015515174L61.736262974233746,442.30070961633845L62.311245547363555,448.9049075375009L81.0396362097225,459.73535019972263Z"
         fill="#e7f4d9"
         stroke="black"
         class="s-PVzgibwQH96a"
         id="path336" />
      <path
         d="M237.30760768034025,411.90228717194896L235.44648197492117,412.4638905739694L230.08602385531125,437.59307934442535L241.68120978605035,441.91287624750515L250.8119893596413,433.98301296885603L246.34790498097664,414.6442910698245Z"
         fill="#e7f4d9"
         stroke="black"
         class="s-PVzgibwQH96a"
         id="path338" />
      <path
         d="M138.3272480770665,247.49003892667798L128.89175218450583,228.97038711618617L110.15950721867446,230.80985238634813L107.7613047919559,243.59620432299582L136.58762721446163,254.13444715933576Z"
         fill="#e7f4d9"
         stroke="black"
         class="s-PVzgibwQH96a"
         id="path340" />
      <path
         d="M172.88374454964168,276.2255385871253L178.69564743001996,274.82855945408414L189.25097545319,253.9050024671412L169.37155218468098,243.39984881135092L163.34298247426753,255.68193122837297L172.26491013084419,275.97059740266167Z"
         fill="#e7f4d9"
         stroke="black"
         class="s-PVzgibwQH96a"
         id="path342" />
      <path
         d="M300.40997315898204,10.150882039209396L289.3826031530923,37.920958766270594L327.7174677727126,66.46079029088031L335.65014397061344,21.53718966672246Z"
         fill="#e7f4d9"
         stroke="black"
         class="s-PVzgibwQH96a"
         id="path344" />
      <path
         d="M20.458917103729295,457.07438855091925L27.83244763972085,477.55515750524074L28.25076707324993,478.5218366798958L49.707783069864384,465.4624861297491L49.722752576987006,462.972257916694L35.02153825088108,447.7586053771758L19.441456847340625,453.57226737756577Z"
         fill="#e7f4d9"
         stroke="black"
         class="s-PVzgibwQH96a"
         id="path346" />
      <path
         d="M142.2015795677338,260.27675075576025L152.32996198392448,281.56964374239857L172.26491013084419,275.97059740266167L163.34298247426753,255.68193122837297Z"
         fill="#e7f4d9"
         stroke="black"
         class="s-PVzgibwQH96a"
         id="path348" />
      <path
         d="M129.13258755207906,83.01716137818899L112.80442779570933,97.41237059848095L102.42306228458207,107.7937361096082L121.18061130185231,118.20358546027492L137.18656375325182,76.76985705645808Z"
         fill="#e7f4d9"
         stroke="black"
         class="s-PVzgibwQH96a"
         id="path350" />
      <path
         d="M206.26190861852143,467.05461728344295L200.0521586459514,489.32407169281873L214.62992414058354,494.6439350635501L229.57744473860862,478.22855536346356L226.62102374662263,471.1349868906312Z"
         fill="#e7f4d9"
         stroke="black"
         class="s-PVzgibwQH96a"
         id="path352" />
      <path
         d="M9.637467622509408,414.92762550395383L12.903766287216623,429.54020573325084L22.667147179477492,425.0547484121728L12.516751243516822,401.82601419342797L7.694049396964627,402.65736573877325Z"
         fill="#e7f4d9"
         stroke="black"
         class="s-PVzgibwQH96a"
         id="path354" />
      <path
         d="M184.10831836659315,302.4245657627206L197.89127111173696,288.49838363297386L195.70693825425187,283.6259548474505L178.69564743001996,274.82855945408414L172.88374454964168,276.2255385871253L173.55821884726208,300.0518517514491Z"
         fill="#e7f4d9"
         stroke="black"
         class="s-PVzgibwQH96a"
         id="path356" />
      <path
         d="M332.2653591760699,261.10416656193894L351.011640301845,290.3188101671694L364.61495576135815,256.5533706067024L346.1663364951808,250.13668514436125Z"
         fill="#e7f4d9"
         stroke="black"
         class="s-PVzgibwQH96a"
         id="path358" />
      <path
         d="M221.47663731746908,366.0561183576338L215.20997972183247,384.4483425949416L221.3817093236766,389.01392045718234L235.686288167081,384.3219752596625L233.2719529597993,364.45051991579203Z"
         fill="#e7f4d9"
         stroke="black"
         class="s-PVzgibwQH96a"
         id="path360" />
      <path
         d="M54.742142916358155,232.1895501004436L51.499490855247174,243.797867688438L69.34953368126932,257.94897457801613L82.50150554116242,248.55580786908962L76.71617761725906,225.71698620228156Z"
         fill="#e7f4d9"
         stroke="black"
         class="s-PVzgibwQH96a"
         id="path362" />
      <path
         d="M22.667147179477492,425.0547484121728L12.903766287216621,429.54020573325084L14.38593466892934,436.17104590262215L19.44145684734062,453.57226737756577L35.02153825088108,447.7586053771758L38.78180412238805,437.82737275671496Z"
         fill="#e7f4d9"
         stroke="black"
         class="s-PVzgibwQH96a"
         id="path364" />
      <path
         d="M221.47663731746908,366.0561183576338L233.2719529597993,364.45051991579203L234.5654763182965,363.1004265260672L224.13467561222245,334.76316027632305L215.96449107626862,338.37280758249864L209.44095328305787,353.0473161463907Z"
         fill="#e7f4d9"
         stroke="black"
         class="s-PVzgibwQH96a"
         id="path366" />
      <path
         d="M266.7776404317129,455.91066354258345L266.040929314918,455.0579407335035L248.45926032336718,458.66286134598204L248.04124805565667,459.6688716887822L252.961964434053,472.115268094253L265.06287205466,468.76382576445843Z"
         fill="#e7f4d9"
         stroke="black"
         class="s-PVzgibwQH96a"
         id="path368" />
      <path
         d="M202.46747547270104,663.5225736794752L222.44484249475946,672.1675523602792L242.92561144908117,679.5410828962708L263.82895409737796,685.6140653310707L285.0723744960467,690.3625323774908L306.5720345699676,693.7677440054664L328.2430849830933,695.8162614003961L350.0000000000001,696.5L371.7569150169071,695.8162614003961L393.42796543003146,693.7677440054665L414.92762550395366,690.3625323774907L436.1710459026221,685.6140653310707L457.0743885509199,679.5410828962705L477.5551575052409,672.167552360279L497.53252452729765,663.5225736794758L516.9276480762445,653.6402646351987L535.6639844602221,642.5596261864483L553.6675899193424,630.3243885509189L570.8674124479209,616.9828386218111L587.1955722042906,602.5876294015192L602.587629401519,587.1955722042906L616.9828386218117,570.8674124479201L630.3243885509194,553.6675899193417L642.5596261864483,535.6639844602221L653.6402646351988,516.9276480762443L663.5225736794755,497.5325245272982L672.167552360279,477.55515750524086L679.5410828962707,457.07438855091914L685.6140653310707,436.1710459026221L690.3625323774907,414.92762550395366L693.7677440054665,393.427965430032L695.8162614003961,371.75691501690693L696.5,350.00000000000034L695.816261400396,328.2430849830913L693.7677440054666,306.5720345699691L690.3625323774907,285.07237449604645L685.6140653310706,263.8289540973775L679.5410828962708,242.9256114490811L672.1675523602788,222.4448424947583L663.5225736794758,202.46747547270252L653.6402646351985,183.0723519237553L642.5596261864481,164.3360155397775L630.324388550919,146.33241008065767L616.9828386218111,129.13258755207914L602.587629401519,112.80442779570942L587.1955722042906,97.41237059848078L570.867412447921,83.01716137818902L553.6675899193419,69.67561144908068L535.663984460222,57.440373813551574L516.9276480762442,46.359735364801196L497.5325245272975,36.477426320524145L477.55515750524097,27.832447639720943L459.395317905994,21.29450308732644L200.96490785114264,662.7569772367049Z"
         fill="none"
         stroke="black"
         class="s-PVzgibwQH96a"
         id="path370" />
      <path
         d="M4.183738599603899,371.75691501690716L6.232255994533478,393.4279654300315L9.637467622509396,414.9276255039538L14.385934668929323,436.1710459026221L20.458917103729306,457.07438855091925L27.832447639720893,477.55515750524086L36.477426320524245,497.5325245272976L46.35973536480142,516.9276480762445L57.440373813552064,535.6639844602228L69.67561144908044,553.6675899193416L83.01716137818879,570.8674124479206L97.41237059848098,587.1955722042907L112.80442779570942,602.587629401519L129.13258755207943,616.9828386218113L146.33241008065787,630.3243885509191L164.33601553977732,642.559626186448L183.07235192375512,653.6402646351985L200.96490785114264,662.7569772367048L459.39531790599403,21.294503087326802L457.07438855091436,20.458917103727867L436.1710459026223,14.385934668929352L414.9276255039535,9.637467622509352L393.42796543003135,6.232255994533434L371.7569150169068,4.183738599603897L349.99999999999994,3.5000000000000036L328.243084983093,4.183738599603899L306.5720345699685,6.23225599453348L285.07237449604634,9.637467622509366L263.82895409737756,14.38593466892939L242.92561144908072,20.458917103729288L222.44484249475892,27.832447639720975L202.46747547270255,36.47742632052411L183.07235192375555,46.35973536480131L164.33601553977766,57.44037381355179L146.3324100806581,69.67561144908066L129.13258755207906,83.017161378189L112.80442779570927,97.412370598481L97.4123705984808,112.80442779570946L83.01716137818904,129.13258755207903L69.67561144908068,146.33241008065806L57.4403738135518,164.33601553977766L46.359735364801224,183.07235192375572L36.477426320524174,202.46747547270246L27.832447639720932,222.4448424947591L20.458917103729313,242.9256114490806L14.385934668929345,263.82895409737773L9.637467622509373,285.0723744960465L6.232255994533434,306.57203456996865L4.183738599603897,328.24308498309296L3.5000000000000036,350.00000000000006Z"
         fill="none"
         stroke="black"
         class="s-PVzgibwQH96a"
         id="path372" />
      <path
         d="M695.8162614003961,328.24308498309296L693.7677440054665,306.5720345699684L690.3625323774907,285.0723744960464L685.6140653310706,263.8289540973776L679.5410828962707,242.92561144908066L672.167552360279,222.44484249475883L663.5225736794758,202.46747547270246L653.6402646351987,183.07235192375563L642.5596261864483,164.33601553977778L630.3243885509193,146.33241008065798L616.982838621811,129.13258755207903L602.5876294015189,112.80442779570929L587.1955722042907,97.41237059848089L570.8674124479209,83.01716137818893L553.6675899193419,69.67561144908066L535.6639844602221,57.44037381355164L516.9276480762442,46.35973536480121L497.53252452729737,36.477426320524096L477.555157505241,27.832447639720964L457.0743885509192,20.458917103729274L436.17104590262227,14.38593466892934L414.9276255039535,9.63746762250935L393.4279654300314,6.232255994533436L371.7569150169069,4.183738599603898L349.99999999999994,3.500000000000003L328.243084983093,4.183738599603898L306.5720345699685,6.2322559945334755L285.0723744960464,9.63746762250935L263.8289540973776,14.385934668929378L242.92561144908066,20.458917103729313L222.44484249475886,27.832447639721003L202.4674754727025,36.47742632052413L183.07235192375563,46.35973536480125L164.33601553977778,57.440373813551716L146.332410080658,69.67561144908073L129.13258755207906,83.017161378189L112.80442779570929,97.41237059848098L97.41237059848089,112.80442779570936L83.01716137818904,129.13258755207903L69.67561144908066,146.3324100806581L57.44037381355175,164.33601553977775L46.35973536480121,183.07235192375575L36.47742632052417,202.46747547270246L27.832447639720964,222.444842494759L20.458917103729313,242.9256114490806L14.38593466892934,263.82895409737773L9.637467622509387,285.0723744960464L6.232255994533436,306.5720345699686L4.183738599603898,328.2430849830929L3.500000000000003,350.00000000000006L4.183738599603898,371.75691501690716L6.2322559945334755,393.4279654300315L9.637467622509387,414.9276255039537L14.38593466892934,436.17104590262215L20.458917103729313,457.07438855091925L27.832447639720925,477.5551575052409L36.47742632052429,497.5325245272977L46.35973536480133,516.9276480762444L57.44037381355187,535.6639844602224L69.67561144908073,553.6675899193419L83.01716137818909,570.867412447921L97.41237059848098,587.1955722042907L112.80442779570936,602.587629401519L129.132587552079,616.982838621811L146.3324100806581,630.3243885509193L164.33601553977758,642.5596261864481L183.0723519237556,653.6402646351987L202.4674754727023,663.5225736794757L222.44484249475906,672.167552360279L242.92561144908075,679.5410828962707L263.82895409737785,685.6140653310707L285.07237449604634,690.3625323774907L306.57203456996854,693.7677440054665L328.2430849830929,695.8162614003961L350,696.5L371.75691501690716,695.8162614003961L393.42796543003146,693.7677440054665L414.9276255039536,690.3625323774907L436.17104590262227,685.6140653310707L457.07438855091925,679.5410828962707L477.5551575052409,672.167552360279L497.5325245272977,663.5225736794758L516.9276480762443,653.6402646351988L535.6639844602223,642.5596261864482L553.6675899193419,630.3243885509193L570.867412447921,616.982838621811L587.1955722042907,602.587629401519L602.587629401519,587.1955722042907L616.982838621811,570.867412447921L630.3243885509193,553.6675899193419L642.5596261864482,535.6639844602223L653.6402646351987,516.9276480762444L663.5225736794757,497.5325245272977L672.167552360279,477.5551575052409L679.5410828962707,457.07438855091925L685.6140653310707,436.17104590262215L690.3625323774907,414.92762550395355L693.7677440054665,393.42796543003146L695.8162614003961,371.75691501690704L696.5,350Z"
         fill="none"
         stroke="black"
         class="s-PVzgibwQH96a"
         id="path374" />
    </g>
  </g>
</svg>
