<svg class="main-svg" xmlns="http://www.w3.org/2000/svg" xmlns:xlink="http://www.w3.org/1999/xlink" width="2400" height="1200" style="" viewBox="0 0 1200 600"><rect x="0" y="0" width="1200" height="600" style="fill: rgb(255, 255, 255); fill-opacity: 1;"/><defs id="defs-5f13da"><g class="clips"><clipPath id="clip5f13daxyplot" class="plotclip"><rect width="903" height="470"/></clipPath><clipPath class="axesclip" id="clip5f13dax"><rect x="60" y="0" width="903" height="600"/></clipPath><clipPath class="axesclip" id="clip5f13day"><rect x="0" y="70" width="1200" height="470"/></clipPath><clipPath class="axesclip" id="clip5f13daxy"><rect x="60" y="70" width="903" height="470"/></clipPath></g><g class="gradients"/><g class="patterns"/></defs><g class="bglayer"/><g class="layer-below"><g class="imagelayer"/><g class="shapelayer"/></g><g class="cartesianlayer"><g class="subplot xy"><g class="layer-subplot"><g class="shapelayer"/><g class="imagelayer"/></g><g class="minor-gridlayer"><g class="x"/><g class="y"/></g><g class="gridlayer"><g class="x"/><g class="y"><path class="ygrid crisp" transform="translate(0,428.38)" d="M60,0h903" style="stroke: rgb(0, 0, 0); stroke-opacity: 0.5; stroke-width: 1px;"/><path class="ygrid crisp" transform="translate(0,316.75)" d="M60,0h903" style="stroke: rgb(0, 0, 0); stroke-opacity: 0.5; stroke-width: 1px;"/><path class="ygrid crisp" transform="translate(0,205.13)" d="M60,0h903" style="stroke: rgb(0, 0, 0); stroke-opacity: 0.5; stroke-width: 1px;"/><path class="ygrid crisp" transform="translate(0,93.5)" d="M60,0h903" style="stroke: rgb(0, 0, 0); stroke-opacity: 0.5; stroke-width: 1px;"/></g></g><g class="zerolinelayer"><path class="yzl zl crisp" transform="translate(0,540)" d="M60,0h903" style="stroke: rgb(68, 68, 68); stroke-opacity: 1; stroke-width: 1px;"/></g><path class="xlines-below"/><path class="ylines-below"/><g class="overlines-below"/><g class="xaxislayer-below"/><g class="yaxislayer-below"/><g class="overaxes-below"/><g class="plot" transform="translate(60,70)" clip-path="url(#clip5f13daxyplot)"><g class="scatterlayer mlayer"><g class="trace scatter trace90f867" style="stroke-miterlimit: 2;"><g class="fills"><g><path class="js-fill" d="M903,470L0,470L0,394.1L8.6,395.58L16.36,402.51L24.96,398.61L33.28,392.72L41.88,401.59L50.2,418.04L58.79,396L67.39,398.89L75.71,405.11L84.31,400.08L92.63,397.94L101.23,399.39L109.82,399.93L117.87,396.93L126.46,416.06L134.78,417.63L143.38,404.24L151.7,405.99L160.3,397.88L168.9,400.73L177.22,396.24L185.81,401.55L194.13,411.7L202.73,414.22L211.33,421.78L219.09,420.68L227.69,417.51L236.01,409L244.61,400.8L252.93,409.21L261.53,391.32L270.12,398.77L278.44,397.03L287.04,401.41L295.36,400.26L303.96,409.31L312.56,411.33L320.32,414.1L328.92,414.98L337.24,416.85L345.84,408.26L354.16,407.32L362.75,403.23L371.35,412.01L379.67,415.7L388.27,410.1L396.59,407.14L405.19,411.93L413.78,409.06L421.55,407.71L430.15,410.35L438.47,418.88L447.06,415.45L455.38,409.79L463.98,407.12L472.58,405.42L480.9,404.03L489.49,406.67L497.81,406.09L506.41,416.16L515.01,419.06L523.05,415.23L531.65,410.78L539.97,415.87L548.57,411.81L556.89,420.69L565.48,407.14L574.08,410.22L582.4,419.36L591,422.14L599.32,411.66L607.92,412.75L616.51,411.82L624.28,415.19L632.88,415.14L641.2,410.06L649.79,412.8L658.11,406.66L666.71,402.91L675.31,409.91L683.63,416.93L692.23,414.15L700.55,415.61L709.14,442.56L717.74,443.92L725.51,440.22L734.1,439.39L742.42,443.4L751.02,443.27L759.34,438.66L767.94,435.11L776.54,436.57L784.86,438.85L793.45,439.36L801.77,441.2L810.37,452.55L818.97,449.4L826.73,447.91L835.33,457.97L843.65,470L903,470" style="fill: rgb(255, 144, 0); fill-opacity: 0.5; stroke-width: 0;"/></g><g><path class="js-fill" d="M0,386.12L8.6,388.08L16.36,394.19L24.96,390.03L33.28,382.7L41.88,392L50.2,409.28L58.79,387.59L67.39,391.75L75.71,396.97L84.31,392.67L92.63,390.52L101.23,392.44L109.82,393.01L117.87,390.58L126.46,409.15L134.78,410.3L143.38,396.3L151.7,398.74L160.3,390.58L168.9,393.92L177.22,389.57L185.81,394.75L194.13,403.81L202.73,405.03L211.33,414.05L219.09,412.03L227.69,408.69L236.01,400.41L244.61,391.72L252.93,401.71L261.53,383.39L270.12,390.51L278.44,388.85L287.04,393.47L295.36,394.48L303.96,400.55L312.56,404L320.32,406.17L328.92,406.04L337.24,407.62L345.84,401.15L354.16,402.02L362.75,396.75L371.35,404.48L379.67,408.29L388.27,403.61L396.59,399.39L405.19,404.68L421.55,399.88L430.15,402.03L438.47,411.34L447.06,406.22L463.98,398.91L472.58,398.29L480.9,396.08L489.49,399.9L497.81,397.65L506.41,407.12L515.01,409.3L523.05,404.48L531.65,396.98L539.97,402.88L548.57,401.69L556.89,409.57L565.48,396.29L574.08,400.36L582.4,409.92L591,413.3L599.32,402.37L607.92,404.58L616.51,403.95L624.28,407.12L632.88,407.52L641.2,402.88L649.79,404.62L658.11,399.62L666.71,395.75L675.31,402.31L683.63,409.71L692.23,405.9L700.55,407.66L709.14,434.45L717.74,437.19L725.51,431.92L734.1,431.49L742.42,434L751.02,432.59L759.34,427.97L767.94,425.19L776.54,426.61L793.45,428.03L801.77,429.77L810.37,441.59L818.97,441.45L826.73,436.51L835.33,445.04L843.65,456.06L852.25,458.48L860.57,460.58L869.17,457.93L877.76,457.69L886.08,458.28L894.68,460.33L903,459.5L903,470L843.65,470L835.33,457.97L826.73,447.91L818.97,449.4L810.37,452.55L801.77,441.2L793.45,439.36L784.86,438.85L776.54,436.57L767.94,435.11L759.34,438.66L751.02,443.27L742.42,443.4L734.1,439.39L725.51,440.22L717.74,443.92L709.14,442.56L700.55,415.61L692.23,414.15L683.63,416.93L675.31,409.91L666.71,402.91L658.11,406.66L649.79,412.8L641.2,410.06L632.88,415.14L624.28,415.19L616.51,411.82L607.92,412.75L599.32,411.66L591,422.14L582.4,419.36L574.08,410.22L565.48,407.14L556.89,420.69L548.57,411.81L539.97,415.87L531.65,410.78L523.05,415.23L515.01,419.06L506.41,416.16L497.81,406.09L489.49,406.67L480.9,404.03L472.58,405.42L463.98,407.12L455.38,409.79L447.06,415.45L438.47,418.88L430.15,410.35L421.55,407.71L413.78,409.06L405.19,411.93L396.59,407.14L388.27,410.1L379.67,415.7L371.35,412.01L362.75,403.23L354.16,407.32L345.84,408.26L337.24,416.85L328.92,414.98L320.32,414.1L312.56,411.33L303.96,409.31L295.36,400.26L287.04,401.41L278.44,397.03L270.12,398.77L261.53,391.32L252.93,409.21L244.61,400.8L236.01,409L227.69,417.51L219.09,420.68L211.33,421.78L202.73,414.22L194.13,411.7L185.81,401.55L177.22,396.24L168.9,400.73L160.3,397.88L151.7,405.99L143.38,404.24L134.78,417.63L126.46,416.06L117.87,396.93L109.82,399.93L101.23,399.39L92.63,397.94L84.31,400.08L75.71,405.11L67.39,398.89L58.79,396L50.2,418.04L41.88,401.59L33.28,392.72L24.96,398.61L16.36,402.51L8.6,395.58L0,394.1Z" style="fill: rgb(255, 171, 46); fill-opacity: 0.5; stroke-width: 0;"/></g></g><g class="errorbars"/><g class="lines"><path class="js-line" d="M0,394.1L8.6,395.58L16.36,402.51L24.96,398.61L33.28,392.72L41.88,401.59L50.2,418.04L58.79,396L67.39,398.89L75.71,405.11L84.31,400.08L92.63,397.94L101.23,399.39L109.82,399.93L117.87,396.93L126.46,416.06L134.78,417.63L143.38,404.24L151.7,405.99L160.3,397.88L168.9,400.73L177.22,396.24L185.81,401.55L194.13,411.7L202.73,414.22L211.33,421.78L219.09,420.68L227.69,417.51L236.01,409L244.61,400.8L252.93,409.21L261.53,391.32L270.12,398.77L278.44,397.03L287.04,401.41L295.36,400.26L303.96,409.31L312.56,411.33L320.32,414.1L328.92,414.98L337.24,416.85L345.84,408.26L354.16,407.32L362.75,403.23L371.35,412.01L379.67,415.7L388.27,410.1L396.59,407.14L405.19,411.93L413.78,409.06L421.55,407.71L430.15,410.35L438.47,418.88L447.06,415.45L455.38,409.79L463.98,407.12L472.58,405.42L480.9,404.03L489.49,406.67L497.81,406.09L506.41,416.16L515.01,419.06L523.05,415.23L531.65,410.78L539.97,415.87L548.57,411.81L556.89,420.69L565.48,407.14L574.08,410.22L582.4,419.36L591,422.14L599.32,411.66L607.92,412.75L616.51,411.82L624.28,415.19L632.88,415.14L641.2,410.06L649.79,412.8L658.11,406.66L666.71,402.91L675.31,409.91L683.63,416.93L692.23,414.15L700.55,415.61L709.14,442.56L717.74,443.92L725.51,440.22L734.1,439.39L742.42,443.4L751.02,443.27L759.34,438.66L767.94,435.11L776.54,436.57L784.86,438.85L793.45,439.36L801.77,441.2L810.37,452.55L818.97,449.4L826.73,447.91L835.33,457.97L843.65,470L903,470" style="vector-effect: none; fill: none; stroke: rgb(255, 144, 0); stroke-opacity: 1; stroke-width: 1px; opacity: 1;"/></g><g class="points"/><g class="text"/></g><g class="trace scatter traceb55c7e" style="stroke-miterlimit: 2;"><g class="fills"><g><path class="js-fill" d="M0,335.92L8.6,330.37L16.36,343.77L24.96,342.83L33.28,339.33L41.88,344.19L50.2,365.07L58.79,353.14L67.39,350.97L75.71,355.21L84.31,356.35L92.63,357.98L101.23,356.7L109.82,358.17L117.87,344.74L126.46,374.27L134.78,375.99L143.38,360.66L151.7,364.51L160.3,358.68L168.9,356.08L177.22,340.03L185.81,348.89L194.13,359.61L202.73,394.15L211.33,403.39L219.09,401.18L227.69,397.64L236.01,389.87L244.61,382.33L252.93,391.22L261.53,373.44L270.12,379.44L278.44,379.01L287.04,382.45L295.36,384.18L303.96,391.28L312.56,395.74L320.32,397.84L328.92,396.38L337.24,398.34L345.84,393.86L354.16,393.81L362.75,385.71L371.35,392.52L379.67,396.77L388.27,391.61L396.59,387.1L405.19,394.27L413.78,390.35L421.55,389.12L430.15,391.24L438.47,399.27L455.38,392.64L463.98,386.12L472.58,386.59L480.9,384.61L489.49,388.48L497.81,385.23L506.41,395.59L515.01,399.43L523.05,393.06L531.65,383.9L539.97,388.91L548.57,391.99L556.89,398.08L565.48,384.84L574.08,388.71L582.4,398.44L591,402.37L599.32,390.76L607.92,393.07L616.51,392.85L624.28,395.46L632.88,396.03L641.2,390.26L649.79,392.56L666.71,383.18L675.31,391.72L683.63,398.96L692.23,394.53L700.55,396.27L709.14,424.61L717.74,427.72L725.51,420.48L734.1,420.83L742.42,423.06L751.02,421.95L759.34,418.3L767.94,414.69L776.54,416.37L784.86,416.61L793.45,418L801.77,418.47L810.37,431.85L818.97,431.36L826.73,425.99L835.33,433.95L843.65,443.81L852.25,448.05L860.57,447.82L869.17,444.04L877.76,443.34L886.08,445.34L894.68,449.3L903,448.46L903,459.5L894.68,460.33L886.08,458.28L877.76,457.69L869.17,457.93L860.57,460.58L852.25,458.48L843.65,456.06L835.33,445.04L826.73,436.51L818.97,441.45L810.37,441.59L801.77,429.77L793.45,428.03L776.54,426.61L767.94,425.19L759.34,427.97L751.02,432.59L742.42,434L734.1,431.49L725.51,431.92L717.74,437.19L709.14,434.45L700.55,407.66L692.23,405.9L683.63,409.71L675.31,402.31L666.71,395.75L658.11,399.62L649.79,404.62L641.2,402.88L632.88,407.52L624.28,407.12L616.51,403.95L607.92,404.58L599.32,402.37L591,413.3L582.4,409.92L574.08,400.36L565.48,396.29L556.89,409.57L548.57,401.69L539.97,402.88L531.65,396.98L523.05,404.48L515.01,409.3L506.41,407.12L497.81,397.65L489.49,399.9L480.9,396.08L472.58,398.29L463.98,398.91L447.06,406.22L438.47,411.34L430.15,402.03L421.55,399.88L405.19,404.68L396.59,399.39L388.27,403.61L379.67,408.29L371.35,404.48L362.75,396.75L354.16,402.02L345.84,401.15L337.24,407.62L328.92,406.04L320.32,406.17L312.56,404L303.96,400.55L295.36,394.48L287.04,393.47L278.44,388.85L270.12,390.51L261.53,383.39L252.93,401.71L244.61,391.72L236.01,400.41L227.69,408.69L219.09,412.03L211.33,414.05L202.73,405.03L194.13,403.81L185.81,394.75L177.22,389.57L168.9,393.92L160.3,390.58L151.7,398.74L143.38,396.3L134.78,410.3L126.46,409.15L117.87,390.58L109.82,393.01L101.23,392.44L92.63,390.52L84.31,392.67L75.71,396.97L67.39,391.75L58.79,387.59L50.2,409.28L41.88,392L33.28,382.7L24.96,390.03L16.36,394.19L8.6,388.08L0,386.12Z" style="fill: rgb(255, 199, 76); fill-opacity: 0.5; stroke-width: 0;"/></g></g><g class="errorbars"/><g class="lines"><path class="js-line" d="M0,386.12L8.6,388.08L16.36,394.19L24.96,390.03L33.28,382.7L41.88,392L50.2,409.28L58.79,387.59L67.39,391.75L75.71,396.97L84.31,392.67L92.63,390.52L101.23,392.44L109.82,393.01L117.87,390.58L126.46,409.15L134.78,410.3L143.38,396.3L151.7,398.74L160.3,390.58L168.9,393.92L177.22,389.57L185.81,394.75L194.13,403.81L202.73,405.03L211.33,414.05L219.09,412.03L227.69,408.69L236.01,400.41L244.61,391.72L252.93,401.71L261.53,383.39L270.12,390.51L278.44,388.85L287.04,393.47L295.36,394.48L303.96,400.55L312.56,404L320.32,406.17L328.92,406.04L337.24,407.62L345.84,401.15L354.16,402.02L362.75,396.75L371.35,404.48L379.67,408.29L388.27,403.61L396.59,399.39L405.19,404.68L421.55,399.88L430.15,402.03L438.47,411.34L447.06,406.22L463.98,398.91L472.58,398.29L480.9,396.08L489.49,399.9L497.81,397.65L506.41,407.12L515.01,409.3L523.05,404.48L531.65,396.98L539.97,402.88L548.57,401.69L556.89,409.57L565.48,396.29L574.08,400.36L582.4,409.92L591,413.3L599.32,402.37L607.92,404.58L616.51,403.95L624.28,407.12L632.88,407.52L641.2,402.88L649.79,404.62L658.11,399.62L666.71,395.75L675.31,402.31L683.63,409.71L692.23,405.9L700.55,407.66L709.14,434.45L717.74,437.19L725.51,431.92L734.1,431.49L742.42,434L751.02,432.59L759.34,427.97L767.94,425.19L776.54,426.61L793.45,428.03L801.77,429.77L810.37,441.59L818.97,441.45L826.73,436.51L835.33,445.04L843.65,456.06L852.25,458.48L860.57,460.58L869.17,457.93L877.76,457.69L886.08,458.28L894.68,460.33L903,459.5" style="vector-effect: none; fill: none; stroke: rgb(255, 171, 46); stroke-opacity: 1; stroke-width: 1px; opacity: 1;"/></g><g class="points"/><g class="text"/></g><g class="trace scatter trace5295ba" style="stroke-miterlimit: 2;"><g class="fills"><g><path class="js-fill" d="M0,322.92L8.6,314.34L16.36,331.21L24.96,333.98L33.28,329.67L41.88,335.6L50.2,353.47L58.79,344.2L67.39,342.39L75.71,338.2L84.31,338.54L92.63,340.99L101.23,334.5L109.82,341.82L117.87,330.42L126.46,362.38L134.78,363.21L143.38,348.35L151.7,352.48L160.3,340.5L168.9,332L177.22,314.26L185.81,324.67L194.13,330.56L202.73,357.84L211.33,376.63L219.09,378.9L227.69,377.95L236.01,370.72L244.61,364.27L252.93,366.47L261.53,359.52L270.12,361.17L278.44,360.33L287.04,355.62L295.36,362.32L303.96,354.68L312.56,346.98L320.32,360.48L328.92,372.79L337.24,375.5L345.84,366.65L354.16,359.7L362.75,353.7L371.35,362.57L379.67,360.74L388.27,343.94L405.19,345.4L413.78,346.33L421.55,355.27L430.15,353.06L438.47,361.94L447.06,352.02L455.38,339.37L463.98,331.45L472.58,332.29L480.9,327.62L489.49,336.84L497.81,340.89L506.41,342.81L515.01,359.64L523.05,349.44L531.65,341.76L539.97,337.11L548.57,326.64L556.89,329.44L565.48,326.53L574.08,335.09L582.4,355.12L591,342.93L599.32,328.44L607.92,333.42L616.51,333.64L632.88,342.65L641.2,354.59L649.79,342.35L658.11,346.7L666.71,356.22L675.31,356.35L683.63,368.09L692.23,342.91L700.55,346.35L709.14,373.29L717.74,392.39L725.51,370.13L742.42,397.3L751.02,397.64L759.34,375.04L767.94,387.99L776.54,394.01L784.86,391.48L793.45,392.95L801.77,377.81L810.37,394.21L818.97,375.52L826.73,376.15L835.33,389.65L843.65,396.91L852.25,391.39L860.57,398.74L869.17,387.98L877.76,393.25L886.08,399.82L894.68,394.88L903,393.4L903,448.46L894.68,449.3L886.08,445.34L877.76,443.34L869.17,444.04L860.57,447.82L852.25,448.05L843.65,443.81L835.33,433.95L826.73,425.99L818.97,431.36L810.37,431.85L801.77,418.47L793.45,418L784.86,416.61L776.54,416.37L767.94,414.69L759.34,418.3L751.02,421.95L742.42,423.06L734.1,420.83L725.51,420.48L717.74,427.72L709.14,424.61L700.55,396.27L692.23,394.53L683.63,398.96L675.31,391.72L666.71,383.18L649.79,392.56L641.2,390.26L632.88,396.03L624.28,395.46L616.51,392.85L607.92,393.07L599.32,390.76L591,402.37L582.4,398.44L574.08,388.71L565.48,384.84L556.89,398.08L548.57,391.99L539.97,388.91L531.65,383.9L523.05,393.06L515.01,399.43L506.41,395.59L497.81,385.23L489.49,388.48L480.9,384.61L472.58,386.59L463.98,386.12L455.38,392.64L438.47,399.27L430.15,391.24L421.55,389.12L413.78,390.35L405.19,394.27L396.59,387.1L388.27,391.61L379.67,396.77L371.35,392.52L362.75,385.71L354.16,393.81L345.84,393.86L337.24,398.34L328.92,396.38L320.32,397.84L312.56,395.74L303.96,391.28L295.36,384.18L287.04,382.45L278.44,379.01L270.12,379.44L261.53,373.44L252.93,391.22L244.61,382.33L236.01,389.87L227.69,397.64L219.09,401.18L211.33,403.39L202.73,394.15L194.13,359.61L185.81,348.89L177.22,340.03L168.9,356.08L160.3,358.68L151.7,364.51L143.38,360.66L134.78,375.99L126.46,374.27L117.87,344.74L109.82,358.17L101.23,356.7L92.63,357.98L84.31,356.35L75.71,355.21L67.39,350.97L58.79,353.14L50.2,365.07L41.88,344.19L33.28,339.33L24.96,342.83L16.36,343.77L8.6,330.37L0,335.92Z" style="fill: rgb(198, 198, 198); fill-opacity: 0.5; stroke-width: 0;"/></g></g><g class="errorbars"/><g class="lines"><path class="js-line" d="M0,335.92L8.6,330.37L16.36,343.77L24.96,342.83L33.28,339.33L41.88,344.19L50.2,365.07L58.79,353.14L67.39,350.97L75.71,355.21L84.31,356.35L92.63,357.98L101.23,356.7L109.82,358.17L117.87,344.74L126.46,374.27L134.78,375.99L143.38,360.66L151.7,364.51L160.3,358.68L168.9,356.08L177.22,340.03L185.81,348.89L194.13,359.61L202.73,394.15L211.33,403.39L219.09,401.18L227.69,397.64L236.01,389.87L244.61,382.33L252.93,391.22L261.53,373.44L270.12,379.44L278.44,379.01L287.04,382.45L295.36,384.18L303.96,391.28L312.56,395.74L320.32,397.84L328.92,396.38L337.24,398.34L345.84,393.86L354.16,393.81L362.75,385.71L371.35,392.52L379.67,396.77L388.27,391.61L396.59,387.1L405.19,394.27L413.78,390.35L421.55,389.12L430.15,391.24L438.47,399.27L455.38,392.64L463.98,386.12L472.58,386.59L480.9,384.61L489.49,388.48L497.81,385.23L506.41,395.59L515.01,399.43L523.05,393.06L531.65,383.9L539.97,388.91L548.57,391.99L556.89,398.08L565.48,384.84L574.08,388.71L582.4,398.44L591,402.37L599.32,390.76L607.92,393.07L616.51,392.85L624.28,395.46L632.88,396.03L641.2,390.26L649.79,392.56L666.71,383.18L675.31,391.72L683.63,398.96L692.23,394.53L700.55,396.27L709.14,424.61L717.74,427.72L725.51,420.48L734.1,420.83L742.42,423.06L751.02,421.95L759.34,418.3L767.94,414.69L776.54,416.37L784.86,416.61L793.45,418L801.77,418.47L810.37,431.85L818.97,431.36L826.73,425.99L835.33,433.95L843.65,443.81L852.25,448.05L860.57,447.82L869.17,444.04L877.76,443.34L886.08,445.34L894.68,449.3L903,448.46" style="vector-effect: none; fill: none; stroke: rgb(255, 199, 76); stroke-opacity: 1; stroke-width: 1px; opacity: 1;"/></g><g class="points"/><g class="text"/></g><g class="trace scatter trace5d73cd" style="stroke-miterlimit: 2;"><g class="fills"><g><path class="js-fill" d="M0,213.72L8.6,202.7L16.36,218.77L24.96,227.79L33.28,230.03L41.88,228.6L50.2,240.84L58.79,221.8L67.39,222.98L75.71,213.93L84.31,234.86L92.63,240.09L101.23,228.21L109.82,238.91L117.87,225.64L126.46,249.38L134.78,255.04L143.38,242.78L151.7,241.66L160.3,232.19L168.9,220.58L177.22,203.04L185.81,218.15L194.13,228.18L202.73,244.03L211.33,265.11L219.09,261.67L236.01,253.32L244.61,253.9L252.93,248.6L261.53,235.29L270.12,244.3L278.44,257.96L287.04,244.75L295.36,264.78L303.96,254L312.56,239.25L320.32,258.28L328.92,264.49L337.24,264.7L345.84,247.11L354.16,242.34L362.75,241.41L371.35,254.77L379.67,259.93L388.27,243.23L396.59,259.53L405.19,261.43L413.78,249.6L421.55,278.27L430.15,257.95L438.47,265.99L447.06,268.4L455.38,249.07L463.98,240.01L472.58,246L480.9,245.17L489.49,238.4L497.81,265.82L506.41,268.82L515.01,309.88L523.05,287.06L531.65,287.71L539.97,282.65L548.57,253.17L556.89,255.21L565.48,238.72L574.08,246.11L582.4,263.96L591,247.17L599.32,240.46L607.92,234.28L616.51,249.94L624.28,259.46L632.88,267.1L641.2,289.77L649.79,249.17L658.11,261.4L666.71,268.83L675.31,260.24L683.63,278.47L692.23,250.16L700.55,253.03L717.74,330.03L725.51,276.79L734.1,295.22L742.42,299.03L751.02,286.93L759.34,280L767.94,282.22L776.54,293.04L784.86,289.96L793.45,292.88L801.77,283.42L810.37,313.37L818.97,288.81L826.73,301.3L835.33,306.07L843.65,326.47L852.25,314.44L860.57,337.96L869.17,311.45L877.76,304.12L886.08,321.4L894.68,316.01L903,321.12L903,393.4L894.68,394.88L886.08,399.82L877.76,393.25L869.17,387.98L860.57,398.74L852.25,391.39L843.65,396.91L835.33,389.65L826.73,376.15L818.97,375.52L810.37,394.21L801.77,377.81L793.45,392.95L784.86,391.48L776.54,394.01L767.94,387.99L759.34,375.04L751.02,397.64L742.42,397.3L725.51,370.13L717.74,392.39L709.14,373.29L700.55,346.35L692.23,342.91L683.63,368.09L675.31,356.35L666.71,356.22L658.11,346.7L649.79,342.35L641.2,354.59L632.88,342.65L616.51,333.64L607.92,333.42L599.32,328.44L591,342.93L582.4,355.12L574.08,335.09L565.48,326.53L556.89,329.44L548.57,326.64L539.97,337.11L531.65,341.76L523.05,349.44L515.01,359.64L506.41,342.81L497.81,340.89L489.49,336.84L480.9,327.62L472.58,332.29L463.98,331.45L455.38,339.37L447.06,352.02L438.47,361.94L430.15,353.06L421.55,355.27L413.78,346.33L405.19,345.4L388.27,343.94L379.67,360.74L371.35,362.57L362.75,353.7L354.16,359.7L345.84,366.65L337.24,375.5L328.92,372.79L320.32,360.48L312.56,346.98L303.96,354.68L295.36,362.32L287.04,355.62L278.44,360.33L270.12,361.17L261.53,359.52L252.93,366.47L244.61,364.27L236.01,370.72L227.69,377.95L219.09,378.9L211.33,376.63L202.73,357.84L194.13,330.56L185.81,324.67L177.22,314.26L168.9,332L160.3,340.5L151.7,352.48L143.38,348.35L134.78,363.21L126.46,362.38L117.87,330.42L109.82,341.82L101.23,334.5L92.63,340.99L84.31,338.54L75.71,338.2L67.39,342.39L58.79,344.2L50.2,353.47L41.88,335.6L33.28,329.67L24.96,333.98L16.36,331.21L8.6,314.34L0,322.92Z" style="fill: rgb(94, 94, 94); fill-opacity: 0.5; stroke-width: 0;"/></g></g><g class="errorbars"/><g class="lines"><path class="js-line" d="M0,322.92L8.6,314.34L16.36,331.21L24.96,333.98L33.28,329.67L41.88,335.6L50.2,353.47L58.79,344.2L67.39,342.39L75.71,338.2L84.31,338.54L92.63,340.99L101.23,334.5L109.82,341.82L117.87,330.42L126.46,362.38L134.78,363.21L143.38,348.35L151.7,352.48L160.3,340.5L168.9,332L177.22,314.26L185.81,324.67L194.13,330.56L202.73,357.84L211.33,376.63L219.09,378.9L227.69,377.95L236.01,370.72L244.61,364.27L252.93,366.47L261.53,359.52L270.12,361.17L278.44,360.33L287.04,355.62L295.36,362.32L303.96,354.68L312.56,346.98L320.32,360.48L328.92,372.79L337.24,375.5L345.84,366.65L354.16,359.7L362.75,353.7L371.35,362.57L379.67,360.74L388.27,343.94L405.19,345.4L413.78,346.33L421.55,355.27L430.15,353.06L438.47,361.94L447.06,352.02L455.38,339.37L463.98,331.45L472.58,332.29L480.9,327.62L489.49,336.84L497.81,340.89L506.41,342.81L515.01,359.64L523.05,349.44L531.65,341.76L539.97,337.11L548.57,326.64L556.89,329.44L565.48,326.53L574.08,335.09L582.4,355.12L591,342.93L599.32,328.44L607.92,333.42L616.51,333.64L632.88,342.65L641.2,354.59L649.79,342.35L658.11,346.7L666.71,356.22L675.31,356.35L683.63,368.09L692.23,342.91L700.55,346.35L709.14,373.29L717.74,392.39L725.51,370.13L742.42,397.3L751.02,397.64L759.34,375.04L767.94,387.99L776.54,394.01L784.86,391.48L793.45,392.95L801.77,377.81L810.37,394.21L818.97,375.52L826.73,376.15L835.33,389.65L843.65,396.91L852.25,391.39L860.57,398.74L869.17,387.98L877.76,393.25L886.08,399.82L894.68,394.88L903,393.4" style="vector-effect: none; fill: none; stroke: rgb(198, 198, 198); stroke-opacity: 1; stroke-width: 1px; opacity: 1;"/></g><g class="points"/><g class="text"/></g><g class="trace scatter trace0b7362" style="stroke-miterlimit: 2;"><g class="fills"><g><path class="js-fill" d="M0,154.61L8.6,124.43L16.36,151.17L24.96,165.39L33.28,182.14L41.88,165.54L50.2,177.27L58.79,154.69L67.39,147.39L75.71,119.65L84.31,168.25L92.63,181.62L101.23,155.32L109.82,175.54L117.87,151.32L126.46,179.22L134.78,197.76L143.38,169.39L151.7,180.32L160.3,176.57L168.9,153.88L177.22,136.36L185.81,149.05L194.13,160.12L202.73,151.19L211.33,190.46L219.09,201.82L227.69,207.25L236.01,194.67L244.61,212.15L252.93,197.43L261.53,190.76L270.12,179.66L278.44,215.7L287.04,182.49L295.36,217.85L303.96,207.21L312.56,161.64L320.32,187L328.92,220.24L337.24,223.44L345.84,197.13L354.16,178.87L371.35,192.86L379.67,193.38L388.27,172.26L396.59,206.87L405.19,197.16L413.78,194.85L421.55,249.33L430.15,222.21L438.47,227.24L447.06,237.56L455.38,213.01L463.98,207.06L472.58,218.18L480.9,208.33L489.49,179.17L497.81,229.99L506.41,226.39L515.01,286.64L523.05,259.47L531.65,271.15L539.97,262.64L548.57,235.17L556.89,236.8L565.48,214.34L574.08,200.14L582.4,230.75L591,197.48L599.32,193.35L607.92,184.89L616.51,213.47L624.28,224.57L632.88,230.28L641.2,262.58L649.79,212.57L658.11,220.06L666.71,235.63L675.31,189.33L683.63,230.13L692.23,180.25L700.55,193.59L709.14,227.22L717.74,283.44L725.51,204.46L734.1,251.14L742.42,260.42L751.02,242.42L759.34,233.65L767.94,215.33L776.54,222.24L784.86,246.39L793.45,227.91L801.77,205.64L810.37,253.78L818.97,223.65L826.73,258.41L835.33,270.01L843.65,304.91L852.25,291.31L860.57,317.63L869.17,279.04L877.76,268.36L886.08,283.24L894.68,272.43L903,279.93L903,321.12L894.68,316.01L886.08,321.4L877.76,304.12L869.17,311.45L860.57,337.96L852.25,314.44L843.65,326.47L835.33,306.07L826.73,301.3L818.97,288.81L810.37,313.37L801.77,283.42L793.45,292.88L784.86,289.96L776.54,293.04L767.94,282.22L759.34,280L751.02,286.93L742.42,299.03L734.1,295.22L725.51,276.79L717.74,330.03L700.55,253.03L692.23,250.16L683.63,278.47L675.31,260.24L666.71,268.83L658.11,261.4L649.79,249.17L641.2,289.77L632.88,267.1L624.28,259.46L616.51,249.94L607.92,234.28L599.32,240.46L591,247.17L582.4,263.96L574.08,246.11L565.48,238.72L556.89,255.21L548.57,253.17L539.97,282.65L531.65,287.71L523.05,287.06L515.01,309.88L506.41,268.82L497.81,265.82L489.49,238.4L480.9,245.17L472.58,246L463.98,240.01L455.38,249.07L447.06,268.4L438.47,265.99L430.15,257.95L421.55,278.27L413.78,249.6L405.19,261.43L396.59,259.53L388.27,243.23L379.67,259.93L371.35,254.77L362.75,241.41L354.16,242.34L345.84,247.11L337.24,264.7L328.92,264.49L320.32,258.28L312.56,239.25L303.96,254L295.36,264.78L287.04,244.75L278.44,257.96L270.12,244.3L261.53,235.29L252.93,248.6L244.61,253.9L236.01,253.32L219.09,261.67L211.33,265.11L202.73,244.03L194.13,228.18L185.81,218.15L177.22,203.04L168.9,220.58L160.3,232.19L151.7,241.66L143.38,242.78L134.78,255.04L126.46,249.38L117.87,225.64L109.82,238.91L101.23,228.21L92.63,240.09L84.31,234.86L75.71,213.93L67.39,222.98L58.79,221.8L50.2,240.84L41.88,228.6L33.28,230.03L24.96,227.79L16.36,218.77L8.6,202.7L0,213.72Z" style="fill: rgb(0, 0, 0); fill-opacity: 0.5; stroke-width: 0;"/></g></g><g class="errorbars"/><g class="lines"><path class="js-line" d="M0,213.72L8.6,202.7L16.36,218.77L24.96,227.79L33.28,230.03L41.88,228.6L50.2,240.84L58.79,221.8L67.39,222.98L75.71,213.93L84.31,234.86L92.63,240.09L101.23,228.21L109.82,238.91L117.87,225.64L126.46,249.38L134.78,255.04L143.38,242.78L151.7,241.66L160.3,232.19L168.9,220.58L177.22,203.04L185.81,218.15L194.13,228.18L202.73,244.03L211.33,265.11L219.09,261.67L236.01,253.32L244.61,253.9L252.93,248.6L261.53,235.29L270.12,244.3L278.44,257.96L287.04,244.75L295.36,264.78L303.96,254L312.56,239.25L320.32,258.28L328.92,264.49L337.24,264.7L345.84,247.11L354.16,242.34L362.75,241.41L371.35,254.77L379.67,259.93L388.27,243.23L396.59,259.53L405.19,261.43L413.78,249.6L421.55,278.27L430.15,257.95L438.47,265.99L447.06,268.4L455.38,249.07L463.98,240.01L472.58,246L480.9,245.17L489.49,238.4L497.81,265.82L506.41,268.82L515.01,309.88L523.05,287.06L531.65,287.71L539.97,282.65L548.57,253.17L556.89,255.21L565.48,238.72L574.08,246.11L582.4,263.96L591,247.17L599.32,240.46L607.92,234.28L616.51,249.94L624.28,259.46L632.88,267.1L641.2,289.77L649.79,249.17L658.11,261.4L666.71,268.83L675.31,260.24L683.63,278.47L692.23,250.16L700.55,253.03L717.74,330.03L725.51,276.79L734.1,295.22L742.42,299.03L751.02,286.93L759.34,280L767.94,282.22L776.54,293.04L784.86,289.96L793.45,292.88L801.77,283.42L810.37,313.37L818.97,288.81L826.73,301.3L835.33,306.07L843.65,326.47L852.25,314.44L860.57,337.96L869.17,311.45L877.76,304.12L886.08,321.4L894.68,316.01L903,321.12" style="vector-effect: none; fill: none; stroke: rgb(94, 94, 94); stroke-opacity: 1; stroke-width: 1px; opacity: 1;"/></g><g class="points"/><g class="text"/></g><g class="trace scatter trace3c365f" style="stroke-miterlimit: 2;"><g class="fills"><g><path class="js-fill" d="M0,153.7L8.6,123.6L16.36,150.51L24.96,164.4L33.28,181.25L41.88,164.68L50.2,176.55L58.79,154.01L67.39,146.77L75.71,118.99L84.31,167.61L92.63,180.68L101.23,154.1L109.82,174.4L117.87,149.97L126.46,177.96L134.78,196.55L143.38,168.34L151.7,179.48L160.3,175.59L168.9,152.89L177.22,135.2L185.81,147.76L194.13,158.78L202.73,149.8L211.33,188.66L219.09,200.11L227.69,205.5L236.01,193.06L244.61,210.86L252.93,196.09L261.53,189.3L270.12,178.24L278.44,214.28L287.04,180.9L295.36,216.25L303.96,205.72L312.56,160.09L320.32,185.51L328.92,218.76L337.24,221.92L345.84,195.85L354.16,177.71L371.35,191.78L379.67,192.37L388.27,171.22L396.59,205.93L405.19,196.05L413.78,193.6L421.55,248.09L430.15,220.93L438.47,225.99L447.06,236.51L455.38,211.86L463.98,205.86L472.58,216.91L480.9,207.03L489.49,177.79L497.81,228.47L506.41,224.91L515.01,285.29L523.05,257.98L531.65,269.62L539.97,261.09L548.57,233.83L556.89,235.49L565.48,213.13L574.08,198.68L582.4,229.33L591,195.92L599.32,191.73L607.92,183.28L616.51,211.91L624.28,223.03L632.88,228.94L641.2,261.18L649.79,211.42L658.11,218.88L666.71,234.43L675.31,188.19L683.63,228.84L692.23,178.82L700.55,192.15L709.14,225.86L717.74,282.3L725.51,203.13L734.1,249.98L742.42,259.4L751.02,241.46L759.34,232.81L767.94,214.39L776.54,221.29L784.86,245.38L793.45,226.77L801.77,204.33L810.37,252.64L818.97,222.44L826.73,257.12L835.33,268.67L843.65,303.64L852.25,290.31L860.57,316.67L869.17,278L877.76,267.17L886.08,282.05L894.68,271.2L903,278.89L903,279.93L894.68,272.43L886.08,283.24L877.76,268.36L869.17,279.04L860.57,317.63L852.25,291.31L843.65,304.91L835.33,270.01L826.73,258.41L818.97,223.65L810.37,253.78L801.77,205.64L793.45,227.91L784.86,246.39L776.54,222.24L767.94,215.33L759.34,233.65L751.02,242.42L742.42,260.42L734.1,251.14L725.51,204.46L717.74,283.44L709.14,227.22L700.55,193.59L692.23,180.25L683.63,230.13L675.31,189.33L666.71,235.63L658.11,220.06L649.79,212.57L641.2,262.58L632.88,230.28L624.28,224.57L616.51,213.47L607.92,184.89L599.32,193.35L591,197.48L582.4,230.75L574.08,200.14L565.48,214.34L556.89,236.8L548.57,235.17L539.97,262.64L531.65,271.15L523.05,259.47L515.01,286.64L506.41,226.39L497.81,229.99L489.49,179.17L480.9,208.33L472.58,218.18L463.98,207.06L455.38,213.01L447.06,237.56L438.47,227.24L430.15,222.21L421.55,249.33L413.78,194.85L405.19,197.16L396.59,206.87L388.27,172.26L379.67,193.38L371.35,192.86L354.16,178.87L345.84,197.13L337.24,223.44L328.92,220.24L320.32,187L312.56,161.64L303.96,207.21L295.36,217.85L287.04,182.49L278.44,215.7L270.12,179.66L261.53,190.76L252.93,197.43L244.61,212.15L236.01,194.67L227.69,207.25L219.09,201.82L211.33,190.46L202.73,151.19L194.13,160.12L185.81,149.05L177.22,136.36L168.9,153.88L160.3,176.57L151.7,180.32L143.38,169.39L134.78,197.76L126.46,179.22L117.87,151.32L109.82,175.54L101.23,155.32L92.63,181.62L84.31,168.25L75.71,119.65L67.39,147.39L58.79,154.69L50.2,177.27L41.88,165.54L33.28,182.14L24.96,165.39L16.36,151.17L8.6,124.43L0,154.61Z" style="fill: rgb(148, 255, 175); fill-opacity: 0.5; stroke-width: 0;"/></g></g><g class="errorbars"/><g class="lines"><path class="js-line" d="M0,154.61L8.6,124.43L16.36,151.17L24.96,165.39L33.28,182.14L41.88,165.54L50.2,177.27L58.79,154.69L67.39,147.39L75.71,119.65L84.31,168.25L92.63,181.62L101.23,155.32L109.82,175.54L117.87,151.32L126.46,179.22L134.78,197.76L143.38,169.39L151.7,180.32L160.3,176.57L168.9,153.88L177.22,136.36L185.81,149.05L194.13,160.12L202.73,151.19L211.33,190.46L219.09,201.82L227.69,207.25L236.01,194.67L244.61,212.15L252.93,197.43L261.53,190.76L270.12,179.66L278.44,215.7L287.04,182.49L295.36,217.85L303.96,207.21L312.56,161.64L320.32,187L328.92,220.24L337.24,223.44L345.84,197.13L354.16,178.87L371.35,192.86L379.67,193.38L388.27,172.26L396.59,206.87L405.19,197.16L413.78,194.85L421.55,249.33L430.15,222.21L438.47,227.24L447.06,237.56L455.38,213.01L463.98,207.06L472.58,218.18L480.9,208.33L489.49,179.17L497.81,229.99L506.41,226.39L515.01,286.64L523.05,259.47L531.65,271.15L539.97,262.64L548.57,235.17L556.89,236.8L565.48,214.34L574.08,200.14L582.4,230.75L591,197.48L599.32,193.35L607.92,184.89L616.51,213.47L624.28,224.57L632.88,230.28L641.2,262.58L649.79,212.57L658.11,220.06L666.71,235.63L675.31,189.33L683.63,230.13L692.23,180.25L700.55,193.59L709.14,227.22L717.74,283.44L725.51,204.46L734.1,251.14L742.42,260.42L751.02,242.42L759.34,233.65L767.94,215.33L776.54,222.24L784.86,246.39L793.45,227.91L801.77,205.64L810.37,253.78L818.97,223.65L826.73,258.41L835.33,270.01L843.65,304.91L852.25,291.31L860.57,317.63L869.17,279.04L877.76,268.36L886.08,283.24L894.68,272.43L903,279.93" style="vector-effect: none; fill: none; stroke: rgb(0, 0, 0); stroke-opacity: 1; stroke-width: 1px; opacity: 1;"/></g><g class="points"/><g class="text"/></g><g class="trace scatter trace08b8e2" style="stroke-miterlimit: 2;"><g class="fills"><g><path class="js-fill" d="M0,125.88L8.6,96.79L16.36,123.31L24.96,134.68L33.28,148.41L41.88,134.6L50.2,147.88L58.79,124.87L67.39,119.6L75.71,90.44L84.31,140.59L92.63,148.5L101.23,123.21L109.82,142.71L117.87,116.76L126.46,142.89L134.78,160.48L143.38,133.72L151.7,146.09L160.3,142.2L168.9,121.18L177.22,103.71L185.81,117.47L194.13,126.15L202.73,115.32L211.33,153.53L219.09,163.81L227.69,167.8L236.01,155.99L244.61,175.83L252.93,158.75L261.53,152.84L270.12,144.86L278.44,181.66L287.04,147.07L295.36,181.74L303.96,173.13L312.56,128.7L320.32,154.24L328.92,184.58L337.24,185.22L345.84,161.24L354.16,145.18L362.75,151.2L371.35,159.48L379.67,160.32L388.27,138.17L396.59,172.89L405.19,165.27L413.78,161.43L421.55,215.25L430.15,185.43L438.47,187.17L447.06,197.85L455.38,176.89L463.98,170.13L472.58,183.52L480.9,173.27L489.49,144.04L497.81,192.5L506.41,190.92L515.01,251.88L523.05,221.82L531.65,227.06L539.97,216.54L548.57,193.79L556.89,196.58L565.48,176.19L574.08,162.73L582.4,195.36L591,162.54L599.32,156.96L607.92,149.66L616.51,178.46L624.28,189.11L632.88,193.61L641.2,221.94L649.79,176.21L658.11,182.29L666.71,197.28L675.31,153.64L683.63,195.25L692.23,145.54L700.55,158.48L709.14,193.34L717.74,251.97L725.51,168.25L734.1,214.81L742.42,219.78L751.02,203.07L759.34,198.42L767.94,176.52L776.54,184.52L784.86,207.06L793.45,190.89L801.77,167.4L810.37,216.78L818.97,187.42L826.73,221.64L835.33,228.92L843.65,260.77L852.25,249.08L860.57,276.88L869.17,234.95L877.76,226.66L886.08,245.66L894.68,237.45L903,245.82L903,278.89L894.68,271.2L886.08,282.05L877.76,267.17L869.17,278L860.57,316.67L852.25,290.31L843.65,303.64L835.33,268.67L826.73,257.12L818.97,222.44L810.37,252.64L801.77,204.33L793.45,226.77L784.86,245.38L776.54,221.29L767.94,214.39L759.34,232.81L751.02,241.46L742.42,259.4L734.1,249.98L725.51,203.13L717.74,282.3L709.14,225.86L700.55,192.15L692.23,178.82L683.63,228.84L675.31,188.19L666.71,234.43L658.11,218.88L649.79,211.42L641.2,261.18L632.88,228.94L624.28,223.03L616.51,211.91L607.92,183.28L599.32,191.73L591,195.92L582.4,229.33L574.08,198.68L565.48,213.13L556.89,235.49L548.57,233.83L539.97,261.09L531.65,269.62L523.05,257.98L515.01,285.29L506.41,224.91L497.81,228.47L489.49,177.79L480.9,207.03L472.58,216.91L463.98,205.86L455.38,211.86L447.06,236.51L438.47,225.99L430.15,220.93L421.55,248.09L413.78,193.6L405.19,196.05L396.59,205.93L388.27,171.22L379.67,192.37L371.35,191.78L354.16,177.71L345.84,195.85L337.24,221.92L328.92,218.76L320.32,185.51L312.56,160.09L303.96,205.72L295.36,216.25L287.04,180.9L278.44,214.28L270.12,178.24L261.53,189.3L252.93,196.09L244.61,210.86L236.01,193.06L227.69,205.5L219.09,200.11L211.33,188.66L202.73,149.8L194.13,158.78L185.81,147.76L177.22,135.2L168.9,152.89L160.3,175.59L151.7,179.48L143.38,168.34L134.78,196.55L126.46,177.96L117.87,149.97L109.82,174.4L101.23,154.1L92.63,180.68L84.31,167.61L75.71,118.99L67.39,146.77L58.79,154.01L50.2,176.55L41.88,164.68L33.28,181.25L24.96,164.4L16.36,150.51L8.6,123.6L0,153.7Z" style="fill: rgb(119, 234, 148); fill-opacity: 0.5; stroke-width: 0;"/></g></g><g class="errorbars"/><g class="lines"><path class="js-line" d="M0,153.7L8.6,123.6L16.36,150.51L24.96,164.4L33.28,181.25L41.88,164.68L50.2,176.55L58.79,154.01L67.39,146.77L75.71,118.99L84.31,167.61L92.63,180.68L101.23,154.1L109.82,174.4L117.87,149.97L126.46,177.96L134.78,196.55L143.38,168.34L151.7,179.48L160.3,175.59L168.9,152.89L177.22,135.2L185.81,147.76L194.13,158.78L202.73,149.8L211.33,188.66L219.09,200.11L227.69,205.5L236.01,193.06L244.61,210.86L252.93,196.09L261.53,189.3L270.12,178.24L278.44,214.28L287.04,180.9L295.36,216.25L303.96,205.72L312.56,160.09L320.32,185.51L328.92,218.76L337.24,221.92L345.84,195.85L354.16,177.71L371.35,191.78L379.67,192.37L388.27,171.22L396.59,205.93L405.19,196.05L413.78,193.6L421.55,248.09L430.15,220.93L438.47,225.99L447.06,236.51L455.38,211.86L463.98,205.86L472.58,216.91L480.9,207.03L489.49,177.79L497.81,228.47L506.41,224.91L515.01,285.29L523.05,257.98L531.65,269.62L539.97,261.09L548.57,233.83L556.89,235.49L565.48,213.13L574.08,198.68L582.4,229.33L591,195.92L599.32,191.73L607.92,183.28L616.51,211.91L624.28,223.03L632.88,228.94L641.2,261.18L649.79,211.42L658.11,218.88L666.71,234.43L675.31,188.19L683.63,228.84L692.23,178.82L700.55,192.15L709.14,225.86L717.74,282.3L725.51,203.13L734.1,249.98L742.42,259.4L751.02,241.46L759.34,232.81L767.94,214.39L776.54,221.29L784.86,245.38L793.45,226.77L801.77,204.33L810.37,252.64L818.97,222.44L826.73,257.12L835.33,268.67L843.65,303.64L852.25,290.31L860.57,316.67L869.17,278L877.76,267.17L886.08,282.05L894.68,271.2L903,278.89" style="vector-effect: none; fill: none; stroke: rgb(148, 255, 175); stroke-opacity: 1; stroke-width: 1px; opacity: 1;"/></g><g class="points"/><g class="text"/></g><g class="trace scatter trace6cda73" style="stroke-miterlimit: 2;"><g class="fills"><g><path class="js-fill" d="M0,115.14L8.6,88.2L16.36,113.83L24.96,121.75L33.28,131.37L41.88,118.07L50.2,133.6L58.79,112.19L67.39,109.06L75.71,80.8L84.31,132.99L92.63,140.22L101.23,114.41L109.82,131.76L117.87,103.83L126.46,125.82L134.78,140.3L143.38,112.72L151.7,124.35L160.3,121.33L168.9,105.14L177.22,92.52L185.81,106.55L194.13,115.64L202.73,106.96L211.33,144.05L219.09,151.23L227.69,155.07L236.01,139.69L244.61,159.45L252.93,141.56L261.53,135.7L270.12,128.22L278.44,168.84L287.04,134.13L295.36,169.34L303.96,160.56L312.56,117.44L320.32,144.07L328.92,169.35L337.24,166.92L345.84,143.49L354.16,131.02L362.75,138.63L371.35,147.55L379.67,150.81L388.27,129.12L396.59,162.73L405.19,155.45L413.78,151.53L421.55,202.59L430.15,171.46L438.47,170.25L447.06,179.03L455.38,159.45L463.98,151.98L472.58,169.62L480.9,161.47L489.49,132.69L497.81,181.69L506.41,181.42L515.01,239.58L523.05,208.78L531.65,212.78L539.97,198.54L548.57,174.7L556.89,178.42L565.48,160.12L574.08,147.13L582.4,181.77L591,151L599.32,146.64L607.92,140.11L616.51,166.97L624.28,178.27L632.88,182.79L641.2,204.67L649.79,156.87L658.11,163.29L666.71,178.09L675.31,140.32L683.63,186.47L692.23,137.48L700.55,149.65L709.14,184.22L717.74,244.87L725.51,160.1L734.1,204.94L742.42,204.73L751.02,186.94L759.34,185.9L767.94,163.54L776.54,172.15L784.86,193.5L793.45,180.65L801.77,157.58L810.37,206.7L818.97,178.78L826.73,211.81L835.33,216L843.65,240.26L852.25,229.14L860.57,258.91L869.17,214.58L877.76,208.7L886.08,233.97L894.68,223.31L903,232.05L903,245.82L894.68,237.45L886.08,245.66L877.76,226.66L869.17,234.95L860.57,276.88L852.25,249.08L843.65,260.77L835.33,228.92L826.73,221.64L818.97,187.42L810.37,216.78L801.77,167.4L793.45,190.89L784.86,207.06L776.54,184.52L767.94,176.52L759.34,198.42L751.02,203.07L742.42,219.78L734.1,214.81L725.51,168.25L717.74,251.97L709.14,193.34L700.55,158.48L692.23,145.54L683.63,195.25L675.31,153.64L666.71,197.28L658.11,182.29L649.79,176.21L641.2,221.94L632.88,193.61L624.28,189.11L616.51,178.46L607.92,149.66L599.32,156.96L591,162.54L582.4,195.36L574.08,162.73L565.48,176.19L556.89,196.58L548.57,193.79L539.97,216.54L531.65,227.06L523.05,221.82L515.01,251.88L506.41,190.92L497.81,192.5L489.49,144.04L480.9,173.27L472.58,183.52L463.98,170.13L455.38,176.89L447.06,197.85L438.47,187.17L430.15,185.43L421.55,215.25L413.78,161.43L405.19,165.27L396.59,172.89L388.27,138.17L379.67,160.32L371.35,159.48L362.75,151.2L354.16,145.18L345.84,161.24L337.24,185.22L328.92,184.58L320.32,154.24L312.56,128.7L303.96,173.13L295.36,181.74L287.04,147.07L278.44,181.66L270.12,144.86L261.53,152.84L252.93,158.75L244.61,175.83L236.01,155.99L227.69,167.8L219.09,163.81L211.33,153.53L202.73,115.32L194.13,126.15L185.81,117.47L177.22,103.71L168.9,121.18L160.3,142.2L151.7,146.09L143.38,133.72L134.78,160.48L126.46,142.89L117.87,116.76L109.82,142.71L101.23,123.21L92.63,148.5L84.31,140.59L75.71,90.44L67.39,119.6L58.79,124.87L50.2,147.88L41.88,134.6L33.28,148.41L24.96,134.68L16.36,123.31L8.6,96.79L0,125.88Z" style="fill: rgb(90, 205, 122); fill-opacity: 0.5; stroke-width: 0;"/></g></g><g class="errorbars"/><g class="lines"><path class="js-line" d="M0,125.88L8.6,96.79L16.36,123.31L24.96,134.68L33.28,148.41L41.88,134.6L50.2,147.88L58.79,124.87L67.39,119.6L75.71,90.44L84.31,140.59L92.63,148.5L101.23,123.21L109.82,142.71L117.87,116.76L126.46,142.89L134.78,160.48L143.38,133.72L151.7,146.09L160.3,142.2L168.9,121.18L177.22,103.71L185.81,117.47L194.13,126.15L202.73,115.32L211.33,153.53L219.09,163.81L227.69,167.8L236.01,155.99L244.61,175.83L252.93,158.75L261.53,152.84L270.12,144.86L278.44,181.66L287.04,147.07L295.36,181.74L303.96,173.13L312.56,128.7L320.32,154.24L328.92,184.58L337.24,185.22L345.84,161.24L354.16,145.18L362.75,151.2L371.35,159.48L379.67,160.32L388.27,138.17L396.59,172.89L405.19,165.27L413.78,161.43L421.55,215.25L430.15,185.43L438.47,187.17L447.06,197.85L455.38,176.89L463.98,170.13L472.58,183.52L480.9,173.27L489.49,144.04L497.81,192.5L506.41,190.92L515.01,251.88L523.05,221.82L531.65,227.06L539.97,216.54L548.57,193.79L556.89,196.58L565.48,176.19L574.08,162.73L582.4,195.36L591,162.54L599.32,156.96L607.92,149.66L616.51,178.46L624.28,189.11L632.88,193.61L641.2,221.94L649.79,176.21L658.11,182.29L666.71,197.28L675.31,153.64L683.63,195.25L692.23,145.54L700.55,158.48L709.14,193.34L717.74,251.97L725.51,168.25L734.1,214.81L742.42,219.78L751.02,203.07L759.34,198.42L767.94,176.52L776.54,184.52L784.86,207.06L793.45,190.89L801.77,167.4L810.37,216.78L818.97,187.42L826.73,221.64L835.33,228.92L843.65,260.77L852.25,249.08L860.57,276.88L869.17,234.95L877.76,226.66L886.08,245.66L894.68,237.45L903,245.82" style="vector-effect: none; fill: none; stroke: rgb(119, 234, 148); stroke-opacity: 1; stroke-width: 1px; opacity: 1;"/></g><g class="points"/><g class="text"/></g><g class="trace scatter trace926674" style="stroke-miterlimit: 2;"><g class="fills"><g><path class="js-fill" d="M0,109.96L8.6,74.59L16.36,87.44L24.96,75.58L33.28,82.18L41.88,68.28L50.2,83.38L58.79,63.89L67.39,77.6L75.71,61.99L84.31,122.35L92.63,132.23L101.23,108.5L109.82,119.56L117.87,80.88L126.46,86.36L134.78,89.58L143.38,60.47L151.7,72.81L160.3,72.79L168.9,66.2L177.22,76.7L185.81,97.14L194.13,108.32L202.73,99.19L211.33,128.29L219.09,118.38L227.69,112.57L236.01,84.41L244.61,100.95L252.93,85.99L261.53,84.63L270.12,93.88L278.44,147.73L287.04,125.87L295.36,164.56L303.96,153.94L312.56,99.82L320.32,119.6L328.92,117.99L337.24,102.22L354.16,68.25L362.75,85.59L379.67,124.83L388.27,118.03L396.59,157.86L405.19,149.1L413.78,129.98L421.55,174.28L430.15,117.89L438.47,114.56L447.06,102.03L455.38,95.97L463.98,91.38L472.58,125.94L480.9,137.73L489.49,122.41L497.81,172.55L506.41,171.26L515.01,223.1L523.05,167.16L531.65,133.63L539.97,120.27L548.57,103.28L556.89,105.16L565.48,99.01L574.08,94.87L582.4,160.44L591,135.82L599.32,139.8L607.92,134.19L616.51,145.26L624.28,137.1L632.88,124.54L641.2,137.68L649.79,74.44L658.11,91.59L666.71,116.95L675.31,87.43L683.63,154.22L692.23,126.37L700.55,142.67L709.14,175.01L717.74,223.27L725.51,105.07L734.1,145.22L742.42,117.26L751.02,91.77L759.34,101.23L767.94,77.08L776.54,116.67L784.86,151.96L793.45,162.24L801.77,150.59L810.37,198.08L818.97,153.31L826.73,173.02L835.33,148.82L843.65,135.12L852.25,107.74L860.57,158.09L869.17,122.36L877.76,116.45L886.08,193.95L894.68,207.87L903,223.72L903,232.05L894.68,223.31L886.08,233.97L877.76,208.7L869.17,214.58L860.57,258.91L852.25,229.14L843.65,240.26L835.33,216L826.73,211.81L818.97,178.78L810.37,206.7L801.77,157.58L793.45,180.65L784.86,193.5L776.54,172.15L767.94,163.54L759.34,185.9L751.02,186.94L742.42,204.73L734.1,204.94L725.51,160.1L717.74,244.87L709.14,184.22L700.55,149.65L692.23,137.48L683.63,186.47L675.31,140.32L666.71,178.09L658.11,163.29L649.79,156.87L641.2,204.67L632.88,182.79L624.28,178.27L616.51,166.97L607.92,140.11L599.32,146.64L591,151L582.4,181.77L574.08,147.13L565.48,160.12L556.89,178.42L548.57,174.7L539.97,198.54L531.65,212.78L523.05,208.78L515.01,239.58L506.41,181.42L497.81,181.69L489.49,132.69L480.9,161.47L472.58,169.62L463.98,151.98L455.38,159.45L447.06,179.03L438.47,170.25L430.15,171.46L421.55,202.59L413.78,151.53L405.19,155.45L396.59,162.73L388.27,129.12L379.67,150.81L371.35,147.55L362.75,138.63L354.16,131.02L345.84,143.49L337.24,166.92L328.92,169.35L320.32,144.07L312.56,117.44L303.96,160.56L295.36,169.34L287.04,134.13L278.44,168.84L270.12,128.22L261.53,135.7L252.93,141.56L244.61,159.45L236.01,139.69L227.69,155.07L219.09,151.23L211.33,144.05L202.73,106.96L194.13,115.64L185.81,106.55L177.22,92.52L168.9,105.14L160.3,121.33L151.7,124.35L143.38,112.72L134.78,140.3L126.46,125.82L117.87,103.83L109.82,131.76L101.23,114.41L92.63,140.22L84.31,132.99L75.71,80.8L67.39,109.06L58.79,112.19L50.2,133.6L41.88,118.07L33.28,131.37L24.96,121.75L16.36,113.83L8.6,88.2L0,115.14Z" style="fill: rgb(59, 177, 97); fill-opacity: 0.5; stroke-width: 0;"/></g></g><g class="errorbars"/><g class="lines"><path class="js-line" d="M0,115.14L8.6,88.2L16.36,113.83L24.96,121.75L33.28,131.37L41.88,118.07L50.2,133.6L58.79,112.19L67.39,109.06L75.71,80.8L84.31,132.99L92.63,140.22L101.23,114.41L109.82,131.76L117.87,103.83L126.46,125.82L134.78,140.3L143.38,112.72L151.7,124.35L160.3,121.33L168.9,105.14L177.22,92.52L185.81,106.55L194.13,115.64L202.73,106.96L211.33,144.05L219.09,151.23L227.69,155.07L236.01,139.69L244.61,159.45L252.93,141.56L261.53,135.7L270.12,128.22L278.44,168.84L287.04,134.13L295.36,169.34L303.96,160.56L312.56,117.44L320.32,144.07L328.92,169.35L337.24,166.92L345.84,143.49L354.16,131.02L362.75,138.63L371.35,147.55L379.67,150.81L388.27,129.12L396.59,162.73L405.19,155.45L413.78,151.53L421.55,202.59L430.15,171.46L438.47,170.25L447.06,179.03L455.38,159.45L463.98,151.98L472.58,169.62L480.9,161.47L489.49,132.69L497.81,181.69L506.41,181.42L515.01,239.58L523.05,208.78L531.65,212.78L539.97,198.54L548.57,174.7L556.89,178.42L565.48,160.12L574.08,147.13L582.4,181.77L591,151L599.32,146.64L607.92,140.11L616.51,166.97L624.28,178.27L632.88,182.79L641.2,204.67L649.79,156.87L658.11,163.29L666.71,178.09L675.31,140.32L683.63,186.47L692.23,137.48L700.55,149.65L709.14,184.22L717.74,244.87L725.51,160.1L734.1,204.94L742.42,204.73L751.02,186.94L759.34,185.9L767.94,163.54L776.54,172.15L784.86,193.5L793.45,180.65L801.77,157.58L810.37,206.7L818.97,178.78L826.73,211.81L835.33,216L843.65,240.26L852.25,229.14L860.57,258.91L869.17,214.58L877.76,208.7L886.08,233.97L894.68,223.31L903,232.05" style="vector-effect: none; fill: none; stroke: rgb(90, 205, 122); stroke-opacity: 1; stroke-width: 1px; opacity: 1;"/></g><g class="points"/><g class="text"/></g><g class="trace scatter trace2b794e" style="stroke-miterlimit: 2;"><g class="fills"><g><path class="js-fill" d="M0,23.5L903,23.5L903,223.72L894.68,207.87L886.08,193.95L877.76,116.45L869.17,122.36L860.57,158.09L852.25,107.74L843.65,135.12L835.33,148.82L826.73,173.02L818.97,153.31L810.37,198.08L801.77,150.59L793.45,162.24L784.86,151.96L776.54,116.67L767.94,77.08L759.34,101.23L751.02,91.77L742.42,117.26L734.1,145.22L725.51,105.07L717.74,223.27L709.14,175.01L700.55,142.67L692.23,126.37L683.63,154.22L675.31,87.43L666.71,116.95L658.11,91.59L649.79,74.44L641.2,137.68L632.88,124.54L624.28,137.1L616.51,145.26L607.92,134.19L599.32,139.8L591,135.82L582.4,160.44L574.08,94.87L565.48,99.01L556.89,105.16L548.57,103.28L539.97,120.27L531.65,133.63L523.05,167.16L515.01,223.1L506.41,171.26L497.81,172.55L489.49,122.41L480.9,137.73L472.58,125.94L463.98,91.38L455.38,95.97L447.06,102.03L438.47,114.56L430.15,117.89L421.55,174.28L413.78,129.98L405.19,149.1L396.59,157.86L388.27,118.03L379.67,124.83L362.75,85.59L354.16,68.25L337.24,102.22L328.92,117.99L320.32,119.6L312.56,99.82L303.96,153.94L295.36,164.56L287.04,125.87L278.44,147.73L270.12,93.88L261.53,84.63L252.93,85.99L244.61,100.95L236.01,84.41L227.69,112.57L219.09,118.38L211.33,128.29L202.73,99.19L194.13,108.32L185.81,97.14L177.22,76.7L168.9,66.2L160.3,72.79L151.7,72.81L143.38,60.47L134.78,89.58L126.46,86.36L117.87,80.88L109.82,119.56L101.23,108.5L92.63,132.23L84.31,122.35L75.71,61.99L67.39,77.6L58.79,63.89L50.2,83.38L41.88,68.28L33.28,82.18L24.96,75.58L16.36,87.44L8.6,74.59L0,109.96Z" style="fill: rgb(16, 150, 72); fill-opacity: 0.5; stroke-width: 0;"/></g></g><g class="errorbars"/><g class="lines"><path class="js-line" d="M0,109.96L8.6,74.59L16.36,87.44L24.96,75.58L33.28,82.18L41.88,68.28L50.2,83.38L58.79,63.89L67.39,77.6L75.71,61.99L84.31,122.35L92.63,132.23L101.23,108.5L109.82,119.56L117.87,80.88L126.46,86.36L134.78,89.58L143.38,60.47L151.7,72.81L160.3,72.79L168.9,66.2L177.22,76.7L185.81,97.14L194.13,108.32L202.73,99.19L211.33,128.29L219.09,118.38L227.69,112.57L236.01,84.41L244.61,100.95L252.93,85.99L261.53,84.63L270.12,93.88L278.44,147.73L287.04,125.87L295.36,164.56L303.96,153.94L312.56,99.82L320.32,119.6L328.92,117.99L337.24,102.22L354.16,68.25L362.75,85.59L379.67,124.83L388.27,118.03L396.59,157.86L405.19,149.1L413.78,129.98L421.55,174.28L430.15,117.89L438.47,114.56L447.06,102.03L455.38,95.97L463.98,91.38L472.58,125.94L480.9,137.73L489.49,122.41L497.81,172.55L506.41,171.26L515.01,223.1L523.05,167.16L531.65,133.63L539.97,120.27L548.57,103.28L556.89,105.16L565.48,99.01L574.08,94.87L582.4,160.44L591,135.82L599.32,139.8L607.92,134.19L616.51,145.26L624.28,137.1L632.88,124.54L641.2,137.68L649.79,74.44L658.11,91.59L666.71,116.95L675.31,87.43L683.63,154.22L692.23,126.37L700.55,142.67L709.14,175.01L717.74,223.27L725.51,105.07L734.1,145.22L742.42,117.26L751.02,91.77L759.34,101.23L767.94,77.08L776.54,116.67L784.86,151.96L793.45,162.24L801.77,150.59L810.37,198.08L818.97,153.31L826.73,173.02L835.33,148.82L843.65,135.12L852.25,107.74L860.57,158.09L869.17,122.36L877.76,116.45L886.08,193.95L894.68,207.87L903,223.72" style="vector-effect: none; fill: none; stroke: rgb(59, 177, 97); stroke-opacity: 1; stroke-width: 1px; opacity: 1;"/></g><g class="points"/><g class="text"/></g><g class="trace scatter trace99ae1b" style="stroke-miterlimit: 2;"><g class="fills"/><g class="errorbars"/><g class="lines"><path class="js-line" d="M0,23.5L903,23.5" style="vector-effect: none; fill: none; stroke: rgb(16, 150, 72); stroke-opacity: 1; stroke-width: 1px; opacity: 1;"/></g><g class="points"/><g class="text"/></g></g></g><g class="overplot"/><path class="xlines-above crisp" d="" style="fill: none; stroke-width: 1px; stroke: rgb(0, 0, 0); stroke-opacity: 0;"/><path class="ylines-above crisp" d="M0,0" style="fill: none;"/><g class="overlines-above"/><g class="xaxislayer-above"><path class="xtick ticks crisp" d="M0,545v-5" transform="translate(161.23000000000002,0)" style="stroke: rgb(68, 68, 68); stroke-opacity: 1; stroke-width: 1px;"/><path class="xtick ticks crisp" d="M0,545v-5" transform="translate(262.73,0)" style="stroke: rgb(68, 68, 68); stroke-opacity: 1; stroke-width: 1px;"/><path class="xtick ticks crisp" d="M0,545v-5" transform="translate(363.96,0)" style="stroke: rgb(68, 68, 68); stroke-opacity: 1; stroke-width: 1px;"/><path class="xtick ticks crisp" d="M0,545v-5" transform="translate(465.19,0)" style="stroke: rgb(68, 68, 68); stroke-opacity: 1; stroke-width: 1px;"/><path class="xtick ticks crisp" d="M0,545v-5" transform="translate(566.4100000000001,0)" style="stroke: rgb(68, 68, 68); stroke-opacity: 1; stroke-width: 1px;"/><path class="xtick ticks crisp" d="M0,545v-5" transform="translate(667.92,0)" style="stroke: rgb(68, 68, 68); stroke-opacity: 1; stroke-width: 1px;"/><path class="xtick ticks crisp" d="M0,545v-5" transform="translate(769.14,0)" style="stroke: rgb(68, 68, 68); stroke-opacity: 1; stroke-width: 1px;"/><path class="xtick ticks crisp" d="M0,545v-5" transform="translate(870.37,0)" style="stroke: rgb(68, 68, 68); stroke-opacity: 1; stroke-width: 1px;"/><g class="xtick"><text text-anchor="start" x="0" y="562" transform="translate(60.5,0)" style="font-family: Lato; font-size: 16px; fill: rgb(31, 31, 31); fill-opacity: 1; white-space: pre; opacity: 1;">2015</text></g><g class="xtick"><text text-anchor="start" x="0" y="562" style="font-family: Lato; font-size: 16px; fill: rgb(31, 31, 31); fill-opacity: 1; white-space: pre; opacity: 1;" transform="translate(161.73000000000002,0)">2016</text></g><g class="xtick"><text text-anchor="start" x="0" y="562" style="font-family: Lato; font-size: 16px; fill: rgb(31, 31, 31); fill-opacity: 1; white-space: pre; opacity: 1;" transform="translate(263.23,0)">2017</text></g><g class="xtick"><text text-anchor="start" x="0" y="562" style="font-family: Lato; font-size: 16px; fill: rgb(31, 31, 31); fill-opacity: 1; white-space: pre; opacity: 1;" transform="translate(364.46,0)">2018</text></g><g class="xtick"><text text-anchor="start" x="0" y="562" style="font-family: Lato; font-size: 16px; fill: rgb(31, 31, 31); fill-opacity: 1; white-space: pre; opacity: 1;" transform="translate(465.69,0)">2019</text></g><g class="xtick"><text text-anchor="start" x="0" y="562" style="font-family: Lato; font-size: 16px; fill: rgb(31, 31, 31); fill-opacity: 1; white-space: pre; opacity: 1;" transform="translate(566.9100000000001,0)">2020</text></g><g class="xtick"><text text-anchor="start" x="0" y="562" style="font-family: Lato; font-size: 16px; fill: rgb(31, 31, 31); fill-opacity: 1; white-space: pre; opacity: 1;" transform="translate(668.42,0)">2021</text></g><g class="xtick"><text text-anchor="start" x="0" y="562" style="font-family: Lato; font-size: 16px; fill: rgb(31, 31, 31); fill-opacity: 1; white-space: pre; opacity: 1;" transform="translate(769.64,0)">2022</text></g><g class="xtick"><text text-anchor="start" x="0" y="562" style="font-family: Lato; font-size: 16px; fill: rgb(31, 31, 31); fill-opacity: 1; white-space: pre; opacity: 1;" transform="translate(870.87,0)">2023</text></g></g><g class="yaxislayer-above"><g class="ytick"><text text-anchor="end" x="54" y="5.6" transform="translate(0,428.38)" style="font-family: Lato; font-size: 16px; fill: rgb(31, 31, 31); fill-opacity: 1; white-space: pre; opacity: 1;">25%</text></g><g class="ytick"><text text-anchor="end" x="54" y="5.6" style="font-family: Lato; font-size: 16px; fill: rgb(31, 31, 31); fill-opacity: 1; white-space: pre; opacity: 1;" transform="translate(0,316.75)">50%</text></g><g class="ytick"><text text-anchor="end" x="54" y="5.6" style="font-family: Lato; font-size: 16px; fill: rgb(31, 31, 31); fill-opacity: 1; white-space: pre; opacity: 1;" transform="translate(0,205.13)">75%</text></g><g class="ytick"><text text-anchor="end" x="54" y="5.6" style="font-family: Lato; font-size: 16px; fill: rgb(31, 31, 31); fill-opacity: 1; white-space: pre; opacity: 1;" transform="translate(0,93.5)">100%</text></g></g><g class="overaxes-above"/></g></g><g class="polarlayer"/><g class="smithlayer"/><g class="ternarylayer"/><g class="geolayer"/><g class="funnelarealayer"/><g class="pielayer"/><g class="iciclelayer"/><g class="treemaplayer"/><g class="sunburstlayer"/><g class="glimages"/><defs id="topdefs-5f13da"><g class="clips"/><clipPath id="legend5f13da"><rect width="189" height="272" x="0" y="0"/></clipPath></defs><g class="layer-above"><g class="imagelayer"/><g class="shapelayer"/></g><g class="infolayer"><g class="legend" pointer-events="all" transform="translate(999.12,81.75000000000001)"><rect class="bg" shape-rendering="crispEdges" width="189" height="272" x="0" y="0" style="stroke: rgb(68, 68, 68); stroke-opacity: 1; fill: rgb(255, 255, 255); fill-opacity: 1; stroke-width: 0px;"/><g class="scrollbox" transform="" clip-path="url(#legend5f13da)"><g class="groups"><g class="traces" transform="translate(0,16.9)" style="opacity: 1;"><text class="legendtext" text-anchor="start" x="40" y="6.24" style="font-family: Lato; font-size: 16px; fill: rgb(31, 31, 31); fill-opacity: 1; white-space: pre;">Wind</text><g class="layers"><g class="legendfill"><path class="js-fill" d="M5,-2h30v6h-30z" style="stroke-width: 0; fill: rgb(16, 150, 72); fill-opacity: 0.5;"/></g><g class="legendlines"><path class="js-line" d="M5,-2h30" style="fill: none; stroke: rgb(16, 150, 72); stroke-opacity: 1; stroke-width: 1px;"/></g><g class="legendsymbols"><g class="legendpoints"/></g></g><rect class="legendtoggle" x="0" y="-11.9" width="183.046875" height="23.8" style="fill: rgb(0, 0, 0); fill-opacity: 0;"/></g><g class="traces" transform="translate(0,40.7)" style="opacity: 1;"><text class="legendtext" text-anchor="start" x="40" y="6.24" style="font-family: Lato; font-size: 16px; fill: rgb(31, 31, 31); fill-opacity: 1; white-space: pre;">Solar</text><g class="layers"><g class="legendfill"><path class="js-fill" d="M5,-2h30v6h-30z" style="stroke-width: 0; fill: rgb(59, 177, 97); fill-opacity: 0.5;"/></g><g class="legendlines"><path class="js-line" d="M5,-2h30" style="fill: none; stroke: rgb(59, 177, 97); stroke-opacity: 1; stroke-width: 1px;"/></g><g class="legendsymbols"><g class="legendpoints"/></g></g><rect class="legendtoggle" x="0" y="-11.9" width="183.046875" height="23.8" style="fill: rgb(0, 0, 0); fill-opacity: 0;"/></g><g class="traces" transform="translate(0,64.5)" style="opacity: 1;"><text class="legendtext" text-anchor="start" x="40" y="6.24" style="font-family: Lato; font-size: 16px; fill: rgb(31, 31, 31); fill-opacity: 1; white-space: pre;">Hydro</text><g class="layers"><g class="legendfill"><path class="js-fill" d="M5,-2h30v6h-30z" style="stroke-width: 0; fill: rgb(90, 205, 122); fill-opacity: 0.5;"/></g><g class="legendlines"><path class="js-line" d="M5,-2h30" style="fill: none; stroke: rgb(90, 205, 122); stroke-opacity: 1; stroke-width: 1px;"/></g><g class="legendsymbols"><g class="legendpoints"/></g></g><rect class="legendtoggle" x="0" y="-11.9" width="183.046875" height="23.8" style="fill: rgb(0, 0, 0); fill-opacity: 0;"/></g><g class="traces" transform="translate(0,88.30000000000001)" style="opacity: 1;"><text class="legendtext" text-anchor="start" x="40" y="6.24" style="font-family: Lato; font-size: 16px; fill: rgb(31, 31, 31); fill-opacity: 1; white-space: pre;">Biomass</text><g class="layers"><g class="legendfill"><path class="js-fill" d="M5,-2h30v6h-30z" style="stroke-width: 0; fill: rgb(119, 234, 148); fill-opacity: 0.5;"/></g><g class="legendlines"><path class="js-line" d="M5,-2h30" style="fill: none; stroke: rgb(119, 234, 148); stroke-opacity: 1; stroke-width: 1px;"/></g><g class="legendsymbols"><g class="legendpoints"/></g></g><rect class="legendtoggle" x="0" y="-11.9" width="183.046875" height="23.8" style="fill: rgb(0, 0, 0); fill-opacity: 0;"/></g><g class="traces" transform="translate(0,112.10000000000001)" style="opacity: 1;"><text class="legendtext" text-anchor="start" x="40" y="6.24" style="font-family: Lato; font-size: 16px; fill: rgb(31, 31, 31); fill-opacity: 1; white-space: pre;">Other renewables</text><g class="layers"><g class="legendfill"><path class="js-fill" d="M5,-2h30v6h-30z" style="stroke-width: 0; fill: rgb(148, 255, 175); fill-opacity: 0.5;"/></g><g class="legendlines"><path class="js-line" d="M5,-2h30" style="fill: none; stroke: rgb(148, 255, 175); stroke-opacity: 1; stroke-width: 1px;"/></g><g class="legendsymbols"><g class="legendpoints"/></g></g><rect class="legendtoggle" x="0" y="-11.9" width="183.046875" height="23.8" style="fill: rgb(0, 0, 0); fill-opacity: 0;"/></g><g class="traces" transform="translate(0,135.9)" style="opacity: 1;"><text class="legendtext" text-anchor="start" x="40" y="6.24" style="font-family: Lato; font-size: 16px; fill: rgb(31, 31, 31); fill-opacity: 1; white-space: pre;">Coal</text><g class="layers"><g class="legendfill"><path class="js-fill" d="M5,-2h30v6h-30z" style="stroke-width: 0; fill: rgb(0, 0, 0); fill-opacity: 0.5;"/></g><g class="legendlines"><path class="js-line" d="M5,-2h30" style="fill: none; stroke: rgb(0, 0, 0); stroke-opacity: 1; stroke-width: 1px;"/></g><g class="legendsymbols"><g class="legendpoints"/></g></g><rect class="legendtoggle" x="0" y="-11.9" width="183.046875" height="23.8" style="fill: rgb(0, 0, 0); fill-opacity: 0;"/></g><g class="traces" transform="translate(0,159.70000000000002)" style="opacity: 1;"><text class="legendtext" text-anchor="start" x="40" y="6.24" style="font-family: Lato; font-size: 16px; fill: rgb(31, 31, 31); fill-opacity: 1; white-space: pre;">Lignite</text><g class="layers"><g class="legendfill"><path class="js-fill" d="M5,-2h30v6h-30z" style="stroke-width: 0; fill: rgb(94, 94, 94); fill-opacity: 0.5;"/></g><g class="legendlines"><path class="js-line" d="M5,-2h30" style="fill: none; stroke: rgb(94, 94, 94); stroke-opacity: 1; stroke-width: 1px;"/></g><g class="legendsymbols"><g class="legendpoints"/></g></g><rect class="legendtoggle" x="0" y="-11.9" width="183.046875" height="23.8" style="fill: rgb(0, 0, 0); fill-opacity: 0;"/></g><g class="traces" transform="translate(0,183.50000000000003)" style="opacity: 1;"><text class="legendtext" text-anchor="start" x="40" y="6.24" style="font-family: Lato; font-size: 16px; fill: rgb(31, 31, 31); fill-opacity: 1; white-space: pre;">Gas</text><g class="layers"><g class="legendfill"><path class="js-fill" d="M5,-2h30v6h-30z" style="stroke-width: 0; fill: rgb(198, 198, 198); fill-opacity: 0.5;"/></g><g class="legendlines"><path class="js-line" d="M5,-2h30" style="fill: none; stroke: rgb(198, 198, 198); stroke-opacity: 1; stroke-width: 1px;"/></g><g class="legendsymbols"><g class="legendpoints"/></g></g><rect class="legendtoggle" x="0" y="-11.9" width="183.046875" height="23.8" style="fill: rgb(0, 0, 0); fill-opacity: 0;"/></g><g class="traces" transform="translate(0,207.30000000000004)" style="opacity: 1;"><text class="legendtext" text-anchor="start" x="40" y="6.24" style="font-family: Lato; font-size: 16px; fill: rgb(31, 31, 31); fill-opacity: 1; white-space: pre;">Other conventionals</text><g class="layers"><g class="legendfill"><path class="js-fill" d="M5,-2h30v6h-30z" style="stroke-width: 0; fill: rgb(255, 199, 76); fill-opacity: 0.5;"/></g><g class="legendlines"><path class="js-line" d="M5,-2h30" style="fill: none; stroke: rgb(255, 199, 76); stroke-opacity: 1; stroke-width: 1px;"/></g><g class="legendsymbols"><g class="legendpoints"/></g></g><rect class="legendtoggle" x="0" y="-11.9" width="183.046875" height="23.8" style="fill: rgb(0, 0, 0); fill-opacity: 0;"/></g><g class="traces" transform="translate(0,231.10000000000005)" style="opacity: 1;"><text class="legendtext" text-anchor="start" x="40" y="6.24" style="font-family: Lato; font-size: 16px; fill: rgb(31, 31, 31); fill-opacity: 1; white-space: pre;">Pumped storage</text><g class="layers"><g class="legendfill"><path class="js-fill" d="M5,-2h30v6h-30z" style="stroke-width: 0; fill: rgb(255, 171, 46); fill-opacity: 0.5;"/></g><g class="legendlines"><path class="js-line" d="M5,-2h30" style="fill: none; stroke: rgb(255, 171, 46); stroke-opacity: 1; stroke-width: 1px;"/></g><g class="legendsymbols"><g class="legendpoints"/></g></g><rect class="legendtoggle" x="0" y="-11.9" width="183.046875" height="23.8" style="fill: rgb(0, 0, 0); fill-opacity: 0;"/></g><g class="traces" transform="translate(0,254.90000000000006)" style="opacity: 1;"><text class="legendtext" text-anchor="start" x="40" y="6.24" style="font-family: Lato; font-size: 16px; fill: rgb(31, 31, 31); fill-opacity: 1; white-space: pre;">Nuclear</text><g class="layers"><g class="legendfill"><path class="js-fill" d="M5,-2h30v6h-30z" style="stroke-width: 0; fill: rgb(255, 144, 0); fill-opacity: 0.5;"/></g><g class="legendlines"><path class="js-line" d="M5,-2h30" style="fill: none; stroke: rgb(255, 144, 0); stroke-opacity: 1; stroke-width: 1px;"/></g><g class="legendsymbols"><g class="legendpoints"/></g></g><rect class="legendtoggle" x="0" y="-11.9" width="183.046875" height="23.8" style="fill: rgb(0, 0, 0); fill-opacity: 0;"/></g></g></g><rect class="scrollbar" rx="20" ry="3" width="0" height="0" x="0" y="0" style="fill: rgb(128, 139, 164); fill-opacity: 1;"/></g><g class="g-gtitle"><text class="gtitle" x="12" y="36" text-anchor="start" dy="0.7em" style="font-family: Lato; font-size: 32px; fill: rgb(31, 31, 31); opacity: 1; font-weight: normal; white-space: pre;"><tspan class="line" dy="0em" x="12" y="36"><tspan style="font-weight:bold">Still a long way to full renewable electricity in Germany</tspan></tspan><tspan class="line" dy="1.3em" x="12" y="36"><tspan style="font-size:70%" dy="-0.6em">Share of electricity production 2015-2023 by month</tspan><tspan dy="0.42em"></tspan></tspan></text></g><g class="g-xtitle"/><g class="g-ytitle"/><g class="annotation" data-index="0" style="opacity: 1;"><g class="annotation-text-g" transform="rotate(-90,991.12,148)"><g class="cursor-pointer" transform="translate(960,140)"><rect class="bg" x="0.5" y="0.5" width="61" height="15" style="stroke-width: 1px; stroke: rgb(0, 0, 0); stroke-opacity: 0; fill: rgb(0, 0, 0); fill-opacity: 0;"/><text class="annotation-text" text-anchor="middle" x="30.828125" y="12" style="font-family: Lato; font-size: 12px; fill: rgb(102, 102, 102); fill-opacity: 1; white-space: pre;">Renewable</text></g></g></g><g class="annotation" data-index="1" style="opacity: 1;"><g class="annotation-text-g" transform="rotate(-90,991.12,246.29999999999998)"><g class="cursor-pointer" transform="translate(975,238)"><rect class="bg" x="0.5" y="0.5" width="32" height="15" style="stroke-width: 1px; stroke: rgb(0, 0, 0); stroke-opacity: 0; fill: rgb(0, 0, 0); fill-opacity: 0;"/><text class="annotation-text" text-anchor="middle" x="16.59375" y="12" style="font-family: Lato; font-size: 12px; fill: rgb(102, 102, 102); fill-opacity: 1; white-space: pre;">Fossil</text></g></g></g><g class="annotation" data-index="2" style="opacity: 1;"><g class="annotation-text-g" transform="rotate(-90,991.12,313.6)"><g class="cursor-pointer" transform="translate(973,306)"><rect class="bg" x="0.5" y="0.5" width="35" height="15" style="stroke-width: 1px; stroke: rgb(0, 0, 0); stroke-opacity: 0; fill: rgb(0, 0, 0); fill-opacity: 0;"/><text class="annotation-text" text-anchor="middle" x="17.65625" y="12" style="font-family: Lato; font-size: 12px; fill: rgb(102, 102, 102); fill-opacity: 1; white-space: pre;">Other</text></g></g></g><g class="annotation" data-index="3" style="opacity: 1;"><g class="annotation-text-g" transform="rotate(0,297.485,580.9000000000001)"><g class="cursor-pointer" transform="translate(55,573)"><rect class="bg" x="0.5" y="0.5" width="483" height="15" style="stroke-width: 1px; stroke: rgb(0, 0, 0); stroke-opacity: 0; fill: rgb(0, 0, 0); fill-opacity: 0;"/><text class="annotation-text" text-anchor="middle" x="242.078125" y="12" style="font-family: Lato; font-size: 12px; fill: rgb(31, 31, 31); fill-opacity: 1; white-space: pre;"><tspan style="font-weight:bold">Data:</tspan> SMARD/Bundesnetzagentur,  <tspan style="font-weight:bold">Graph:</tspan> Jan Khn (https://yotka.org),  <tspan style="font-weight:bold">License:</tspan> CC by 4.0</text></g></g></g></g></svg>