<svg class="main-svg" xmlns="http://www.w3.org/2000/svg" xmlns:xlink="http://www.w3.org/1999/xlink" width="2400" height="1350" style="" viewBox="0 0 1200 675"><rect x="0" y="0" width="1200" height="675" style="fill: rgb(255, 255, 255); fill-opacity: 1;"/><defs id="defs-9bea47"><g class="clips"><clipPath id="clip9bea47xyplot" class="plotclip"><rect width="322.11111111111114" height="495"/></clipPath><clipPath id="clip9bea47x2y2plot" class="plotclip"><rect width="322.11111111111114" height="495"/></clipPath><clipPath id="clip9bea47x3y3plot" class="plotclip"><rect width="322.1111111111111" height="495"/></clipPath><clipPath class="axesclip" id="clip9bea47x"><rect x="60" y="0" width="322.11111111111114" height="675"/></clipPath><clipPath class="axesclip" id="clip9bea47y"><rect x="0" y="100" width="1200" height="495"/></clipPath><clipPath class="axesclip" id="clip9bea47xy"><rect x="60" y="100" width="322.11111111111114" height="495"/></clipPath><clipPath class="axesclip" id="clip9bea47y2"><rect x="0" y="100" width="1200" height="495"/></clipPath><clipPath class="axesclip" id="clip9bea47xy2"><rect x="60" y="100" width="322.11111111111114" height="495"/></clipPath><clipPath class="axesclip" id="clip9bea47y3"><rect x="0" y="100" width="1200" height="495"/></clipPath><clipPath class="axesclip" id="clip9bea47xy3"><rect x="60" y="100" width="322.11111111111114" height="495"/></clipPath><clipPath class="axesclip" id="clip9bea47x2"><rect x="456.44444444444446" y="0" width="322.11111111111114" height="675"/></clipPath><clipPath class="axesclip" id="clip9bea47x2y"><rect x="456.44444444444446" y="100" width="322.11111111111114" height="495"/></clipPath><clipPath class="axesclip" id="clip9bea47x2y2"><rect x="456.44444444444446" y="100" width="322.11111111111114" height="495"/></clipPath><clipPath class="axesclip" id="clip9bea47x2y3"><rect x="456.44444444444446" y="100" width="322.11111111111114" height="495"/></clipPath><clipPath class="axesclip" id="clip9bea47x3"><rect x="852.8888888888889" y="0" width="322.1111111111111" height="675"/></clipPath><clipPath class="axesclip" id="clip9bea47x3y"><rect x="852.8888888888889" y="100" width="322.1111111111111" height="495"/></clipPath><clipPath class="axesclip" id="clip9bea47x3y2"><rect x="852.8888888888889" y="100" width="322.1111111111111" height="495"/></clipPath><clipPath class="axesclip" id="clip9bea47x3y3"><rect x="852.8888888888889" y="100" width="322.1111111111111" height="495"/></clipPath></g><g class="gradients"/><g class="patterns"/></defs><g class="bglayer"/><g class="layer-below"><g class="imagelayer"/><g class="shapelayer"/></g><g class="cartesianlayer"><g class="subplot xy"><g class="layer-subplot"><g class="shapelayer"/><g class="imagelayer"/></g><g class="minor-gridlayer"><g class="x"/><g class="y"/></g><g class="gridlayer"><g class="x"/><g class="y"><path class="ygrid crisp" transform="translate(0,564.06)" d="M60,0h322.11111111111114" style="stroke: rgb(238, 238, 238); stroke-opacity: 1; stroke-width: 1px;"/><path class="ygrid crisp" transform="translate(0,502.19)" d="M60,0h322.11111111111114" style="stroke: rgb(238, 238, 238); stroke-opacity: 1; stroke-width: 1px;"/><path class="ygrid crisp" transform="translate(0,440.31)" d="M60,0h322.11111111111114" style="stroke: rgb(238, 238, 238); stroke-opacity: 1; stroke-width: 1px;"/><path class="ygrid crisp" transform="translate(0,378.44)" d="M60,0h322.11111111111114" style="stroke: rgb(238, 238, 238); stroke-opacity: 1; stroke-width: 1px;"/><path class="ygrid crisp" transform="translate(0,316.56)" d="M60,0h322.11111111111114" style="stroke: rgb(238, 238, 238); stroke-opacity: 1; stroke-width: 1px;"/><path class="ygrid crisp" transform="translate(0,254.69)" d="M60,0h322.11111111111114" style="stroke: rgb(238, 238, 238); stroke-opacity: 1; stroke-width: 1px;"/><path class="ygrid crisp" transform="translate(0,192.81)" d="M60,0h322.11111111111114" style="stroke: rgb(238, 238, 238); stroke-opacity: 1; stroke-width: 1px;"/><path class="ygrid crisp" transform="translate(0,130.94)" d="M60,0h322.11111111111114" style="stroke: rgb(238, 238, 238); stroke-opacity: 1; stroke-width: 1px;"/></g></g><g class="zerolinelayer"/><path class="xlines-below"/><path class="ylines-below"/><g class="overlines-below"/><g class="xaxislayer-below"/><g class="yaxislayer-below"/><g class="overaxes-below"/><g class="plot" transform="translate(60,100)" clip-path="url(#clip9bea47xyplot)"><g class="scatterlayer mlayer"><g class="trace scatter trace396041" style="stroke-miterlimit: 2; opacity: 1;"><g class="fills"/><g class="errorbars"/><g class="lines"><path class="js-line" d="M0,118.18L3.25,111.24L6.5,116.23L9.53,117.54L12.78,113.68L15.92,107.29L19.17,104.65L22.31,106.53L25.56,109.73L28.81,112.05L31.95,119.14L35.2,115.04L38.34,107.88L41.59,101.05L44.84,97.83L47.77,99.74L51.02,103L54.16,99.11L57.41,103.62L60.55,105.22L63.8,108.43L67.05,113.75L70.19,127.02L73.44,131L76.58,142.13L79.83,154.07L83.08,143.1L86.01,133.6L89.26,135.39L92.4,140.66L95.65,134.09L98.79,123.58L102.04,115.6L105.28,112.08L108.43,99.07L111.68,91.25L114.82,85.71L118.07,78.37L121.31,89.81L124.25,111.03L127.49,112.2L130.64,113.54L133.88,126.13L140.27,148.95L143.52,159.77L146.67,168.76L149.91,173.42L153.06,182.62L156.3,195.23L159.55,217L162.59,221.88L168.98,254.5L172.23,256.35L175.37,262.52L178.62,263.61L181.86,259.44L185.01,262.1L188.26,264.36L191.4,254.28L194.65,245.81L197.89,232.81L200.83,222.54L204.07,205.66L207.22,202.46L210.46,194.71L213.61,192.77L216.85,199.04L220.1,194.73L223.25,195.08L229.64,189.62L232.88,191.27L236.13,195.29L239.06,183.9L242.31,183.02L245.45,176.72L248.7,179.22L251.85,172.41L255.09,161.94L258.34,166.01L261.48,171.88L264.73,181.91L267.87,184.1L271.12,192.46L274.37,181.42L277.3,195.22L280.55,202.17L283.69,210.74L286.94,219.27L290.08,238.34L296.58,262.72L299.72,265.07L302.97,269.02L306.11,279.12" style="vector-effect: none; fill: none; stroke: rgb(238, 238, 238); stroke-opacity: 1; stroke-width: 2px; opacity: 1;"/></g><g class="points"/><g class="text"/></g><g class="trace scatter tracebfaafa" style="stroke-miterlimit: 2; opacity: 1;"><g class="fills"/><g class="errorbars"/><g class="lines"><path class="js-line" d="M0,295.02L3.25,293.94L6.5,279.77L9.53,280.75L12.78,277.73L15.92,272.63L19.17,271.99L22.31,272.04L25.56,265.96L28.81,265.51L31.95,260.26L41.59,274.18L44.84,274.01L47.77,263.46L51.02,258.63L54.16,259.53L57.41,249.05L63.8,247.9L67.05,245.01L70.19,225.91L73.44,219.75L76.58,205.84L79.83,187.38L83.08,190.95L86.01,189.59L89.26,184.82L92.4,178.44L95.65,181.74L98.79,181.81L102.04,179.86L105.28,173.8L108.43,177.45L111.68,178.21L114.82,179.3L118.07,178.95L121.31,171.03L124.25,154.85L127.49,153.73L130.64,153.61L137.03,143.89L140.27,143.49L146.67,138.28L149.91,137.84L156.3,130.56L159.55,106.69L162.59,109.45L165.84,107.39L168.98,105.96L172.23,108.52L178.62,102.92L181.86,107.55L185.01,102.12L188.26,98.23L194.65,122.13L197.89,145.93L200.83,153.88L204.07,154.83L207.22,149.38L210.46,150.93L213.61,153.96L216.85,150.53L223.25,153.01L226.49,157.31L229.64,156L232.88,143.43L236.13,119.14L239.06,124.59L242.31,119.65L245.45,122.52L248.7,118.8L251.85,112.38L255.09,117.91L258.34,112.4L261.48,116.36L264.73,108.1L267.87,109.08L271.12,105.82L274.37,127.4L277.3,115.37L280.55,119.18L283.69,116.45L286.94,112.63L290.08,105.9L293.33,101.19L296.58,100.34L299.72,93.09L302.97,83.58L306.11,64.58" style="vector-effect: none; fill: none; stroke: rgb(238, 238, 238); stroke-opacity: 1; stroke-width: 2px; opacity: 1;"/></g><g class="points"/><g class="text"/></g><g class="trace scatter trace76311d" style="stroke-miterlimit: 2; opacity: 1;"><g class="fills"/><g class="errorbars"/><g class="lines"><path class="js-line" d="M0,83.44L3.25,81.44L6.5,91.33L9.53,90.94L12.78,96.51L15.92,100.69L19.17,101.61L28.81,105.52L31.95,104.96L38.34,93.19L41.59,98.39L44.84,108.45L47.77,128.2L51.02,138.42L54.16,140.04L67.05,182.38L70.19,203.74L76.58,234.34L79.83,242.48L86.01,216.35L89.26,215.36L92.4,220.99L95.65,219.37L102.04,203.07L105.28,201.01L114.82,176.64L118.07,165.54L121.31,172.5L124.25,184.08L127.49,180.86L130.64,178.8L137.03,188.32L140.27,193.19L143.52,197.11L146.67,197.81L149.91,200.85L153.06,206.96L159.55,228.81L162.59,231.07L165.84,238.84L168.98,241.77L172.23,240.62L175.37,244.29L178.62,244.29L181.86,241.22L185.01,249.77L188.26,254.83L191.4,249.55L194.65,247.12L200.83,235.48L204.07,225.58L207.22,224.42L210.46,221.12L213.61,219.31L216.85,225.1L220.1,223.2L223.25,223.22L226.49,217.82L229.64,217.92L232.88,223.85L236.13,231.67L239.06,230.63L242.31,239.06L245.45,247.28L248.7,259.4L251.85,262.38L255.09,262.75L261.48,284.93L264.73,301.97L271.12,318.42L274.37,313.48L277.3,323.7L280.55,330.82L286.94,342.37L290.08,358.53L296.58,382.09L299.72,385.5L302.97,391.6L306.11,403.8" style="vector-effect: none; fill: none; stroke: rgb(255, 144, 0); stroke-opacity: 1; stroke-width: 2px; opacity: 1;"/></g><g class="points"/><g class="text"/></g></g></g><g class="overplot"/><path class="xlines-above crisp" d="M0,0" style="fill: none;"/><path class="ylines-above crisp" d="M0,0" style="fill: none;"/><g class="overlines-above"/><g class="xaxislayer-above"><g class="xtick"><text text-anchor="middle" x="0" y="617" transform="translate(82.31,0)" style="font-family: Lato; font-size: 16px; fill: rgb(31, 31, 31); fill-opacity: 1; white-space: pre; opacity: 1;">'16</text></g><g class="xtick"><text text-anchor="middle" x="0" y="617" style="font-family: Lato; font-size: 16px; fill: rgb(31, 31, 31); fill-opacity: 1; white-space: pre; opacity: 1;" transform="translate(120.55,0)">'17</text></g><g class="xtick"><text text-anchor="middle" x="0" y="617" style="font-family: Lato; font-size: 16px; fill: rgb(31, 31, 31); fill-opacity: 1; white-space: pre; opacity: 1;" transform="translate(158.79000000000002,0)">'18</text></g><g class="xtick"><text text-anchor="middle" x="0" y="617" style="font-family: Lato; font-size: 16px; fill: rgb(31, 31, 31); fill-opacity: 1; white-space: pre; opacity: 1;" transform="translate(197.03,0)">'19</text></g><g class="xtick"><text text-anchor="middle" x="0" y="617" style="font-family: Lato; font-size: 16px; fill: rgb(31, 31, 31); fill-opacity: 1; white-space: pre; opacity: 1;" transform="translate(235.37,0)">'20</text></g><g class="xtick"><text text-anchor="middle" x="0" y="617" style="font-family: Lato; font-size: 16px; fill: rgb(31, 31, 31); fill-opacity: 1; white-space: pre; opacity: 1;" transform="translate(273.61,0)">'21</text></g><g class="xtick"><text text-anchor="middle" x="0" y="617" style="font-family: Lato; font-size: 16px; fill: rgb(31, 31, 31); fill-opacity: 1; white-space: pre; opacity: 1;" transform="translate(311.85,0)">'22</text></g><g class="xtick"><text text-anchor="middle" x="0" y="617" style="font-family: Lato; font-size: 16px; fill: rgb(31, 31, 31); fill-opacity: 1; white-space: pre; opacity: 1;" transform="translate(350.08,0)">'23</text></g></g><g class="yaxislayer-above"><g class="ytick"><text text-anchor="end" x="54" y="5.6" transform="translate(0,564.06)" style="font-family: Lato; font-size: 16px; fill: rgb(31, 31, 31); fill-opacity: 1; white-space: pre; opacity: 1;">8M</text></g><g class="ytick"><text text-anchor="end" x="54" y="5.6" style="font-family: Lato; font-size: 16px; fill: rgb(31, 31, 31); fill-opacity: 1; white-space: pre; opacity: 1;" transform="translate(0,502.19)">10M</text></g><g class="ytick"><text text-anchor="end" x="54" y="5.6" style="font-family: Lato; font-size: 16px; fill: rgb(31, 31, 31); fill-opacity: 1; white-space: pre; opacity: 1;" transform="translate(0,440.31)">12M</text></g><g class="ytick"><text text-anchor="end" x="54" y="5.6" style="font-family: Lato; font-size: 16px; fill: rgb(31, 31, 31); fill-opacity: 1; white-space: pre; opacity: 1;" transform="translate(0,378.44)">14M</text></g><g class="ytick"><text text-anchor="end" x="54" y="5.6" style="font-family: Lato; font-size: 16px; fill: rgb(31, 31, 31); fill-opacity: 1; white-space: pre; opacity: 1;" transform="translate(0,316.56)">16M</text></g><g class="ytick"><text text-anchor="end" x="54" y="5.6" style="font-family: Lato; font-size: 16px; fill: rgb(31, 31, 31); fill-opacity: 1; white-space: pre; opacity: 1;" transform="translate(0,254.69)">18M</text></g><g class="ytick"><text text-anchor="end" x="54" y="5.6" style="font-family: Lato; font-size: 16px; fill: rgb(31, 31, 31); fill-opacity: 1; white-space: pre; opacity: 1;" transform="translate(0,192.81)">20M</text></g><g class="ytick"><text text-anchor="end" x="54" y="5.6" style="font-family: Lato; font-size: 16px; fill: rgb(31, 31, 31); fill-opacity: 1; white-space: pre; opacity: 1;" transform="translate(0,130.94)">22M</text></g></g><g class="overaxes-above"/></g><g class="subplot x2y2"><g class="layer-subplot"><g class="shapelayer"/><g class="imagelayer"/></g><g class="minor-gridlayer"><g class="x2"/><g class="y2"/></g><g class="gridlayer"><g class="x2"/><g class="y2"><path class="y2grid crisp" transform="translate(0,564.06)" d="M456.44444444444446,0h322.11111111111114" style="stroke: rgb(238, 238, 238); stroke-opacity: 1; stroke-width: 1px;"/><path class="y2grid crisp" transform="translate(0,502.19)" d="M456.44444444444446,0h322.11111111111114" style="stroke: rgb(238, 238, 238); stroke-opacity: 1; stroke-width: 1px;"/><path class="y2grid crisp" transform="translate(0,440.31)" d="M456.44444444444446,0h322.11111111111114" style="stroke: rgb(238, 238, 238); stroke-opacity: 1; stroke-width: 1px;"/><path class="y2grid crisp" transform="translate(0,378.44)" d="M456.44444444444446,0h322.11111111111114" style="stroke: rgb(238, 238, 238); stroke-opacity: 1; stroke-width: 1px;"/><path class="y2grid crisp" transform="translate(0,316.56)" d="M456.44444444444446,0h322.11111111111114" style="stroke: rgb(238, 238, 238); stroke-opacity: 1; stroke-width: 1px;"/><path class="y2grid crisp" transform="translate(0,254.69)" d="M456.44444444444446,0h322.11111111111114" style="stroke: rgb(238, 238, 238); stroke-opacity: 1; stroke-width: 1px;"/><path class="y2grid crisp" transform="translate(0,192.81)" d="M456.44444444444446,0h322.11111111111114" style="stroke: rgb(238, 238, 238); stroke-opacity: 1; stroke-width: 1px;"/><path class="y2grid crisp" transform="translate(0,130.94)" d="M456.44444444444446,0h322.11111111111114" style="stroke: rgb(238, 238, 238); stroke-opacity: 1; stroke-width: 1px;"/></g></g><g class="zerolinelayer"/><path class="xlines-below"/><path class="ylines-below"/><g class="overlines-below"/><g class="xaxislayer-below"/><g class="yaxislayer-below"/><g class="overaxes-below"/><g class="plot" transform="translate(456.44444444444446,100)" clip-path="url(#clip9bea47x2y2plot)"><g class="scatterlayer mlayer"><g class="trace scatter trace2da649" style="stroke-miterlimit: 2; opacity: 1;"><g class="fills"/><g class="errorbars"/><g class="lines"><path class="js-line" d="M0,83.44L3.25,81.44L6.5,91.33L9.53,90.94L12.78,96.51L15.92,100.69L19.17,101.61L28.81,105.52L31.95,104.96L38.34,93.19L41.59,98.39L44.84,108.45L47.77,128.2L51.02,138.42L54.16,140.04L67.05,182.38L70.19,203.74L76.58,234.34L79.83,242.48L86.01,216.35L89.26,215.36L92.4,220.99L95.65,219.37L102.04,203.07L105.28,201.01L114.82,176.64L118.07,165.54L121.31,172.5L124.25,184.08L127.49,180.86L130.64,178.8L137.03,188.32L140.27,193.19L143.52,197.11L146.67,197.81L149.91,200.85L153.06,206.96L159.55,228.81L162.59,231.07L165.84,238.84L168.98,241.77L172.23,240.62L175.37,244.29L178.62,244.29L181.86,241.22L185.01,249.77L188.26,254.83L191.4,249.55L194.65,247.12L200.83,235.48L204.07,225.58L207.22,224.42L210.46,221.12L213.61,219.31L216.85,225.1L220.1,223.2L223.25,223.22L226.49,217.82L229.64,217.92L232.88,223.85L236.13,231.67L239.06,230.63L242.31,239.06L245.45,247.28L248.7,259.4L251.85,262.38L255.09,262.75L261.48,284.93L264.73,301.97L271.12,318.42L274.37,313.48L277.3,323.7L280.55,330.82L286.94,342.37L290.08,358.53L296.58,382.09L299.72,385.5L302.97,391.6L306.11,403.8" style="vector-effect: none; fill: none; stroke: rgb(238, 238, 238); stroke-opacity: 1; stroke-width: 2px; opacity: 1;"/></g><g class="points"/><g class="text"/></g><g class="trace scatter trace8a075a" style="stroke-miterlimit: 2; opacity: 1;"><g class="fills"/><g class="errorbars"/><g class="lines"><path class="js-line" d="M0,295.02L3.25,293.94L6.5,279.77L9.53,280.75L12.78,277.73L15.92,272.63L19.17,271.99L22.31,272.04L25.56,265.96L28.81,265.51L31.95,260.26L41.59,274.18L44.84,274.01L47.77,263.46L51.02,258.63L54.16,259.53L57.41,249.05L63.8,247.9L67.05,245.01L70.19,225.91L73.44,219.75L76.58,205.84L79.83,187.38L83.08,190.95L86.01,189.59L89.26,184.82L92.4,178.44L95.65,181.74L98.79,181.81L102.04,179.86L105.28,173.8L108.43,177.45L111.68,178.21L114.82,179.3L118.07,178.95L121.31,171.03L124.25,154.85L127.49,153.73L130.64,153.61L137.03,143.89L140.27,143.49L146.67,138.28L149.91,137.84L156.3,130.56L159.55,106.69L162.59,109.45L165.84,107.39L168.98,105.96L172.23,108.52L178.62,102.92L181.86,107.55L185.01,102.12L188.26,98.23L194.65,122.13L197.89,145.93L200.83,153.88L204.07,154.83L207.22,149.38L210.46,150.93L213.61,153.96L216.85,150.53L223.25,153.01L226.49,157.31L229.64,156L232.88,143.43L236.13,119.14L239.06,124.59L242.31,119.65L245.45,122.52L248.7,118.8L251.85,112.38L255.09,117.91L258.34,112.4L261.48,116.36L264.73,108.1L267.87,109.08L271.12,105.82L274.37,127.4L277.3,115.37L280.55,119.18L283.69,116.45L286.94,112.63L290.08,105.9L293.33,101.19L296.58,100.34L299.72,93.09L302.97,83.58L306.11,64.58" style="vector-effect: none; fill: none; stroke: rgb(238, 238, 238); stroke-opacity: 1; stroke-width: 2px; opacity: 1;"/></g><g class="points"/><g class="text"/></g><g class="trace scatter traceb75667" style="stroke-miterlimit: 2; opacity: 1;"><g class="fills"/><g class="errorbars"/><g class="lines"><path class="js-line" d="M0,118.18L3.25,111.24L6.5,116.23L9.53,117.54L12.78,113.68L15.92,107.29L19.17,104.65L22.31,106.53L25.56,109.73L28.81,112.05L31.95,119.14L35.2,115.04L38.34,107.88L41.59,101.05L44.84,97.83L47.77,99.74L51.02,103L54.16,99.11L57.41,103.62L60.55,105.22L63.8,108.43L67.05,113.75L70.19,127.02L73.44,131L76.58,142.13L79.83,154.07L83.08,143.1L86.01,133.6L89.26,135.39L92.4,140.66L95.65,134.09L98.79,123.58L102.04,115.6L105.28,112.08L108.43,99.07L111.68,91.25L114.82,85.71L118.07,78.37L121.31,89.81L124.25,111.03L127.49,112.2L130.64,113.54L133.88,126.13L140.27,148.95L143.52,159.77L146.67,168.76L149.91,173.42L153.06,182.62L156.3,195.23L159.55,217L162.59,221.88L168.98,254.5L172.23,256.35L175.37,262.52L178.62,263.61L181.86,259.44L185.01,262.1L188.26,264.36L191.4,254.28L194.65,245.81L197.89,232.81L200.83,222.54L204.07,205.66L207.22,202.46L210.46,194.71L213.61,192.77L216.85,199.04L220.1,194.73L223.25,195.08L229.64,189.62L232.88,191.27L236.13,195.29L239.06,183.9L242.31,183.02L245.45,176.72L248.7,179.22L251.85,172.41L255.09,161.94L258.34,166.01L261.48,171.88L264.73,181.91L267.87,184.1L271.12,192.46L274.37,181.42L277.3,195.22L280.55,202.17L283.69,210.74L286.94,219.27L290.08,238.34L296.58,262.72L299.72,265.07L302.97,269.02L306.11,279.12" style="vector-effect: none; fill: none; stroke: rgb(0, 0, 0); stroke-opacity: 1; stroke-width: 2px; opacity: 1;"/></g><g class="points"/><g class="text"/></g></g></g><g class="overplot"/><path class="xlines-above crisp" d="M0,0" style="fill: none;"/><path class="ylines-above crisp" d="M0,0" style="fill: none;"/><g class="overlines-above"/><g class="xaxislayer-above"><g class="x2tick"><text text-anchor="middle" x="0" y="617" transform="translate(478.75444444444446,0)" style="font-family: Lato; font-size: 16px; fill: rgb(31, 31, 31); fill-opacity: 1; white-space: pre; opacity: 1;">'16</text></g><g class="x2tick"><text text-anchor="middle" x="0" y="617" style="font-family: Lato; font-size: 16px; fill: rgb(31, 31, 31); fill-opacity: 1; white-space: pre; opacity: 1;" transform="translate(516.9944444444444,0)">'17</text></g><g class="x2tick"><text text-anchor="middle" x="0" y="617" style="font-family: Lato; font-size: 16px; fill: rgb(31, 31, 31); fill-opacity: 1; white-space: pre; opacity: 1;" transform="translate(555.2344444444444,0)">'18</text></g><g class="x2tick"><text text-anchor="middle" x="0" y="617" style="font-family: Lato; font-size: 16px; fill: rgb(31, 31, 31); fill-opacity: 1; white-space: pre; opacity: 1;" transform="translate(593.4744444444444,0)">'19</text></g><g class="x2tick"><text text-anchor="middle" x="0" y="617" style="font-family: Lato; font-size: 16px; fill: rgb(31, 31, 31); fill-opacity: 1; white-space: pre; opacity: 1;" transform="translate(631.8144444444445,0)">'20</text></g><g class="x2tick"><text text-anchor="middle" x="0" y="617" style="font-family: Lato; font-size: 16px; fill: rgb(31, 31, 31); fill-opacity: 1; white-space: pre; opacity: 1;" transform="translate(670.0544444444445,0)">'21</text></g><g class="x2tick"><text text-anchor="middle" x="0" y="617" style="font-family: Lato; font-size: 16px; fill: rgb(31, 31, 31); fill-opacity: 1; white-space: pre; opacity: 1;" transform="translate(708.2944444444445,0)">'22</text></g><g class="x2tick"><text text-anchor="middle" x="0" y="617" style="font-family: Lato; font-size: 16px; fill: rgb(31, 31, 31); fill-opacity: 1; white-space: pre; opacity: 1;" transform="translate(746.5244444444445,0)">'23</text></g></g><g class="yaxislayer-above"/><g class="overaxes-above"/></g><g class="subplot x3y3"><g class="layer-subplot"><g class="shapelayer"/><g class="imagelayer"/></g><g class="minor-gridlayer"><g class="x3"/><g class="y3"/></g><g class="gridlayer"><g class="x3"/><g class="y3"><path class="y3grid crisp" transform="translate(0,564.06)" d="M852.8888888888889,0h322.1111111111111" style="stroke: rgb(238, 238, 238); stroke-opacity: 1; stroke-width: 1px;"/><path class="y3grid crisp" transform="translate(0,502.19)" d="M852.8888888888889,0h322.1111111111111" style="stroke: rgb(238, 238, 238); stroke-opacity: 1; stroke-width: 1px;"/><path class="y3grid crisp" transform="translate(0,440.31)" d="M852.8888888888889,0h322.1111111111111" style="stroke: rgb(238, 238, 238); stroke-opacity: 1; stroke-width: 1px;"/><path class="y3grid crisp" transform="translate(0,378.44)" d="M852.8888888888889,0h322.1111111111111" style="stroke: rgb(238, 238, 238); stroke-opacity: 1; stroke-width: 1px;"/><path class="y3grid crisp" transform="translate(0,316.56)" d="M852.8888888888889,0h322.1111111111111" style="stroke: rgb(238, 238, 238); stroke-opacity: 1; stroke-width: 1px;"/><path class="y3grid crisp" transform="translate(0,254.69)" d="M852.8888888888889,0h322.1111111111111" style="stroke: rgb(238, 238, 238); stroke-opacity: 1; stroke-width: 1px;"/><path class="y3grid crisp" transform="translate(0,192.81)" d="M852.8888888888889,0h322.1111111111111" style="stroke: rgb(238, 238, 238); stroke-opacity: 1; stroke-width: 1px;"/><path class="y3grid crisp" transform="translate(0,130.94)" d="M852.8888888888889,0h322.1111111111111" style="stroke: rgb(238, 238, 238); stroke-opacity: 1; stroke-width: 1px;"/></g></g><g class="zerolinelayer"/><path class="xlines-below"/><path class="ylines-below"/><g class="overlines-below"/><g class="xaxislayer-below"/><g class="yaxislayer-below"/><g class="overaxes-below"/><g class="plot" transform="translate(852.8888888888889,100)" clip-path="url(#clip9bea47x3y3plot)"><g class="scatterlayer mlayer"><g class="trace scatter trace5b7e1b" style="stroke-miterlimit: 2; opacity: 1;"><g class="fills"/><g class="errorbars"/><g class="lines"><path class="js-line" d="M0,83.44L3.23,81.44L6.46,91.33L9.49,90.94L12.72,96.51L15.85,100.69L19.08,101.61L28.67,105.52L31.8,104.96L38.15,93.19L41.39,98.39L44.62,108.45L47.54,128.2L50.77,138.42L53.9,140.04L66.72,182.38L69.85,203.74L76.2,234.34L79.44,242.48L85.59,216.35L88.82,215.36L91.95,220.99L95.18,219.37L101.54,203.07L104.77,201.01L114.26,176.64L117.49,165.54L120.72,172.5L123.64,184.08L126.87,180.86L130,178.8L136.36,188.32L139.59,193.19L142.82,197.11L145.95,197.81L149.18,200.85L152.31,206.96L158.77,228.81L161.79,231.07L165.02,238.84L168.15,241.77L171.38,240.62L174.51,244.29L177.74,244.29L180.97,241.22L184.1,249.77L187.33,254.83L190.46,249.55L193.69,247.12L199.84,235.48L203.07,225.58L206.2,224.42L209.43,221.12L212.56,219.31L215.79,225.1L219.02,223.2L222.15,223.22L225.38,217.82L228.51,217.92L231.74,223.85L234.97,231.67L237.89,230.63L241.12,239.06L244.25,247.28L247.48,259.4L250.61,262.38L253.84,262.75L260.2,284.93L263.43,301.97L269.79,318.42L273.02,313.48L275.94,323.7L279.17,330.82L285.53,342.37L288.66,358.53L295.12,382.09L298.25,385.5L301.48,391.6L304.61,403.8" style="vector-effect: none; fill: none; stroke: rgb(238, 238, 238); stroke-opacity: 1; stroke-width: 2px; opacity: 1;"/></g><g class="points"/><g class="text"/></g><g class="trace scatter trace4ea6e1" style="stroke-miterlimit: 2; opacity: 1;"><g class="fills"/><g class="errorbars"/><g class="lines"><path class="js-line" d="M0,118.18L3.23,111.24L6.46,116.23L9.49,117.54L12.72,113.68L15.85,107.29L19.08,104.65L22.2,106.53L25.44,109.73L28.67,112.05L31.8,119.14L35.03,115.04L38.15,107.88L41.39,101.05L44.62,97.83L47.54,99.74L50.77,103L53.9,99.11L57.13,103.62L60.26,105.22L63.49,108.43L66.72,113.75L69.85,127.02L73.08,131L76.2,142.13L79.44,154.07L82.67,143.1L85.59,133.6L88.82,135.39L91.95,140.66L95.18,134.09L98.31,123.58L101.54,115.6L104.77,112.08L107.9,99.07L111.13,91.25L114.26,85.71L117.49,78.37L120.72,89.81L123.64,111.03L126.87,112.2L130,113.54L133.23,126.13L139.59,148.95L142.82,159.77L145.95,168.76L149.18,173.42L152.31,182.62L155.54,195.23L158.77,217L161.79,221.88L168.15,254.5L171.38,256.35L174.51,262.52L177.74,263.61L180.97,259.44L184.1,262.1L187.33,264.36L190.46,254.28L193.69,245.81L196.92,232.81L199.84,222.54L203.07,205.66L206.2,202.46L209.43,194.71L212.56,192.77L215.79,199.04L219.02,194.73L222.15,195.08L228.51,189.62L231.74,191.27L234.97,195.29L237.89,183.9L241.12,183.02L244.25,176.72L247.48,179.22L250.61,172.41L253.84,161.94L257.07,166.01L260.2,171.88L263.43,181.91L266.56,184.1L269.79,192.46L273.02,181.42L275.94,195.22L279.17,202.17L282.3,210.74L285.53,219.27L288.66,238.34L295.12,262.72L298.25,265.07L301.48,269.02L304.61,279.12" style="vector-effect: none; fill: none; stroke: rgb(238, 238, 238); stroke-opacity: 1; stroke-width: 2px; opacity: 1;"/></g><g class="points"/><g class="text"/></g><g class="trace scatter traced30880" style="stroke-miterlimit: 2; opacity: 1;"><g class="fills"/><g class="errorbars"/><g class="lines"><path class="js-line" d="M0,295.02L3.23,293.94L6.46,279.77L9.49,280.75L12.72,277.73L15.85,272.63L19.08,271.99L22.2,272.04L25.44,265.96L28.67,265.51L31.8,260.26L41.39,274.18L44.62,274.01L47.54,263.46L50.77,258.63L53.9,259.53L57.13,249.05L63.49,247.9L66.72,245.01L69.85,225.91L73.08,219.75L76.2,205.84L79.44,187.38L82.67,190.95L85.59,189.59L88.82,184.82L91.95,178.44L95.18,181.74L98.31,181.81L101.54,179.86L104.77,173.8L107.9,177.45L111.13,178.21L114.26,179.3L117.49,178.95L120.72,171.03L123.64,154.85L126.87,153.73L130,153.61L136.36,143.89L139.59,143.49L145.95,138.28L149.18,137.84L155.54,130.56L158.77,106.69L161.79,109.45L165.02,107.39L168.15,105.96L171.38,108.52L177.74,102.92L180.97,107.55L184.1,102.12L187.33,98.23L193.69,122.13L196.92,145.93L199.84,153.88L203.07,154.83L206.2,149.38L209.43,150.93L212.56,153.96L215.79,150.53L222.15,153.01L225.38,157.31L228.51,156L231.74,143.43L234.97,119.14L237.89,124.59L241.12,119.65L244.25,122.52L247.48,118.8L250.61,112.38L253.84,117.91L257.07,112.4L260.2,116.36L263.43,108.1L266.56,109.08L269.79,105.82L273.02,127.4L275.94,115.37L279.17,119.18L282.3,116.45L285.53,112.63L288.66,105.9L291.89,101.19L295.12,100.34L298.25,93.09L301.48,83.58L304.61,64.58" style="vector-effect: none; fill: none; stroke: rgb(16, 150, 72); stroke-opacity: 1; stroke-width: 2px; opacity: 1;"/></g><g class="points"/><g class="text"/></g></g></g><g class="overplot"/><path class="xlines-above crisp" d="M0,0" style="fill: none;"/><path class="ylines-above crisp" d="M0,0" style="fill: none;"/><g class="overlines-above"/><g class="xaxislayer-above"><g class="x3tick"><text text-anchor="middle" x="0" y="617" transform="translate(875.088888888889,0)" style="font-family: Lato; font-size: 16px; fill: rgb(31, 31, 31); fill-opacity: 1; white-space: pre; opacity: 1;">'16</text></g><g class="x3tick"><text text-anchor="middle" x="0" y="617" style="font-family: Lato; font-size: 16px; fill: rgb(31, 31, 31); fill-opacity: 1; white-space: pre; opacity: 1;" transform="translate(913.1488888888889,0)">'17</text></g><g class="x3tick"><text text-anchor="middle" x="0" y="617" style="font-family: Lato; font-size: 16px; fill: rgb(31, 31, 31); fill-opacity: 1; white-space: pre; opacity: 1;" transform="translate(951.1988888888889,0)">'18</text></g><g class="x3tick"><text text-anchor="middle" x="0" y="617" style="font-family: Lato; font-size: 16px; fill: rgb(31, 31, 31); fill-opacity: 1; white-space: pre; opacity: 1;" transform="translate(989.2488888888889,0)">'19</text></g><g class="x3tick"><text text-anchor="middle" x="0" y="617" style="font-family: Lato; font-size: 16px; fill: rgb(31, 31, 31); fill-opacity: 1; white-space: pre; opacity: 1;" transform="translate(1027.398888888889,0)">'20</text></g><g class="x3tick"><text text-anchor="middle" x="0" y="617" style="font-family: Lato; font-size: 16px; fill: rgb(31, 31, 31); fill-opacity: 1; white-space: pre; opacity: 1;" transform="translate(1065.4488888888889,0)">'21</text></g><g class="x3tick"><text text-anchor="middle" x="0" y="617" style="font-family: Lato; font-size: 16px; fill: rgb(31, 31, 31); fill-opacity: 1; white-space: pre; opacity: 1;" transform="translate(1103.4988888888888,0)">'22</text></g><g class="x3tick"><text text-anchor="middle" x="0" y="617" style="font-family: Lato; font-size: 16px; fill: rgb(31, 31, 31); fill-opacity: 1; white-space: pre; opacity: 1;" transform="translate(1141.548888888889,0)">'23</text></g></g><g class="yaxislayer-above"/><g class="overaxes-above"/></g></g><g class="polarlayer"/><g class="smithlayer"/><g class="ternarylayer"/><g class="geolayer"/><g class="funnelarealayer"/><g class="pielayer"/><g class="iciclelayer"/><g class="treemaplayer"/><g class="sunburstlayer"/><g class="glimages"/><defs id="topdefs-9bea47"><g class="clips"/></defs><g class="layer-above"><g class="imagelayer"/><g class="shapelayer"/></g><g class="infolayer"><g class="g-gtitle"><text class="gtitle" x="12" y="40.5" text-anchor="start" dy="0.7em" style="font-family: Lato; font-size: 32px; fill: rgb(31, 31, 31); opacity: 1; font-weight: normal; white-space: pre;"><tspan class="line" dy="0em" x="12" y="40.5"><tspan style="font-weight:bold">Composition of electricity production in Germany changes clearly</tspan></tspan><tspan class="line" dy="1.3em" x="12" y="40.5">​<tspan style="font-size:70%" dy="-0.6em">Monthly electricity production from <tspan style=" fill:#FF9000;font-weight:bold">Conventional</tspan>, <tspan style=" fill:#000;font-weight:bold">Fossil</tspan>, and <tspan style=" fill:#109648;font-weight:bold">Renewable</tspan> sources 2016-2023 (in MWh, rolling average)</tspan><tspan dy="0.42em">​</tspan></tspan></text></g><g class="g-xtitle"/><g class="g-x2title"/><g class="g-x3title"/><g class="g-ytitle"/><g class="g-y2title"/><g class="g-y3title"/><g class="annotation" data-index="0" style="opacity: 1;"><g class="annotation-text-g" transform="rotate(0,933,652.5)"><g class="cursor-pointer" transform="translate(691,645)"><rect class="bg" x="0.5" y="0.5" width="483" height="15" style="stroke-width: 1px; stroke: rgb(0, 0, 0); stroke-opacity: 0; fill: rgb(0, 0, 0); fill-opacity: 0;"/><text class="annotation-text" text-anchor="middle" x="242.078125" y="12" style="font-family: Lato; font-size: 12px; fill: rgb(31, 31, 31); fill-opacity: 1; white-space: pre;"><tspan style="font-weight:bold">Data:</tspan> SMARD/Bundesnetzagentur,  <tspan style="font-weight:bold">Graph:</tspan> Jan Kühn (https://yotka.org),  <tspan style="font-weight:bold">License:</tspan> CC by 4.0</text></g></g></g><g class="annotation" data-index="1" style="opacity: 1;"><g class="annotation-text-g" transform="rotate(0,366.11,513.8)"><g class="cursor-pointer" transform="translate(350,506)"><rect class="bg" x="0.5" y="0.5" width="31" height="15" style="stroke-width: 1px; stroke: rgb(0, 0, 0); stroke-opacity: 0; fill: rgb(0, 0, 0); fill-opacity: 0;"/><text class="annotation-text" text-anchor="middle" x="16.125" y="12" style="font-family: Lato; font-size: 12px; fill: rgb(255, 144, 0); fill-opacity: 1; white-space: pre;"><tspan style="font-weight:bold">-51%</tspan></text></g></g></g><g class="annotation" data-index="2" style="opacity: 1;"><g class="annotation-text-g" transform="rotate(0,762.5544444444445,389.12)"><g class="cursor-pointer" transform="translate(747,381)"><rect class="bg" x="0.5" y="0.5" width="31" height="15" style="stroke-width: 1px; stroke: rgb(0, 0, 0); stroke-opacity: 0; fill: rgb(0, 0, 0); fill-opacity: 0;"/><text class="annotation-text" text-anchor="middle" x="16.125" y="12" style="font-family: Lato; font-size: 12px; fill: rgb(0, 0, 0); fill-opacity: 1; white-space: pre;"><tspan style="font-weight:bold">-27%</tspan></text></g></g></g><g class="annotation" data-index="3" style="opacity: 1;"><g class="annotation-text-g" transform="rotate(0,1157.4988888888888,154.57999999999998)"><g class="cursor-pointer" transform="translate(1140,147)"><rect class="bg" x="0.5" y="0.5" width="34" height="15" style="stroke-width: 1px; stroke: rgb(0, 0, 0); stroke-opacity: 0; fill: rgb(0, 0, 0); fill-opacity: 0;"/><text class="annotation-text" text-anchor="middle" x="17.359375" y="12" style="font-family: Lato; font-size: 12px; fill: rgb(16, 150, 72); fill-opacity: 1; white-space: pre;"><tspan style="font-weight:bold">+55%</tspan></text></g></g></g></g></svg>