<svg class="main-svg" xmlns="http://www.w3.org/2000/svg" xmlns:xlink="http://www.w3.org/1999/xlink" width="2400" height="1200" style="" viewBox="0 0 1200 600"><rect x="0" y="0" width="1200" height="600" style="fill: rgb(255, 255, 255); fill-opacity: 1;"/><defs id="defs-9d4f72"><g class="clips"><clipPath id="clip9d4f72xyplot" class="plotclip"><rect width="903" height="470"/></clipPath><clipPath class="axesclip" id="clip9d4f72x"><rect x="60" y="0" width="903" height="600"/></clipPath><clipPath class="axesclip" id="clip9d4f72y"><rect x="0" y="70" width="1200" height="470"/></clipPath><clipPath class="axesclip" id="clip9d4f72xy"><rect x="60" y="70" width="903" height="470"/></clipPath></g><g class="gradients"/><g class="patterns"/></defs><g class="bglayer"/><g class="layer-below"><g class="imagelayer"/><g class="shapelayer"/></g><g class="cartesianlayer"><g class="subplot xy"><g class="layer-subplot"><g class="shapelayer"/><g class="imagelayer"/></g><g class="minor-gridlayer"><g class="x"/><g class="y"/></g><g class="gridlayer"><g class="x"><path class="xgrid crisp" transform="translate(174.32,0)" d="M0,70v470" style="stroke: rgb(238, 238, 238); stroke-opacity: 1; stroke-width: 1px;"/><path class="xgrid crisp" transform="translate(288.33000000000004,0)" d="M0,70v470" style="stroke: rgb(238, 238, 238); stroke-opacity: 1; stroke-width: 1px;"/><path class="xgrid crisp" transform="translate(402.33,0)" d="M0,70v470" style="stroke: rgb(238, 238, 238); stroke-opacity: 1; stroke-width: 1px;"/><path class="xgrid crisp" transform="translate(516.3399999999999,0)" d="M0,70v470" style="stroke: rgb(238, 238, 238); stroke-opacity: 1; stroke-width: 1px;"/><path class="xgrid crisp" transform="translate(630.66,0)" d="M0,70v470" style="stroke: rgb(238, 238, 238); stroke-opacity: 1; stroke-width: 1px;"/><path class="xgrid crisp" transform="translate(744.67,0)" d="M0,70v470" style="stroke: rgb(238, 238, 238); stroke-opacity: 1; stroke-width: 1px;"/><path class="xgrid crisp" transform="translate(858.68,0)" d="M0,70v470" style="stroke: rgb(238, 238, 238); stroke-opacity: 1; stroke-width: 1px;"/></g><g class="y"/></g><g class="zerolinelayer"><path class="yzl zl crisp" transform="translate(0,540)" d="M60,0h903" style="stroke: rgb(68, 68, 68); stroke-opacity: 1; stroke-width: 1px;"/></g><path class="xlines-below"/><path class="ylines-below"/><g class="overlines-below"/><g class="xaxislayer-below"/><g class="yaxislayer-below"/><g class="overaxes-below"/><g class="plot" transform="translate(60,70)" clip-path="url(#clip9d4f72xyplot)"><g class="scatterlayer mlayer"><g class="trace scatter traceeb6eaa" style="stroke-miterlimit: 2;"><g class="fills"><g><path class="js-fill" d="M903,470L-9.68,470L-9.68,400.94L18.74,401.18L28.42,402.6L37.79,404.28L47.48,404.52L56.85,403.66L66.53,403.7L76.21,404.07L85.58,403.16L95.27,403.19L104.64,404.32L124,408.22L132.75,410.54L142.43,410.83L151.8,410.2L161.48,409.88L170.85,410.53L190.22,410.84L199.59,411.23L209.27,411.65L218.64,410.89L238.01,408.82L246.76,407.74L256.44,407.4L265.81,408.03L275.49,408.57L284.86,407.9L304.23,409.01L313.6,410.33L342.33,411.09L352.02,411.01L379.82,410.36L389.5,411.28L408.55,412.73L418.23,412.58L437.29,411.64L446.66,411.85L494.14,415.65L503.82,415.58L513.19,416.57L522.87,416.47L532.55,416.88L541.92,418.2L551.61,419.57L560.98,420.13L598.77,419.46L608.14,418.65L617.83,418.42L627.2,417.36L674.99,416.46L684.67,418.93L779.62,440.77L788.99,443.13L826.79,446.98L836.16,448.81L855.21,452.98L864.89,455.39L903,464.48" style="fill: rgb(255, 144, 0); fill-opacity: 0.5; stroke-width: 0;"/></g><g><path class="js-fill" d="M-9.68,392.81L18.74,393.35L28.42,394.9L37.79,396.77L47.48,397.13L56.85,396.4L66.53,396.52L76.21,396.94L85.58,396.13L95.27,396.21L104.64,397.29L124,401.03L132.75,403.2L142.43,403.38L151.8,402.65L161.48,402.25L170.85,402.93L199.59,403.46L209.27,403.84L228.33,402.47L238.01,401.17L246.76,400.07L256.44,399.69L275.49,400.96L284.86,400.41L304.23,401.6L313.6,402.96L332.65,403.71L342.33,403.7L360.76,403.26L370.45,402.88L398.87,404.53L408.55,405.32L418.23,405.24L427.61,404.4L446.66,404.46L456.34,405.19L494.14,407.21L503.82,407.11L513.19,407.86L522.87,407.56L532.55,407.77L541.92,408.97L560.98,410.69L570.66,410.71L608.14,410.39L617.83,410.24L627.2,409.46L636.88,409.58L674.99,409.32L684.67,411.78L760.57,428.29L769.94,430.21L788.99,434.45L798.68,435.23L826.79,437.61L836.16,439.24L845.84,441.05L855.21,443.67L903,455.36L903,464.48L864.89,455.39L855.21,452.98L836.16,448.81L826.79,446.98L788.99,443.13L779.62,440.77L684.67,418.93L674.99,416.46L627.2,417.36L617.83,418.42L608.14,418.65L598.77,419.46L560.98,420.13L551.61,419.57L541.92,418.2L532.55,416.88L522.87,416.47L513.19,416.57L503.82,415.58L494.14,415.65L446.66,411.85L437.29,411.64L418.23,412.58L408.55,412.73L389.5,411.28L379.82,410.36L352.02,411.01L342.33,411.09L313.6,410.33L304.23,409.01L284.86,407.9L275.49,408.57L265.81,408.03L256.44,407.4L246.76,407.74L238.01,408.82L218.64,410.89L209.27,411.65L199.59,411.23L190.22,410.84L170.85,410.53L161.48,409.88L151.8,410.2L142.43,410.83L132.75,410.54L124,408.22L104.64,404.32L95.27,403.19L85.58,403.16L76.21,404.07L66.53,403.7L56.85,403.66L47.48,404.52L37.79,404.28L28.42,402.6L18.74,401.18L-9.68,400.94Z" style="fill: rgb(255, 171, 46); fill-opacity: 0.5; stroke-width: 0;"/></g></g><g class="errorbars"/><g class="lines"><path class="js-line" d="M-9.68,400.94L18.74,401.18L28.42,402.6L37.79,404.28L47.48,404.52L56.85,403.66L66.53,403.7L76.21,404.07L85.58,403.16L95.27,403.19L104.64,404.32L124,408.22L132.75,410.54L142.43,410.83L151.8,410.2L161.48,409.88L170.85,410.53L190.22,410.84L199.59,411.23L209.27,411.65L218.64,410.89L238.01,408.82L246.76,407.74L256.44,407.4L265.81,408.03L275.49,408.57L284.86,407.9L304.23,409.01L313.6,410.33L342.33,411.09L352.02,411.01L379.82,410.36L389.5,411.28L408.55,412.73L418.23,412.58L437.29,411.64L446.66,411.85L494.14,415.65L503.82,415.58L513.19,416.57L522.87,416.47L532.55,416.88L541.92,418.2L551.61,419.57L560.98,420.13L598.77,419.46L608.14,418.65L617.83,418.42L627.2,417.36L674.99,416.46L684.67,418.93L779.62,440.77L788.99,443.13L826.79,446.98L836.16,448.81L855.21,452.98L864.89,455.39L903,464.48" style="vector-effect: none; fill: none; stroke: rgb(255, 144, 0); stroke-opacity: 1; stroke-width: 1px; opacity: 1;"/></g><g class="points"/><g class="text"/></g><g class="trace scatter tracedbf404" style="stroke-miterlimit: 2;"><g class="fills"><g><path class="js-fill" d="M-9.68,349.45L9.68,353.13L18.74,353.54L37.79,358.53L47.48,359.82L66.53,360.22L76.21,361L85.58,359.43L95.27,358.61L104.64,358.61L114.32,362.5L124,366.8L132.75,372.04L142.43,374.12L151.8,375.2L161.48,376.74L170.85,379.35L180.54,381.08L190.22,383.65L209.27,390.97L218.64,393.45L238.01,391.54L246.76,390.55L256.44,390.25L265.81,390.95L275.49,391.78L284.86,391.32L304.23,392.23L313.6,393.4L332.65,393.82L342.33,393.65L379.82,392.4L389.5,393.07L418.23,394.25L427.61,393.44L446.66,393.64L456.34,394.34L484.77,396.57L494.14,396.54L522.87,396.95L532.55,397.18L560.98,400.25L570.66,400.31L608.14,399.91L617.83,399.54L627.2,398.71L636.88,398.78L674.99,398.6L684.67,401.18L788.99,425.03L798.68,425.86L826.79,428.47L836.16,430.11L855.21,434.59L864.89,436.9L903,445.87L903,455.36L855.21,443.67L845.84,441.05L836.16,439.24L826.79,437.61L798.68,435.23L788.99,434.45L769.94,430.21L760.57,428.29L684.67,411.78L674.99,409.32L636.88,409.58L627.2,409.46L617.83,410.24L608.14,410.39L570.66,410.71L560.98,410.69L541.92,408.97L532.55,407.77L522.87,407.56L513.19,407.86L503.82,407.11L494.14,407.21L456.34,405.19L446.66,404.46L427.61,404.4L418.23,405.24L408.55,405.32L398.87,404.53L370.45,402.88L360.76,403.26L342.33,403.7L332.65,403.71L313.6,402.96L304.23,401.6L284.86,400.41L275.49,400.96L256.44,399.69L246.76,400.07L238.01,401.17L228.33,402.47L209.27,403.84L199.59,403.46L170.85,402.93L161.48,402.25L151.8,402.65L142.43,403.38L132.75,403.2L124,401.03L104.64,397.29L95.27,396.21L85.58,396.13L76.21,396.94L66.53,396.52L56.85,396.4L47.48,397.13L37.79,396.77L28.42,394.9L18.74,393.35L-9.68,392.81Z" style="fill: rgb(255, 199, 76); fill-opacity: 0.5; stroke-width: 0;"/></g></g><g class="errorbars"/><g class="lines"><path class="js-line" d="M-9.68,392.81L18.74,393.35L28.42,394.9L37.79,396.77L47.48,397.13L56.85,396.4L66.53,396.52L76.21,396.94L85.58,396.13L95.27,396.21L104.64,397.29L124,401.03L132.75,403.2L142.43,403.38L151.8,402.65L161.48,402.25L170.85,402.93L199.59,403.46L209.27,403.84L228.33,402.47L238.01,401.17L246.76,400.07L256.44,399.69L275.49,400.96L284.86,400.41L304.23,401.6L313.6,402.96L332.65,403.71L342.33,403.7L360.76,403.26L370.45,402.88L398.87,404.53L408.55,405.32L418.23,405.24L427.61,404.4L446.66,404.46L456.34,405.19L494.14,407.21L503.82,407.11L513.19,407.86L522.87,407.56L532.55,407.77L541.92,408.97L560.98,410.69L570.66,410.71L608.14,410.39L617.83,410.24L627.2,409.46L636.88,409.58L674.99,409.32L684.67,411.78L760.57,428.29L769.94,430.21L788.99,434.45L798.68,435.23L826.79,437.61L836.16,439.24L845.84,441.05L855.21,443.67L903,455.36" style="vector-effect: none; fill: none; stroke: rgb(255, 171, 46); stroke-opacity: 1; stroke-width: 1px; opacity: 1;"/></g><g class="points"/><g class="text"/></g><g class="trace scatter tracee4f37c" style="stroke-miterlimit: 2;"><g class="fills"><g><path class="js-fill" d="M-9.68,336.99L0,337.72L9.68,339.75L18.74,340.04L28.42,342.36L37.79,344.53L47.48,345.56L66.53,345.2L76.21,344.75L85.58,342.38L95.27,340.96L104.64,339.88L114.32,342.73L124,346.34L132.75,351.02L142.43,352.56L151.8,353.16L170.85,356.03L180.54,358.19L190.22,361.36L199.59,365.84L218.64,372.51L228.33,371.52L246.76,365.69L256.44,365.04L275.49,365.6L284.86,364.18L304.23,362.53L313.6,362.12L342.33,357.16L352.02,357.32L360.76,357.11L370.45,355.46L398.87,353.5L408.55,352.93L418.23,351.32L427.61,348.86L446.66,348.93L456.34,349.67L475.08,351.2L484.77,351.95L522.87,349.24L532.55,349.55L541.92,351.94L551.61,352.66L589.09,349.28L598.77,347.88L617.83,348.54L627.2,349.62L636.88,352.02L646.56,353.36L655.93,354.56L665.62,354.52L674.99,355.7L684.67,358.89L703.1,365.29L712.78,368.52L722.15,371.83L731.83,376.05L741.2,377.58L750.89,379.97L769.94,385.86L779.62,390.45L788.99,393.78L798.68,396.01L808.36,395.43L817.1,396.15L836.16,397.96L845.84,398.14L855.21,400.99L864.89,401.92L883.95,403.46L893.63,403.72L903,404.82L903,445.87L864.89,436.9L855.21,434.59L836.16,430.11L826.79,428.47L798.68,425.86L788.99,425.03L684.67,401.18L674.99,398.6L636.88,398.78L627.2,398.71L617.83,399.54L608.14,399.91L570.66,400.31L560.98,400.25L532.55,397.18L522.87,396.95L494.14,396.54L484.77,396.57L456.34,394.34L446.66,393.64L427.61,393.44L418.23,394.25L389.5,393.07L379.82,392.4L342.33,393.65L332.65,393.82L313.6,393.4L304.23,392.23L284.86,391.32L275.49,391.78L265.81,390.95L256.44,390.25L246.76,390.55L238.01,391.54L218.64,393.45L209.27,390.97L190.22,383.65L180.54,381.08L170.85,379.35L161.48,376.74L151.8,375.2L142.43,374.12L132.75,372.04L124,366.8L114.32,362.5L104.64,358.61L95.27,358.61L85.58,359.43L76.21,361L66.53,360.22L47.48,359.82L37.79,358.53L18.74,353.54L9.68,353.13L-9.68,349.45Z" style="fill: rgb(198, 198, 198); fill-opacity: 0.5; stroke-width: 0;"/></g></g><g class="errorbars"/><g class="lines"><path class="js-line" d="M-9.68,349.45L9.68,353.13L18.74,353.54L37.79,358.53L47.48,359.82L66.53,360.22L76.21,361L85.58,359.43L95.27,358.61L104.64,358.61L114.32,362.5L124,366.8L132.75,372.04L142.43,374.12L151.8,375.2L161.48,376.74L170.85,379.35L180.54,381.08L190.22,383.65L209.27,390.97L218.64,393.45L238.01,391.54L246.76,390.55L256.44,390.25L265.81,390.95L275.49,391.78L284.86,391.32L304.23,392.23L313.6,393.4L332.65,393.82L342.33,393.65L379.82,392.4L389.5,393.07L418.23,394.25L427.61,393.44L446.66,393.64L456.34,394.34L484.77,396.57L494.14,396.54L522.87,396.95L532.55,397.18L560.98,400.25L570.66,400.31L608.14,399.91L617.83,399.54L627.2,398.71L636.88,398.78L674.99,398.6L684.67,401.18L788.99,425.03L798.68,425.86L826.79,428.47L836.16,430.11L855.21,434.59L864.89,436.9L903,445.87" style="vector-effect: none; fill: none; stroke: rgb(255, 199, 76); stroke-opacity: 1; stroke-width: 1px; opacity: 1;"/></g><g class="points"/><g class="text"/></g><g class="trace scatter traceed8ee9" style="stroke-miterlimit: 2;"><g class="fills"><g><path class="js-fill" d="M-9.68,227.46L0,228.23L9.68,230.79L47.48,236.34L56.85,236.79L76.21,237.82L85.58,236.31L104.64,233.16L114.32,236.07L124,239.76L132.75,244.03L142.43,245.43L151.8,245.36L161.48,246.01L170.85,248L180.54,249.61L190.22,253.22L199.59,258.91L209.27,262.71L218.64,266.68L228.33,266.16L238.01,262.34L246.76,259.97L256.44,259.9L265.81,260.92L275.49,260.31L284.86,257.93L304.23,256.52L313.6,255.84L342.33,253.13L352.02,254.4L360.76,256.64L370.45,255.91L379.82,256.26L389.5,259.26L408.55,263.12L418.23,263.71L427.61,263.08L437.29,263.34L456.34,267.12L466.02,272.17L475.08,274.32L484.77,278.97L494.14,281.9L503.82,281.52L513.19,282.77L522.87,282.32L532.55,282.52L541.92,284.24L551.61,285.35L560.98,283.61L570.66,281.41L580.34,278.16L589.09,275.62L598.77,271.95L617.83,269.69L627.2,269.9L636.88,272.53L646.56,273.17L655.93,274.61L665.62,274.79L674.99,275.32L684.67,279.72L694.35,284.43L703.1,285.93L712.78,288.12L722.15,289.33L731.83,292.78L741.2,293.14L750.89,294.4L760.57,297.46L769.94,300.49L779.62,305.11L788.99,309.03L798.68,311.88L808.36,310.01L817.1,312.44L836.16,318.05L845.84,321.06L855.21,327.41L864.89,331.23L883.95,336.41L893.63,338.38L903,341.1L903,404.82L893.63,403.72L883.95,403.46L864.89,401.92L855.21,400.99L845.84,398.14L836.16,397.96L817.1,396.15L808.36,395.43L798.68,396.01L788.99,393.78L779.62,390.45L769.94,385.86L750.89,379.97L741.2,377.58L731.83,376.05L722.15,371.83L712.78,368.52L703.1,365.29L684.67,358.89L674.99,355.7L665.62,354.52L655.93,354.56L646.56,353.36L636.88,352.02L627.2,349.62L617.83,348.54L598.77,347.88L589.09,349.28L551.61,352.66L541.92,351.94L532.55,349.55L522.87,349.24L484.77,351.95L475.08,351.2L456.34,349.67L446.66,348.93L427.61,348.86L418.23,351.32L408.55,352.93L398.87,353.5L370.45,355.46L360.76,357.11L352.02,357.32L342.33,357.16L313.6,362.12L304.23,362.53L284.86,364.18L275.49,365.6L256.44,365.04L246.76,365.69L228.33,371.52L218.64,372.51L199.59,365.84L190.22,361.36L180.54,358.19L170.85,356.03L151.8,353.16L142.43,352.56L132.75,351.02L124,346.34L114.32,342.73L104.64,339.88L95.27,340.96L85.58,342.38L76.21,344.75L66.53,345.2L47.48,345.56L37.79,344.53L28.42,342.36L18.74,340.04L9.68,339.75L0,337.72L-9.68,336.99Z" style="fill: rgb(94, 94, 94); fill-opacity: 0.5; stroke-width: 0;"/></g></g><g class="errorbars"/><g class="lines"><path class="js-line" d="M-9.68,336.99L0,337.72L9.68,339.75L18.74,340.04L28.42,342.36L37.79,344.53L47.48,345.56L66.53,345.2L76.21,344.75L85.58,342.38L95.27,340.96L104.64,339.88L114.32,342.73L124,346.34L132.75,351.02L142.43,352.56L151.8,353.16L170.85,356.03L180.54,358.19L190.22,361.36L199.59,365.84L218.64,372.51L228.33,371.52L246.76,365.69L256.44,365.04L275.49,365.6L284.86,364.18L304.23,362.53L313.6,362.12L342.33,357.16L352.02,357.32L360.76,357.11L370.45,355.46L398.87,353.5L408.55,352.93L418.23,351.32L427.61,348.86L446.66,348.93L456.34,349.67L475.08,351.2L484.77,351.95L522.87,349.24L532.55,349.55L541.92,351.94L551.61,352.66L589.09,349.28L598.77,347.88L617.83,348.54L627.2,349.62L636.88,352.02L646.56,353.36L655.93,354.56L665.62,354.52L674.99,355.7L684.67,358.89L703.1,365.29L712.78,368.52L722.15,371.83L731.83,376.05L741.2,377.58L750.89,379.97L769.94,385.86L779.62,390.45L788.99,393.78L798.68,396.01L808.36,395.43L817.1,396.15L836.16,397.96L845.84,398.14L855.21,400.99L864.89,401.92L883.95,403.46L893.63,403.72L903,404.82" style="vector-effect: none; fill: none; stroke: rgb(198, 198, 198); stroke-opacity: 1; stroke-width: 1px; opacity: 1;"/></g><g class="points"/><g class="text"/></g><g class="trace scatter traceea0864" style="stroke-miterlimit: 2;"><g class="fills"><g><path class="js-fill" d="M-9.68,161.05L0,160.44L9.68,164.11L37.79,166.67L47.48,167.12L66.53,169.14L76.21,170.66L85.58,171.33L95.27,169.21L104.64,166.94L114.32,168.66L124,171.93L132.75,177.79L142.43,180.89L151.8,180.74L180.54,189.59L190.22,193.84L199.59,201.83L209.27,206.64L218.64,212.65L228.33,215.71L246.76,207.05L256.44,207.31L265.81,209.69L275.49,208.43L284.86,204.64L294.54,202.49L304.23,201.89L313.6,198.93L342.33,192.61L352.02,195.93L360.76,202.05L370.45,201.95L379.82,202.53L389.5,207.19L408.55,215.61L418.23,219.05L437.29,222.55L446.66,225.7L456.34,230.41L466.02,238.09L475.08,240.57L484.77,246.93L494.14,251.42L503.82,251.97L513.19,254.6L522.87,254.73L532.55,253.63L541.92,255.68L551.61,257.67L560.98,255.06L570.66,252.43L580.34,248.36L589.09,245.19L598.77,239.77L608.14,238.26L617.83,235.44L627.2,233.99L636.88,236.05L646.56,234.75L655.93,235L665.62,233.5L674.99,232.88L694.35,239.49L703.1,237.95L712.78,239.58L722.15,240.09L731.83,243.17L741.2,242.94L750.89,241.93L760.57,245.25L769.94,249.17L779.62,254.61L798.68,261.05L808.36,258.19L817.1,263.14L826.79,266.74L845.84,275.7L855.21,284.33L874.58,296.63L883.95,299.42L893.63,303.08L903,308.56L903,341.1L893.63,338.38L883.95,336.41L864.89,331.23L855.21,327.41L845.84,321.06L836.16,318.05L817.1,312.44L808.36,310.01L798.68,311.88L788.99,309.03L779.62,305.11L769.94,300.49L760.57,297.46L750.89,294.4L741.2,293.14L731.83,292.78L722.15,289.33L712.78,288.12L703.1,285.93L694.35,284.43L684.67,279.72L674.99,275.32L665.62,274.79L655.93,274.61L646.56,273.17L636.88,272.53L627.2,269.9L617.83,269.69L598.77,271.95L589.09,275.62L580.34,278.16L570.66,281.41L560.98,283.61L551.61,285.35L541.92,284.24L532.55,282.52L522.87,282.32L513.19,282.77L503.82,281.52L494.14,281.9L484.77,278.97L475.08,274.32L466.02,272.17L456.34,267.12L437.29,263.34L427.61,263.08L418.23,263.71L408.55,263.12L389.5,259.26L379.82,256.26L370.45,255.91L360.76,256.64L352.02,254.4L342.33,253.13L313.6,255.84L304.23,256.52L284.86,257.93L275.49,260.31L265.81,260.92L256.44,259.9L246.76,259.97L238.01,262.34L228.33,266.16L218.64,266.68L209.27,262.71L199.59,258.91L190.22,253.22L180.54,249.61L170.85,248L161.48,246.01L151.8,245.36L142.43,245.43L132.75,244.03L124,239.76L114.32,236.07L104.64,233.16L85.58,236.31L76.21,237.82L56.85,236.79L47.48,236.34L9.68,230.79L0,228.23L-9.68,227.46Z" style="fill: rgb(0, 0, 0); fill-opacity: 0.5; stroke-width: 0;"/></g></g><g class="errorbars"/><g class="lines"><path class="js-line" d="M-9.68,227.46L0,228.23L9.68,230.79L47.48,236.34L56.85,236.79L76.21,237.82L85.58,236.31L104.64,233.16L114.32,236.07L124,239.76L132.75,244.03L142.43,245.43L151.8,245.36L161.48,246.01L170.85,248L180.54,249.61L190.22,253.22L199.59,258.91L209.27,262.71L218.64,266.68L228.33,266.16L238.01,262.34L246.76,259.97L256.44,259.9L265.81,260.92L275.49,260.31L284.86,257.93L304.23,256.52L313.6,255.84L342.33,253.13L352.02,254.4L360.76,256.64L370.45,255.91L379.82,256.26L389.5,259.26L408.55,263.12L418.23,263.71L427.61,263.08L437.29,263.34L456.34,267.12L466.02,272.17L475.08,274.32L484.77,278.97L494.14,281.9L503.82,281.52L513.19,282.77L522.87,282.32L532.55,282.52L541.92,284.24L551.61,285.35L560.98,283.61L570.66,281.41L580.34,278.16L589.09,275.62L598.77,271.95L617.83,269.69L627.2,269.9L636.88,272.53L646.56,273.17L655.93,274.61L665.62,274.79L674.99,275.32L684.67,279.72L694.35,284.43L703.1,285.93L712.78,288.12L722.15,289.33L731.83,292.78L741.2,293.14L750.89,294.4L760.57,297.46L769.94,300.49L779.62,305.11L788.99,309.03L798.68,311.88L808.36,310.01L817.1,312.44L836.16,318.05L845.84,321.06L855.21,327.41L864.89,331.23L883.95,336.41L893.63,338.38L903,341.1" style="vector-effect: none; fill: none; stroke: rgb(94, 94, 94); stroke-opacity: 1; stroke-width: 1px; opacity: 1;"/></g><g class="points"/><g class="text"/></g><g class="trace scatter trace0fbc5c" style="stroke-miterlimit: 2;"><g class="fills"><g><path class="js-fill" d="M-9.68,160.27L0,159.64L9.68,163.28L37.79,165.73L47.48,166.18L66.53,168.16L76.21,169.65L85.58,170.28L95.27,168.1L104.64,165.79L114.32,167.51L124,170.73L132.75,176.57L142.43,179.64L151.8,179.46L180.54,188.22L190.22,192.45L199.59,200.43L209.27,205.22L218.64,211.21L228.33,214.25L246.76,205.6L256.44,205.89L265.81,208.27L275.49,207.01L284.86,203.22L294.54,201.09L304.23,200.51L313.6,197.58L342.33,191.38L352.02,194.73L360.76,200.88L370.45,200.79L379.82,201.39L389.5,206.08L408.55,214.51L418.23,217.94L437.29,221.39L446.66,224.5L456.34,229.19L466.02,236.86L475.08,239.32L484.77,245.69L494.14,250.17L503.82,250.71L513.19,253.33L522.87,253.45L532.55,252.34L541.92,254.38L551.61,256.36L560.98,253.75L570.66,251.11L580.34,247.03L589.09,243.85L598.77,238.44L608.14,236.93L617.83,234.1L627.2,232.67L636.88,234.73L646.56,233.46L655.93,233.71L665.62,232.23L674.99,231.62L694.35,238.26L703.1,236.74L712.78,238.39L722.15,238.93L731.83,242.03L741.2,241.81L750.89,240.83L760.57,244.16L769.94,248.12L779.62,253.59L798.68,260.07L808.36,257.22L817.1,262.17L826.79,265.77L845.84,274.74L855.21,283.37L874.58,295.67L883.95,298.45L893.63,302.1L903,307.61L903,308.56L893.63,303.08L883.95,299.42L874.58,296.63L855.21,284.33L845.84,275.7L826.79,266.74L817.1,263.14L808.36,258.19L798.68,261.05L779.62,254.61L769.94,249.17L760.57,245.25L750.89,241.93L741.2,242.94L731.83,243.17L722.15,240.09L712.78,239.58L703.1,237.95L694.35,239.49L674.99,232.88L665.62,233.5L655.93,235L646.56,234.75L636.88,236.05L627.2,233.99L617.83,235.44L608.14,238.26L598.77,239.77L589.09,245.19L580.34,248.36L570.66,252.43L560.98,255.06L551.61,257.67L541.92,255.68L532.55,253.63L522.87,254.73L513.19,254.6L503.82,251.97L494.14,251.42L484.77,246.93L475.08,240.57L466.02,238.09L456.34,230.41L446.66,225.7L437.29,222.55L418.23,219.05L408.55,215.61L389.5,207.19L379.82,202.53L370.45,201.95L360.76,202.05L352.02,195.93L342.33,192.61L313.6,198.93L304.23,201.89L294.54,202.49L284.86,204.64L275.49,208.43L265.81,209.69L256.44,207.31L246.76,207.05L228.33,215.71L218.64,212.65L209.27,206.64L199.59,201.83L190.22,193.84L180.54,189.59L151.8,180.74L142.43,180.89L132.75,177.79L124,171.93L114.32,168.66L104.64,166.94L95.27,169.21L85.58,171.33L76.21,170.66L66.53,169.14L47.48,167.12L37.79,166.67L9.68,164.11L0,160.44L-9.68,161.05Z" style="fill: rgb(148, 255, 175); fill-opacity: 0.5; stroke-width: 0;"/></g></g><g class="errorbars"/><g class="lines"><path class="js-line" d="M-9.68,161.05L0,160.44L9.68,164.11L37.79,166.67L47.48,167.12L66.53,169.14L76.21,170.66L85.58,171.33L95.27,169.21L104.64,166.94L114.32,168.66L124,171.93L132.75,177.79L142.43,180.89L151.8,180.74L180.54,189.59L190.22,193.84L199.59,201.83L209.27,206.64L218.64,212.65L228.33,215.71L246.76,207.05L256.44,207.31L265.81,209.69L275.49,208.43L284.86,204.64L294.54,202.49L304.23,201.89L313.6,198.93L342.33,192.61L352.02,195.93L360.76,202.05L370.45,201.95L379.82,202.53L389.5,207.19L408.55,215.61L418.23,219.05L437.29,222.55L446.66,225.7L456.34,230.41L466.02,238.09L475.08,240.57L484.77,246.93L494.14,251.42L503.82,251.97L513.19,254.6L522.87,254.73L532.55,253.63L541.92,255.68L551.61,257.67L560.98,255.06L570.66,252.43L580.34,248.36L589.09,245.19L598.77,239.77L608.14,238.26L617.83,235.44L627.2,233.99L636.88,236.05L646.56,234.75L655.93,235L665.62,233.5L674.99,232.88L694.35,239.49L703.1,237.95L712.78,239.58L722.15,240.09L731.83,243.17L741.2,242.94L750.89,241.93L760.57,245.25L769.94,249.17L779.62,254.61L798.68,261.05L808.36,258.19L817.1,263.14L826.79,266.74L845.84,275.7L855.21,284.33L874.58,296.63L883.95,299.42L893.63,303.08L903,308.56" style="vector-effect: none; fill: none; stroke: rgb(0, 0, 0); stroke-opacity: 1; stroke-width: 1px; opacity: 1;"/></g><g class="points"/><g class="text"/></g><g class="trace scatter trace89de5a" style="stroke-miterlimit: 2;"><g class="fills"><g><path class="js-fill" d="M-9.68,131.75L0,130.78L9.68,133.96L66.53,136.64L76.21,137.84L85.58,138.16L95.27,135.65L104.64,133.26L114.32,134.87L124,138.06L132.75,143.83L142.43,146.84L151.8,146.59L180.54,155.2L190.22,159.54L199.59,167.56L209.27,172.25L218.64,178.2L228.33,181.2L246.76,172.68L256.44,173.13L265.81,175.57L275.49,174.33L284.86,170.61L294.54,168.51L304.23,167.83L313.6,164.82L342.33,158.55L352.02,161.89L360.76,167.97L370.45,167.74L379.82,168.23L389.5,172.88L408.55,181.45L418.23,184.99L437.29,188.43L446.66,191.44L456.34,196.08L466.02,203.66L475.08,206.1L484.77,212.46L494.14,216.92L503.82,217.49L513.19,219.96L522.87,219.94L532.55,218.67L541.92,220.72L551.61,222.79L560.98,220.33L570.66,217.85L580.34,214.03L589.09,210.98L598.77,205.63L608.14,204.18L617.83,201.49L627.2,200.18L636.88,202.31L646.56,201.07L655.93,201.4L665.62,199.92L674.99,199.32L694.35,205.94L703.1,204.35L712.78,206.02L722.15,206.66L731.83,209.69L741.2,209.46L750.89,208.49L760.57,211.79L769.94,215.8L779.62,221.29L798.68,227.67L808.36,224.74L817.1,229.73L826.79,233.41L845.84,242.61L855.21,251.41L874.58,264.07L883.95,267.02L893.63,270.88L903,276.64L903,307.61L893.63,302.1L883.95,298.45L874.58,295.67L855.21,283.37L845.84,274.74L826.79,265.77L817.1,262.17L808.36,257.22L798.68,260.07L779.62,253.59L769.94,248.12L760.57,244.16L750.89,240.83L741.2,241.81L731.83,242.03L722.15,238.93L712.78,238.39L703.1,236.74L694.35,238.26L674.99,231.62L665.62,232.23L655.93,233.71L646.56,233.46L636.88,234.73L627.2,232.67L617.83,234.1L608.14,236.93L598.77,238.44L589.09,243.85L580.34,247.03L570.66,251.11L560.98,253.75L551.61,256.36L541.92,254.38L532.55,252.34L522.87,253.45L513.19,253.33L503.82,250.71L494.14,250.17L484.77,245.69L475.08,239.32L466.02,236.86L456.34,229.19L446.66,224.5L437.29,221.39L418.23,217.94L408.55,214.51L389.5,206.08L379.82,201.39L370.45,200.79L360.76,200.88L352.02,194.73L342.33,191.38L313.6,197.58L304.23,200.51L294.54,201.09L284.86,203.22L275.49,207.01L265.81,208.27L256.44,205.89L246.76,205.6L228.33,214.25L218.64,211.21L209.27,205.22L199.59,200.43L190.22,192.45L180.54,188.22L151.8,179.46L142.43,179.64L132.75,176.57L124,170.73L114.32,167.51L104.64,165.79L95.27,168.1L85.58,170.28L76.21,169.65L66.53,168.16L47.48,166.18L37.79,165.73L9.68,163.28L0,159.64L-9.68,160.27Z" style="fill: rgb(119, 234, 148); fill-opacity: 0.5; stroke-width: 0;"/></g></g><g class="errorbars"/><g class="lines"><path class="js-line" d="M-9.68,160.27L0,159.64L9.68,163.28L37.79,165.73L47.48,166.18L66.53,168.16L76.21,169.65L85.58,170.28L95.27,168.1L104.64,165.79L114.32,167.51L124,170.73L132.75,176.57L142.43,179.64L151.8,179.46L180.54,188.22L190.22,192.45L199.59,200.43L209.27,205.22L218.64,211.21L228.33,214.25L246.76,205.6L256.44,205.89L265.81,208.27L275.49,207.01L284.86,203.22L294.54,201.09L304.23,200.51L313.6,197.58L342.33,191.38L352.02,194.73L360.76,200.88L370.45,200.79L379.82,201.39L389.5,206.08L408.55,214.51L418.23,217.94L437.29,221.39L446.66,224.5L456.34,229.19L466.02,236.86L475.08,239.32L484.77,245.69L494.14,250.17L503.82,250.71L513.19,253.33L522.87,253.45L532.55,252.34L541.92,254.38L551.61,256.36L560.98,253.75L570.66,251.11L580.34,247.03L589.09,243.85L598.77,238.44L608.14,236.93L617.83,234.1L627.2,232.67L636.88,234.73L646.56,233.46L655.93,233.71L665.62,232.23L674.99,231.62L694.35,238.26L703.1,236.74L712.78,238.39L722.15,238.93L731.83,242.03L741.2,241.81L750.89,240.83L760.57,244.16L769.94,248.12L779.62,253.59L798.68,260.07L808.36,257.22L817.1,262.17L826.79,265.77L845.84,274.74L855.21,283.37L874.58,295.67L883.95,298.45L893.63,302.1L903,307.61" style="vector-effect: none; fill: none; stroke: rgb(148, 255, 175); stroke-opacity: 1; stroke-width: 1px; opacity: 1;"/></g><g class="points"/><g class="text"/></g><g class="trace scatter tracece33bf" style="stroke-miterlimit: 2;"><g class="fills"><g><path class="js-fill" d="M-9.68,120.52L0,119.7L9.68,122.67L66.53,122.92L76.21,123.71L85.58,123.87L95.27,121.06L104.64,118.46L114.32,120.17L124,123.56L132.75,129.43L142.43,132.81L151.8,132.86L180.54,142.67L190.22,147.09L199.59,155.02L209.27,159.61L218.64,165.44L228.33,168L246.76,159.35L256.44,159.57L265.81,161.87L275.49,160.52L284.86,156.9L294.54,155.06L304.23,154.66L313.6,151.89L342.33,146.25L352.02,149.72L360.76,155.6L370.45,155.46L379.82,156.07L389.5,160.78L408.55,168.9L418.23,172.37L437.29,175.48L446.66,178.48L456.34,183.23L466.02,190.61L475.08,193.12L484.77,199.63L494.14,204.17L503.82,204.79L513.19,207.28L522.87,207.38L532.55,205.99L541.92,207.91L551.61,209.98L560.98,207.57L570.66,205.12L580.34,201.46L589.09,198.57L598.77,193.33L608.14,191.8L617.83,188.99L627.2,187.6L636.88,189.54L646.56,188.44L655.93,189.19L674.99,187.48L684.67,190.65L694.35,194.39L703.1,193.02L712.78,194.76L722.15,195.61L731.83,198.94L741.2,199.11L750.89,198.6L760.57,202.01L769.94,205.79L779.62,211.16L798.68,217.51L808.36,214.52L817.1,219.4L826.79,222.98L845.84,231.86L855.21,240.51L874.58,252.72L883.95,255.82L893.63,259.4L903,264.84L903,276.64L893.63,270.88L883.95,267.02L874.58,264.07L855.21,251.41L845.84,242.61L826.79,233.41L817.1,229.73L808.36,224.74L798.68,227.67L779.62,221.29L769.94,215.8L760.57,211.79L750.89,208.49L741.2,209.46L731.83,209.69L722.15,206.66L712.78,206.02L703.1,204.35L694.35,205.94L674.99,199.32L665.62,199.92L655.93,201.4L646.56,201.07L636.88,202.31L627.2,200.18L617.83,201.49L608.14,204.18L598.77,205.63L589.09,210.98L580.34,214.03L570.66,217.85L560.98,220.33L551.61,222.79L541.92,220.72L532.55,218.67L522.87,219.94L513.19,219.96L503.82,217.49L494.14,216.92L484.77,212.46L475.08,206.1L466.02,203.66L456.34,196.08L446.66,191.44L437.29,188.43L418.23,184.99L408.55,181.45L389.5,172.88L379.82,168.23L370.45,167.74L360.76,167.97L352.02,161.89L342.33,158.55L313.6,164.82L304.23,167.83L294.54,168.51L284.86,170.61L275.49,174.33L265.81,175.57L256.44,173.13L246.76,172.68L228.33,181.2L218.64,178.2L209.27,172.25L199.59,167.56L190.22,159.54L180.54,155.2L151.8,146.59L142.43,146.84L132.75,143.83L124,138.06L114.32,134.87L104.64,133.26L95.27,135.65L85.58,138.16L76.21,137.84L66.53,136.64L9.68,133.96L0,130.78L-9.68,131.75Z" style="fill: rgb(90, 205, 122); fill-opacity: 0.5; stroke-width: 0;"/></g></g><g class="errorbars"/><g class="lines"><path class="js-line" d="M-9.68,131.75L0,130.78L9.68,133.96L66.53,136.64L76.21,137.84L85.58,138.16L95.27,135.65L104.64,133.26L114.32,134.87L124,138.06L132.75,143.83L142.43,146.84L151.8,146.59L180.54,155.2L190.22,159.54L199.59,167.56L209.27,172.25L218.64,178.2L228.33,181.2L246.76,172.68L256.44,173.13L265.81,175.57L275.49,174.33L284.86,170.61L294.54,168.51L304.23,167.83L313.6,164.82L342.33,158.55L352.02,161.89L360.76,167.97L370.45,167.74L379.82,168.23L389.5,172.88L408.55,181.45L418.23,184.99L437.29,188.43L446.66,191.44L456.34,196.08L466.02,203.66L475.08,206.1L484.77,212.46L494.14,216.92L503.82,217.49L513.19,219.96L522.87,219.94L532.55,218.67L541.92,220.72L551.61,222.79L560.98,220.33L570.66,217.85L580.34,214.03L589.09,210.98L598.77,205.63L608.14,204.18L617.83,201.49L627.2,200.18L636.88,202.31L646.56,201.07L655.93,201.4L665.62,199.92L674.99,199.32L694.35,205.94L703.1,204.35L712.78,206.02L722.15,206.66L731.83,209.69L741.2,209.46L750.89,208.49L760.57,211.79L769.94,215.8L779.62,221.29L798.68,227.67L808.36,224.74L817.1,229.73L826.79,233.41L845.84,242.61L855.21,251.41L874.58,264.07L883.95,267.02L893.63,270.88L903,276.64" style="vector-effect: none; fill: none; stroke: rgb(119, 234, 148); stroke-opacity: 1; stroke-width: 1px; opacity: 1;"/></g><g class="points"/><g class="text"/></g><g class="trace scatter trace73277a" style="stroke-miterlimit: 2;"><g class="fills"><g><path class="js-fill" d="M-9.68,91.97L0,91.07L9.68,94.13L28.42,95.7L37.79,95.21L66.53,94.8L76.21,95.08L85.58,95.46L95.27,92.74L104.64,90.19L114.32,91.78L124,94.98L132.75,100.18L142.43,103.48L151.8,103.2L161.48,105.91L170.85,109.45L180.54,112.64L190.22,117.69L199.59,125.25L209.27,130L218.64,136.07L228.33,138.69L238.01,133.56L246.76,130.18L256.44,129.6L265.81,131.24L275.49,129.91L284.86,125.25L294.54,122.93L304.23,121.72L313.6,118.44L323.28,116.37L342.33,112.48L352.02,115.66L360.76,121.26L370.45,120.89L379.82,122.25L389.5,126.04L398.87,130.69L408.55,134.44L418.23,138.03L427.61,140.1L437.29,141.5L446.66,144.17L456.34,148.63L466.02,156.44L475.08,158.08L484.77,163.61L494.14,167.19L503.82,168.41L513.19,170.45L522.87,170.42L532.55,168.45L541.92,170.58L551.61,172.27L560.98,170.07L570.66,168.01L580.34,164.09L589.09,161.17L598.77,156.62L608.14,155.34L617.83,151.38L627.2,150.02L636.88,152.09L646.56,150.86L655.93,150.73L674.99,149.33L684.67,152.2L694.35,155.74L703.1,153.26L712.78,154.9L722.15,154.55L731.83,157.38L741.2,156.2L750.89,154.04L760.57,157.45L769.94,160.96L779.62,165.85L798.68,172.34L808.36,169.26L817.1,175.56L826.79,179.3L845.84,186.96L855.21,195.84L864.89,202.91L874.58,207.22L893.63,214.3L903,219.63L903,264.84L893.63,259.4L883.95,255.82L874.58,252.72L855.21,240.51L845.84,231.86L826.79,222.98L817.1,219.4L808.36,214.52L798.68,217.51L779.62,211.16L769.94,205.79L760.57,202.01L750.89,198.6L741.2,199.11L731.83,198.94L722.15,195.61L712.78,194.76L703.1,193.02L694.35,194.39L684.67,190.65L674.99,187.48L655.93,189.19L646.56,188.44L636.88,189.54L627.2,187.6L617.83,188.99L608.14,191.8L598.77,193.33L589.09,198.57L580.34,201.46L570.66,205.12L560.98,207.57L551.61,209.98L541.92,207.91L532.55,205.99L522.87,207.38L513.19,207.28L503.82,204.79L494.14,204.17L484.77,199.63L475.08,193.12L466.02,190.61L456.34,183.23L446.66,178.48L437.29,175.48L418.23,172.37L408.55,168.9L389.5,160.78L379.82,156.07L370.45,155.46L360.76,155.6L352.02,149.72L342.33,146.25L313.6,151.89L304.23,154.66L294.54,155.06L284.86,156.9L275.49,160.52L265.81,161.87L256.44,159.57L246.76,159.35L228.33,168L218.64,165.44L209.27,159.61L199.59,155.02L190.22,147.09L180.54,142.67L151.8,132.86L142.43,132.81L132.75,129.43L124,123.56L114.32,120.17L104.64,118.46L95.27,121.06L85.58,123.87L76.21,123.71L66.53,122.92L9.68,122.67L0,119.7L-9.68,120.52Z" style="fill: rgb(59, 177, 97); fill-opacity: 0.5; stroke-width: 0;"/></g></g><g class="errorbars"/><g class="lines"><path class="js-line" d="M-9.68,120.52L0,119.7L9.68,122.67L66.53,122.92L76.21,123.71L85.58,123.87L95.27,121.06L104.64,118.46L114.32,120.17L124,123.56L132.75,129.43L142.43,132.81L151.8,132.86L180.54,142.67L190.22,147.09L199.59,155.02L209.27,159.61L218.64,165.44L228.33,168L246.76,159.35L256.44,159.57L265.81,161.87L275.49,160.52L284.86,156.9L294.54,155.06L304.23,154.66L313.6,151.89L342.33,146.25L352.02,149.72L360.76,155.6L370.45,155.46L379.82,156.07L389.5,160.78L408.55,168.9L418.23,172.37L437.29,175.48L446.66,178.48L456.34,183.23L466.02,190.61L475.08,193.12L484.77,199.63L494.14,204.17L503.82,204.79L513.19,207.28L522.87,207.38L532.55,205.99L541.92,207.91L551.61,209.98L560.98,207.57L570.66,205.12L580.34,201.46L589.09,198.57L598.77,193.33L608.14,191.8L617.83,188.99L627.2,187.6L636.88,189.54L646.56,188.44L655.93,189.19L674.99,187.48L684.67,190.65L694.35,194.39L703.1,193.02L712.78,194.76L722.15,195.61L731.83,198.94L741.2,199.11L750.89,198.6L760.57,202.01L769.94,205.79L779.62,211.16L798.68,217.51L808.36,214.52L817.1,219.4L826.79,222.98L845.84,231.86L855.21,240.51L874.58,252.72L883.95,255.82L893.63,259.4L903,264.84" style="vector-effect: none; fill: none; stroke: rgb(90, 205, 122); stroke-opacity: 1; stroke-width: 1px; opacity: 1;"/></g><g class="points"/><g class="text"/></g><g class="trace scatter trace3ac2eb" style="stroke-miterlimit: 2;"><g class="fills"><g><path class="js-fill" d="M-9.68,28.79L9.68,27.02L18.74,28.15L28.42,28.51L37.79,27.31L56.85,28.3L66.53,27.66L76.21,29.03L85.58,28.05L104.64,26.86L114.32,29.79L132.75,35.51L142.43,37.09L161.48,36.86L170.85,39.77L209.27,50.48L218.64,52.08L238.01,45.75L246.76,41.32L256.44,40.07L265.81,40.42L275.49,40.21L284.86,36.44L304.23,31.15L313.6,29.35L332.65,26.12L342.33,23.5L360.76,25.29L370.45,24.83L379.82,25.37L389.5,28.47L398.87,31.36L408.55,35.24L418.23,37.79L427.61,39.08L437.29,40.39L446.66,42.45L456.34,45.94L466.02,46.04L475.08,49.39L484.77,55.1L494.14,59.13L503.82,60.51L513.19,62.17L522.87,61.48L551.61,62.94L560.98,63.66L570.66,65.28L580.34,68.77L589.09,68.12L598.77,63.01L608.14,59.77L617.83,57.43L627.2,56.95L636.88,57.92L646.56,57.1L655.93,57.66L665.62,57.52L674.99,56.49L684.67,55.6L694.35,51.39L712.78,51.64L722.15,53.07L731.83,54.96L741.2,52.69L750.89,53.45L760.57,55.01L769.94,60.19L779.62,63.01L788.99,66.26L798.68,68.72L808.36,72.72L817.1,73.85L826.79,78.65L836.16,82.14L845.84,85.54L855.21,92.03L874.58,102.57L883.95,103.05L893.63,103.69L903,103.14L903,219.63L893.63,214.3L874.58,207.22L864.89,202.91L855.21,195.84L845.84,186.96L826.79,179.3L817.1,175.56L808.36,169.26L798.68,172.34L779.62,165.85L769.94,160.96L760.57,157.45L750.89,154.04L741.2,156.2L731.83,157.38L722.15,154.55L712.78,154.9L703.1,153.26L694.35,155.74L684.67,152.2L674.99,149.33L655.93,150.73L646.56,150.86L636.88,152.09L627.2,150.02L617.83,151.38L608.14,155.34L598.77,156.62L589.09,161.17L580.34,164.09L570.66,168.01L560.98,170.07L551.61,172.27L541.92,170.58L532.55,168.45L522.87,170.42L513.19,170.45L503.82,168.41L494.14,167.19L484.77,163.61L475.08,158.08L466.02,156.44L456.34,148.63L446.66,144.17L437.29,141.5L427.61,140.1L418.23,138.03L408.55,134.44L398.87,130.69L389.5,126.04L379.82,122.25L370.45,120.89L360.76,121.26L352.02,115.66L342.33,112.48L323.28,116.37L313.6,118.44L304.23,121.72L294.54,122.93L284.86,125.25L275.49,129.91L265.81,131.24L256.44,129.6L246.76,130.18L238.01,133.56L228.33,138.69L218.64,136.07L209.27,130L199.59,125.25L190.22,117.69L180.54,112.64L170.85,109.45L161.48,105.91L151.8,103.2L142.43,103.48L132.75,100.18L124,94.98L114.32,91.78L104.64,90.19L95.27,92.74L85.58,95.46L76.21,95.08L66.53,94.8L37.79,95.21L28.42,95.7L9.68,94.13L0,91.07L-9.68,91.97Z" style="fill: rgb(16, 150, 72); fill-opacity: 0.5; stroke-width: 0;"/></g></g><g class="errorbars"/><g class="lines"><path class="js-line" d="M-9.68,91.97L0,91.07L9.68,94.13L28.42,95.7L37.79,95.21L66.53,94.8L76.21,95.08L85.58,95.46L95.27,92.74L104.64,90.19L114.32,91.78L124,94.98L132.75,100.18L142.43,103.48L151.8,103.2L161.48,105.91L170.85,109.45L180.54,112.64L190.22,117.69L199.59,125.25L209.27,130L218.64,136.07L228.33,138.69L238.01,133.56L246.76,130.18L256.44,129.6L265.81,131.24L275.49,129.91L284.86,125.25L294.54,122.93L304.23,121.72L313.6,118.44L323.28,116.37L342.33,112.48L352.02,115.66L360.76,121.26L370.45,120.89L379.82,122.25L389.5,126.04L398.87,130.69L408.55,134.44L418.23,138.03L427.61,140.1L437.29,141.5L446.66,144.17L456.34,148.63L466.02,156.44L475.08,158.08L484.77,163.61L494.14,167.19L503.82,168.41L513.19,170.45L522.87,170.42L532.55,168.45L541.92,170.58L551.61,172.27L560.98,170.07L570.66,168.01L580.34,164.09L589.09,161.17L598.77,156.62L608.14,155.34L617.83,151.38L627.2,150.02L636.88,152.09L646.56,150.86L655.93,150.73L674.99,149.33L684.67,152.2L694.35,155.74L703.1,153.26L712.78,154.9L722.15,154.55L731.83,157.38L741.2,156.2L750.89,154.04L760.57,157.45L769.94,160.96L779.62,165.85L798.68,172.34L808.36,169.26L817.1,175.56L826.79,179.3L845.84,186.96L855.21,195.84L864.89,202.91L874.58,207.22L893.63,214.3L903,219.63" style="vector-effect: none; fill: none; stroke: rgb(59, 177, 97); stroke-opacity: 1; stroke-width: 1px; opacity: 1;"/></g><g class="points"/><g class="text"/></g><g class="trace scatter trace6c8a0a" style="stroke-miterlimit: 2;"><g class="fills"/><g class="errorbars"/><g class="lines"><path class="js-line" d="M-9.68,28.79L9.68,27.02L18.74,28.15L28.42,28.51L37.79,27.31L56.85,28.3L66.53,27.66L76.21,29.03L85.58,28.05L104.64,26.86L114.32,29.79L132.75,35.51L142.43,37.09L161.48,36.86L170.85,39.77L209.27,50.48L218.64,52.08L238.01,45.75L246.76,41.32L256.44,40.07L265.81,40.42L275.49,40.21L284.86,36.44L304.23,31.15L313.6,29.35L332.65,26.12L342.33,23.5L360.76,25.29L370.45,24.83L379.82,25.37L389.5,28.47L398.87,31.36L408.55,35.24L418.23,37.79L427.61,39.08L437.29,40.39L446.66,42.45L456.34,45.94L466.02,46.04L475.08,49.39L484.77,55.1L494.14,59.13L503.82,60.51L513.19,62.17L522.87,61.48L551.61,62.94L560.98,63.66L570.66,65.28L580.34,68.77L589.09,68.12L598.77,63.01L608.14,59.77L617.83,57.43L627.2,56.95L636.88,57.92L646.56,57.1L655.93,57.66L665.62,57.52L674.99,56.49L684.67,55.6L694.35,51.39L712.78,51.64L722.15,53.07L731.83,54.96L741.2,52.69L750.89,53.45L760.57,55.01L769.94,60.19L779.62,63.01L788.99,66.26L798.68,68.72L808.36,72.72L817.1,73.85L826.79,78.65L836.16,82.14L845.84,85.54L855.21,92.03L874.58,102.57L883.95,103.05L893.63,103.69L903,103.14" style="vector-effect: none; fill: none; stroke: rgb(16, 150, 72); stroke-opacity: 1; stroke-width: 1px; opacity: 1;"/></g><g class="points"/><g class="text"/></g></g></g><g class="overplot"/><path class="xlines-above crisp" d="" style="fill: none; stroke-width: 1px; stroke: rgb(0, 0, 0); stroke-opacity: 0;"/><path class="ylines-above crisp" d="M0,0" style="fill: none;"/><g class="overlines-above"/><g class="xaxislayer-above"><path class="xtick ticks crisp" d="M0,545v-5" transform="translate(174.32,0)" style="stroke: rgb(68, 68, 68); stroke-opacity: 1; stroke-width: 1px;"/><path class="xtick ticks crisp" d="M0,545v-5" transform="translate(288.33000000000004,0)" style="stroke: rgb(68, 68, 68); stroke-opacity: 1; stroke-width: 1px;"/><path class="xtick ticks crisp" d="M0,545v-5" transform="translate(402.33,0)" style="stroke: rgb(68, 68, 68); stroke-opacity: 1; stroke-width: 1px;"/><path class="xtick ticks crisp" d="M0,545v-5" transform="translate(516.3399999999999,0)" style="stroke: rgb(68, 68, 68); stroke-opacity: 1; stroke-width: 1px;"/><path class="xtick ticks crisp" d="M0,545v-5" transform="translate(630.66,0)" style="stroke: rgb(68, 68, 68); stroke-opacity: 1; stroke-width: 1px;"/><path class="xtick ticks crisp" d="M0,545v-5" transform="translate(744.67,0)" style="stroke: rgb(68, 68, 68); stroke-opacity: 1; stroke-width: 1px;"/><path class="xtick ticks crisp" d="M0,545v-5" transform="translate(858.68,0)" style="stroke: rgb(68, 68, 68); stroke-opacity: 1; stroke-width: 1px;"/><g class="xtick"><text text-anchor="start" x="0" y="562" transform="translate(60.5,0)" style="font-family: Lato; font-size: 16px; fill: rgb(31, 31, 31); fill-opacity: 1; white-space: pre; opacity: 1;">2016</text></g><g class="xtick"><text text-anchor="start" x="0" y="562" style="font-family: Lato; font-size: 16px; fill: rgb(31, 31, 31); fill-opacity: 1; white-space: pre; opacity: 1;" transform="translate(174.82,0)">2017</text></g><g class="xtick"><text text-anchor="start" x="0" y="562" style="font-family: Lato; font-size: 16px; fill: rgb(31, 31, 31); fill-opacity: 1; white-space: pre; opacity: 1;" transform="translate(288.83000000000004,0)">2018</text></g><g class="xtick"><text text-anchor="start" x="0" y="562" style="font-family: Lato; font-size: 16px; fill: rgb(31, 31, 31); fill-opacity: 1; white-space: pre; opacity: 1;" transform="translate(402.83,0)">2019</text></g><g class="xtick"><text text-anchor="start" x="0" y="562" style="font-family: Lato; font-size: 16px; fill: rgb(31, 31, 31); fill-opacity: 1; white-space: pre; opacity: 1;" transform="translate(516.8399999999999,0)">2020</text></g><g class="xtick"><text text-anchor="start" x="0" y="562" style="font-family: Lato; font-size: 16px; fill: rgb(31, 31, 31); fill-opacity: 1; white-space: pre; opacity: 1;" transform="translate(631.16,0)">2021</text></g><g class="xtick"><text text-anchor="start" x="0" y="562" style="font-family: Lato; font-size: 16px; fill: rgb(31, 31, 31); fill-opacity: 1; white-space: pre; opacity: 1;" transform="translate(745.17,0)">2022</text></g><g class="xtick"><text text-anchor="start" x="0" y="562" style="font-family: Lato; font-size: 16px; fill: rgb(31, 31, 31); fill-opacity: 1; white-space: pre; opacity: 1;" transform="translate(859.18,0)">2023</text></g></g><g class="yaxislayer-above"><g class="ytick"><text text-anchor="end" x="54" y="5.6" transform="translate(0,540)" style="font-family: Lato; font-size: 16px; fill: rgb(31, 31, 31); fill-opacity: 1; white-space: pre; opacity: 1;">0</text></g><g class="ytick"><text text-anchor="end" x="54" y="5.6" style="font-family: Lato; font-size: 16px; fill: rgb(31, 31, 31); fill-opacity: 1; white-space: pre; opacity: 1;" transform="translate(0,490.89)">5M</text></g><g class="ytick"><text text-anchor="end" x="54" y="5.6" style="font-family: Lato; font-size: 16px; fill: rgb(31, 31, 31); fill-opacity: 1; white-space: pre; opacity: 1;" transform="translate(0,441.77)">10M</text></g><g class="ytick"><text text-anchor="end" x="54" y="5.6" style="font-family: Lato; font-size: 16px; fill: rgb(31, 31, 31); fill-opacity: 1; white-space: pre; opacity: 1;" transform="translate(0,392.66)">15M</text></g><g class="ytick"><text text-anchor="end" x="54" y="5.6" style="font-family: Lato; font-size: 16px; fill: rgb(31, 31, 31); fill-opacity: 1; white-space: pre; opacity: 1;" transform="translate(0,343.54)">20M</text></g><g class="ytick"><text text-anchor="end" x="54" y="5.6" style="font-family: Lato; font-size: 16px; fill: rgb(31, 31, 31); fill-opacity: 1; white-space: pre; opacity: 1;" transform="translate(0,294.43)">25M</text></g><g class="ytick"><text text-anchor="end" x="54" y="5.6" style="font-family: Lato; font-size: 16px; fill: rgb(31, 31, 31); fill-opacity: 1; white-space: pre; opacity: 1;" transform="translate(0,245.32)">30M</text></g><g class="ytick"><text text-anchor="end" x="54" y="5.6" style="font-family: Lato; font-size: 16px; fill: rgb(31, 31, 31); fill-opacity: 1; white-space: pre; opacity: 1;" transform="translate(0,196.2)">35M</text></g><g class="ytick"><text text-anchor="end" x="54" y="5.6" style="font-family: Lato; font-size: 16px; fill: rgb(31, 31, 31); fill-opacity: 1; white-space: pre; opacity: 1;" transform="translate(0,147.09)">40M</text></g><g class="ytick"><text text-anchor="end" x="54" y="5.6" style="font-family: Lato; font-size: 16px; fill: rgb(31, 31, 31); fill-opacity: 1; white-space: pre; opacity: 1;" transform="translate(0,97.97)">45M</text></g></g><g class="overaxes-above"/></g></g><g class="polarlayer"/><g class="smithlayer"/><g class="ternarylayer"/><g class="geolayer"/><g class="funnelarealayer"/><g class="pielayer"/><g class="iciclelayer"/><g class="treemaplayer"/><g class="sunburstlayer"/><g class="glimages"/><defs id="topdefs-9d4f72"><g class="clips"/><clipPath id="legend9d4f72"><rect width="189" height="272" x="0" y="0"/></clipPath></defs><g class="layer-above"><g class="imagelayer"/><g class="shapelayer"/></g><g class="infolayer"><g class="legend" pointer-events="all" transform="translate(999.12,81.75000000000001)"><rect class="bg" shape-rendering="crispEdges" width="189" height="272" x="0" y="0" style="stroke: rgb(68, 68, 68); stroke-opacity: 1; fill: rgb(255, 255, 255); fill-opacity: 1; stroke-width: 0px;"/><g class="scrollbox" transform="" clip-path="url(#legend9d4f72)"><g class="groups"><g class="traces" transform="translate(0,16.9)" style="opacity: 1;"><text class="legendtext" text-anchor="start" x="40" y="6.24" style="font-family: Lato; font-size: 16px; fill: rgb(31, 31, 31); fill-opacity: 1; white-space: pre;">Wind</text><g class="layers"><g class="legendfill"><path class="js-fill" d="M5,-2h30v6h-30z" style="stroke-width: 0; fill: rgb(16, 150, 72); fill-opacity: 0.5;"/></g><g class="legendlines"><path class="js-line" d="M5,-2h30" style="fill: none; stroke: rgb(16, 150, 72); stroke-opacity: 1; stroke-width: 1px;"/></g><g class="legendsymbols"><g class="legendpoints"/></g></g><rect class="legendtoggle" x="0" y="-11.9" width="183.046875" height="23.8" style="fill: rgb(0, 0, 0); fill-opacity: 0;"/></g><g class="traces" transform="translate(0,40.7)" style="opacity: 1;"><text class="legendtext" text-anchor="start" x="40" y="6.24" style="font-family: Lato; font-size: 16px; fill: rgb(31, 31, 31); fill-opacity: 1; white-space: pre;">Solar</text><g class="layers"><g class="legendfill"><path class="js-fill" d="M5,-2h30v6h-30z" style="stroke-width: 0; fill: rgb(59, 177, 97); fill-opacity: 0.5;"/></g><g class="legendlines"><path class="js-line" d="M5,-2h30" style="fill: none; stroke: rgb(59, 177, 97); stroke-opacity: 1; stroke-width: 1px;"/></g><g class="legendsymbols"><g class="legendpoints"/></g></g><rect class="legendtoggle" x="0" y="-11.9" width="183.046875" height="23.8" style="fill: rgb(0, 0, 0); fill-opacity: 0;"/></g><g class="traces" transform="translate(0,64.5)" style="opacity: 1;"><text class="legendtext" text-anchor="start" x="40" y="6.24" style="font-family: Lato; font-size: 16px; fill: rgb(31, 31, 31); fill-opacity: 1; white-space: pre;">Hydro</text><g class="layers"><g class="legendfill"><path class="js-fill" d="M5,-2h30v6h-30z" style="stroke-width: 0; fill: rgb(90, 205, 122); fill-opacity: 0.5;"/></g><g class="legendlines"><path class="js-line" d="M5,-2h30" style="fill: none; stroke: rgb(90, 205, 122); stroke-opacity: 1; stroke-width: 1px;"/></g><g class="legendsymbols"><g class="legendpoints"/></g></g><rect class="legendtoggle" x="0" y="-11.9" width="183.046875" height="23.8" style="fill: rgb(0, 0, 0); fill-opacity: 0;"/></g><g class="traces" transform="translate(0,88.30000000000001)" style="opacity: 1;"><text class="legendtext" text-anchor="start" x="40" y="6.24" style="font-family: Lato; font-size: 16px; fill: rgb(31, 31, 31); fill-opacity: 1; white-space: pre;">Biomass</text><g class="layers"><g class="legendfill"><path class="js-fill" d="M5,-2h30v6h-30z" style="stroke-width: 0; fill: rgb(119, 234, 148); fill-opacity: 0.5;"/></g><g class="legendlines"><path class="js-line" d="M5,-2h30" style="fill: none; stroke: rgb(119, 234, 148); stroke-opacity: 1; stroke-width: 1px;"/></g><g class="legendsymbols"><g class="legendpoints"/></g></g><rect class="legendtoggle" x="0" y="-11.9" width="183.046875" height="23.8" style="fill: rgb(0, 0, 0); fill-opacity: 0;"/></g><g class="traces" transform="translate(0,112.10000000000001)" style="opacity: 1;"><text class="legendtext" text-anchor="start" x="40" y="6.24" style="font-family: Lato; font-size: 16px; fill: rgb(31, 31, 31); fill-opacity: 1; white-space: pre;">Other renewables</text><g class="layers"><g class="legendfill"><path class="js-fill" d="M5,-2h30v6h-30z" style="stroke-width: 0; fill: rgb(148, 255, 175); fill-opacity: 0.5;"/></g><g class="legendlines"><path class="js-line" d="M5,-2h30" style="fill: none; stroke: rgb(148, 255, 175); stroke-opacity: 1; stroke-width: 1px;"/></g><g class="legendsymbols"><g class="legendpoints"/></g></g><rect class="legendtoggle" x="0" y="-11.9" width="183.046875" height="23.8" style="fill: rgb(0, 0, 0); fill-opacity: 0;"/></g><g class="traces" transform="translate(0,135.9)" style="opacity: 1;"><text class="legendtext" text-anchor="start" x="40" y="6.24" style="font-family: Lato; font-size: 16px; fill: rgb(31, 31, 31); fill-opacity: 1; white-space: pre;">Coal</text><g class="layers"><g class="legendfill"><path class="js-fill" d="M5,-2h30v6h-30z" style="stroke-width: 0; fill: rgb(0, 0, 0); fill-opacity: 0.5;"/></g><g class="legendlines"><path class="js-line" d="M5,-2h30" style="fill: none; stroke: rgb(0, 0, 0); stroke-opacity: 1; stroke-width: 1px;"/></g><g class="legendsymbols"><g class="legendpoints"/></g></g><rect class="legendtoggle" x="0" y="-11.9" width="183.046875" height="23.8" style="fill: rgb(0, 0, 0); fill-opacity: 0;"/></g><g class="traces" transform="translate(0,159.70000000000002)" style="opacity: 1;"><text class="legendtext" text-anchor="start" x="40" y="6.24" style="font-family: Lato; font-size: 16px; fill: rgb(31, 31, 31); fill-opacity: 1; white-space: pre;">Lignite</text><g class="layers"><g class="legendfill"><path class="js-fill" d="M5,-2h30v6h-30z" style="stroke-width: 0; fill: rgb(94, 94, 94); fill-opacity: 0.5;"/></g><g class="legendlines"><path class="js-line" d="M5,-2h30" style="fill: none; stroke: rgb(94, 94, 94); stroke-opacity: 1; stroke-width: 1px;"/></g><g class="legendsymbols"><g class="legendpoints"/></g></g><rect class="legendtoggle" x="0" y="-11.9" width="183.046875" height="23.8" style="fill: rgb(0, 0, 0); fill-opacity: 0;"/></g><g class="traces" transform="translate(0,183.50000000000003)" style="opacity: 1;"><text class="legendtext" text-anchor="start" x="40" y="6.24" style="font-family: Lato; font-size: 16px; fill: rgb(31, 31, 31); fill-opacity: 1; white-space: pre;">Gas</text><g class="layers"><g class="legendfill"><path class="js-fill" d="M5,-2h30v6h-30z" style="stroke-width: 0; fill: rgb(198, 198, 198); fill-opacity: 0.5;"/></g><g class="legendlines"><path class="js-line" d="M5,-2h30" style="fill: none; stroke: rgb(198, 198, 198); stroke-opacity: 1; stroke-width: 1px;"/></g><g class="legendsymbols"><g class="legendpoints"/></g></g><rect class="legendtoggle" x="0" y="-11.9" width="183.046875" height="23.8" style="fill: rgb(0, 0, 0); fill-opacity: 0;"/></g><g class="traces" transform="translate(0,207.30000000000004)" style="opacity: 1;"><text class="legendtext" text-anchor="start" x="40" y="6.24" style="font-family: Lato; font-size: 16px; fill: rgb(31, 31, 31); fill-opacity: 1; white-space: pre;">Other conventionals</text><g class="layers"><g class="legendfill"><path class="js-fill" d="M5,-2h30v6h-30z" style="stroke-width: 0; fill: rgb(255, 199, 76); fill-opacity: 0.5;"/></g><g class="legendlines"><path class="js-line" d="M5,-2h30" style="fill: none; stroke: rgb(255, 199, 76); stroke-opacity: 1; stroke-width: 1px;"/></g><g class="legendsymbols"><g class="legendpoints"/></g></g><rect class="legendtoggle" x="0" y="-11.9" width="183.046875" height="23.8" style="fill: rgb(0, 0, 0); fill-opacity: 0;"/></g><g class="traces" transform="translate(0,231.10000000000005)" style="opacity: 1;"><text class="legendtext" text-anchor="start" x="40" y="6.24" style="font-family: Lato; font-size: 16px; fill: rgb(31, 31, 31); fill-opacity: 1; white-space: pre;">Pumped storage</text><g class="layers"><g class="legendfill"><path class="js-fill" d="M5,-2h30v6h-30z" style="stroke-width: 0; fill: rgb(255, 171, 46); fill-opacity: 0.5;"/></g><g class="legendlines"><path class="js-line" d="M5,-2h30" style="fill: none; stroke: rgb(255, 171, 46); stroke-opacity: 1; stroke-width: 1px;"/></g><g class="legendsymbols"><g class="legendpoints"/></g></g><rect class="legendtoggle" x="0" y="-11.9" width="183.046875" height="23.8" style="fill: rgb(0, 0, 0); fill-opacity: 0;"/></g><g class="traces" transform="translate(0,254.90000000000006)" style="opacity: 1;"><text class="legendtext" text-anchor="start" x="40" y="6.24" style="font-family: Lato; font-size: 16px; fill: rgb(31, 31, 31); fill-opacity: 1; white-space: pre;">Nuclear</text><g class="layers"><g class="legendfill"><path class="js-fill" d="M5,-2h30v6h-30z" style="stroke-width: 0; fill: rgb(255, 144, 0); fill-opacity: 0.5;"/></g><g class="legendlines"><path class="js-line" d="M5,-2h30" style="fill: none; stroke: rgb(255, 144, 0); stroke-opacity: 1; stroke-width: 1px;"/></g><g class="legendsymbols"><g class="legendpoints"/></g></g><rect class="legendtoggle" x="0" y="-11.9" width="183.046875" height="23.8" style="fill: rgb(0, 0, 0); fill-opacity: 0;"/></g></g></g><rect class="scrollbar" rx="20" ry="3" width="0" height="0" x="0" y="0" style="fill: rgb(128, 139, 164); fill-opacity: 1;"/></g><g class="g-gtitle"><text class="gtitle" x="12" y="36" text-anchor="start" dy="0.7em" style="font-family: Lato; font-size: 32px; fill: rgb(31, 31, 31); opacity: 1; font-weight: normal; white-space: pre;"><tspan class="line" dy="0em" x="12" y="36"><tspan style="font-weight:bold">Total German electricity production tends to decline</tspan></tspan><tspan class="line" dy="1.3em" x="12" y="36"><tspan style="font-size:70%" dy="-0.6em">Monthly electricity production 2016-2023 (in MWh, 12 month rolling average)</tspan><tspan dy="0.42em"></tspan></tspan></text></g><g class="g-xtitle"/><g class="g-ytitle"/><g class="annotation" data-index="0" style="opacity: 1;"><g class="annotation-text-g" transform="rotate(-90,991.12,148)"><g class="cursor-pointer" transform="translate(960,140)"><rect class="bg" x="0.5" y="0.5" width="61" height="15" style="stroke-width: 1px; stroke: rgb(0, 0, 0); stroke-opacity: 0; fill: rgb(0, 0, 0); fill-opacity: 0;"/><text class="annotation-text" text-anchor="middle" x="30.828125" y="12" style="font-family: Lato; font-size: 12px; fill: rgb(102, 102, 102); fill-opacity: 1; white-space: pre;">Renewable</text></g></g></g><g class="annotation" data-index="1" style="opacity: 1;"><g class="annotation-text-g" transform="rotate(-90,991.12,246.29999999999998)"><g class="cursor-pointer" transform="translate(975,238)"><rect class="bg" x="0.5" y="0.5" width="32" height="15" style="stroke-width: 1px; stroke: rgb(0, 0, 0); stroke-opacity: 0; fill: rgb(0, 0, 0); fill-opacity: 0;"/><text class="annotation-text" text-anchor="middle" x="16.59375" y="12" style="font-family: Lato; font-size: 12px; fill: rgb(102, 102, 102); fill-opacity: 1; white-space: pre;">Fossil</text></g></g></g><g class="annotation" data-index="2" style="opacity: 1;"><g class="annotation-text-g" transform="rotate(-90,991.12,313.6)"><g class="cursor-pointer" transform="translate(973,306)"><rect class="bg" x="0.5" y="0.5" width="35" height="15" style="stroke-width: 1px; stroke: rgb(0, 0, 0); stroke-opacity: 0; fill: rgb(0, 0, 0); fill-opacity: 0;"/><text class="annotation-text" text-anchor="middle" x="17.65625" y="12" style="font-family: Lato; font-size: 12px; fill: rgb(102, 102, 102); fill-opacity: 1; white-space: pre;">Other</text></g></g></g><g class="annotation" data-index="3" style="opacity: 1;"><g class="annotation-text-g" transform="rotate(0,297.485,580.9000000000001)"><g class="cursor-pointer" transform="translate(55,573)"><rect class="bg" x="0.5" y="0.5" width="483" height="15" style="stroke-width: 1px; stroke: rgb(0, 0, 0); stroke-opacity: 0; fill: rgb(0, 0, 0); fill-opacity: 0;"/><text class="annotation-text" text-anchor="middle" x="242.078125" y="12" style="font-family: Lato; font-size: 12px; fill: rgb(31, 31, 31); fill-opacity: 1; white-space: pre;"><tspan style="font-weight:bold">Data:</tspan> SMARD/Bundesnetzagentur,  <tspan style="font-weight:bold">Graph:</tspan> Jan Khn (https://yotka.org),  <tspan style="font-weight:bold">License:</tspan> CC by 4.0</text></g></g></g><g class="annotation" data-index="4" style="opacity: 1;"><g class="annotation-text-g" transform="rotate(0,953,158.14)"><g class="cursor-pointer" transform="translate(932,148)"><rect class="bg" x="0.5" y="0.5" width="41" height="19" style="stroke-width: 1px; stroke: rgb(0, 0, 0); stroke-opacity: 0; fill: rgb(0, 0, 0); fill-opacity: 0;"/><text class="annotation-text" text-anchor="middle" x="20.828125" y="15" style="font-family: Lato; font-size: 16px; fill: rgb(31, 31, 31); fill-opacity: 1; white-space: pre;"><tspan style="font-weight:bold">-17%</tspan></text></g></g></g></g></svg>